<svg width="81" height="80" viewBox="0 0 81 80" fill="none" xmlns="http://www.w3.org/2000/svg">
<g id="Artboard-26" clip-path="url(#clip0_3316_89286)">
<g id="Working">
<path id="Vector" d="M28 55C43.1878 55 55.5 42.6878 55.5 27.5C55.5 12.3122 43.1878 0 28 0C12.8122 0 0.5 12.3122 0.5 27.5C0.5 42.6878 12.8122 55 28 55Z" fill="#F2F2F2"/>
<path id="Vector_2" d="M28 51.25C41.1168 51.25 51.75 40.6168 51.75 27.5C51.75 14.3832 41.1168 3.75 28 3.75C14.8832 3.75 4.25 14.3832 4.25 27.5C4.25 40.6168 14.8832 51.25 28 51.25Z" fill="#F7D0D1"/>
<path id="Vector_3" d="M74.25 63.75H6.75C6.05964 63.75 5.5 64.3096 5.5 65V78.75C5.5 79.4404 6.05964 80 6.75 80H74.25C74.9404 80 75.5 79.4404 75.5 78.75V65C75.5 64.3096 74.9404 63.75 74.25 63.75Z" fill="#FF4245"/>
<path id="Vector_4" d="M59.35 7.5H51.75C50.7554 7.5 49.8016 7.89509 49.0984 8.59835C48.3951 9.30161 48 10.2554 48 11.25H46.75C45.7554 11.25 44.8016 11.6451 44.0984 12.3483C43.3951 13.0516 43 14.0054 43 15V22.8375C43.3798 22.6172 43.8109 22.5008 44.25 22.5H48V17.5C48 17.5 51.75 20 63 20V22.5H66.75C67.1891 22.5008 67.6202 22.6172 68 22.8375V16.15C67.9993 13.8561 67.0878 11.6563 65.4657 10.0343C63.8437 8.41221 61.6439 7.50066 59.35 7.5Z" fill="#4F5460"/>
<path id="Vector_5" d="M49.25 21.25H44.25C43.5876 21.252 42.9528 21.516 42.4844 21.9844C42.016 22.4528 41.752 23.0876 41.75 23.75V25C41.752 25.6624 42.016 26.2972 42.4844 26.7656C42.9528 27.234 43.5876 27.498 44.25 27.5H49.6875C49.3958 26.6989 49.2477 25.8526 49.25 25V21.25Z" fill="#F7CDCD"/>
<path id="Vector_6" d="M66.75 21.25H61.75V25C61.7523 25.8526 61.6042 26.6989 61.3125 27.5H66.75C67.4124 27.498 68.0472 27.234 68.5156 26.7656C68.984 26.2972 69.248 25.6624 69.25 25V23.75C69.248 23.0876 68.984 22.4528 68.5156 21.9844C68.0472 21.516 67.4124 21.252 66.75 21.25Z" fill="#F7CDCD"/>
<path id="Vector_7" d="M55.5 31.25C53.6516 31.254 51.8684 30.5675 50.5 29.325V35C50.5 36.326 51.0268 37.5978 51.9645 38.5355C52.9021 39.4732 54.1739 40 55.5 40C56.8261 40 58.0979 39.4732 59.0355 38.5355C59.9732 37.5978 60.5 36.326 60.5 35V29.325C59.1316 30.5675 57.3484 31.254 55.5 31.25Z" fill="#F7CDCD"/>
<path id="Vector_8" d="M48 16.25V25C48 26.9891 48.7902 28.8968 50.1967 30.3033C51.6032 31.7098 53.5109 32.5 55.5 32.5C57.4891 32.5 59.3968 31.7098 60.8033 30.3033C62.2098 28.8968 63 26.9891 63 25V18.75C51.75 18.75 48 16.25 48 16.25Z" fill="#FFE1E1"/>
<path id="Vector_9" d="M69.1875 36.65L60.5 33.75C60.5 35.0761 59.9732 36.3479 59.0355 37.2855C58.0979 38.2232 56.8261 38.75 55.5 38.75C54.1739 38.75 52.9021 38.2232 51.9645 37.2855C51.0268 36.3479 50.5 35.0761 50.5 33.75L41.8125 36.65C41.0664 36.8973 40.4173 37.3734 39.9573 38.0107C39.4972 38.648 39.2498 39.414 39.25 40.2V46.25H71.75V40.2C71.7502 39.414 71.5028 38.648 71.0427 38.0107C70.5827 37.3734 69.9336 36.8973 69.1875 36.65Z" fill="#F2F2F2"/>
<path id="Vector_10" d="M46.75 47.5C46.4185 47.5 46.1005 47.3683 45.8661 47.1339C45.6317 46.8995 45.5 46.5815 45.5 46.25V42.5C45.5 42.1685 45.6317 41.8505 45.8661 41.6161C46.1005 41.3817 46.4185 41.25 46.75 41.25C47.0815 41.25 47.3995 41.3817 47.6339 41.6161C47.8683 41.8505 48 42.1685 48 42.5V46.25C48 46.5815 47.8683 46.8995 47.6339 47.1339C47.3995 47.3683 47.0815 47.5 46.75 47.5Z" fill="#F7D0D1"/>
<path id="Vector_11" d="M64.25 47.5C63.9185 47.5 63.6005 47.3683 63.3661 47.1339C63.1317 46.8995 63 46.5815 63 46.25V42.5C63 42.1685 63.1317 41.8505 63.3661 41.6161C63.6005 41.3817 63.9185 41.25 64.25 41.25C64.5815 41.25 64.8995 41.3817 65.1339 41.6161C65.3683 41.8505 65.5 42.1685 65.5 42.5V46.25C65.5 46.5815 65.3683 46.8995 65.1339 47.1339C64.8995 47.3683 64.5815 47.5 64.25 47.5Z" fill="#F7D0D1"/>
<path id="Vector_12" d="M33 33.75C32.6685 33.7499 32.3506 33.6182 32.1162 33.3838L27.1162 28.3838C26.8818 28.1494 26.7501 27.8315 26.75 27.5V20C26.75 19.6685 26.8817 19.3505 27.1161 19.1161C27.3505 18.8817 27.6685 18.75 28 18.75C28.3315 18.75 28.6495 18.8817 28.8839 19.1161C29.1183 19.3505 29.25 19.6685 29.25 20V26.9825L33.8838 31.6162C34.0585 31.7911 34.1775 32.0138 34.2257 32.2562C34.2739 32.4987 34.2492 32.7499 34.1546 32.9783C34.06 33.2067 33.8998 33.4019 33.6943 33.5393C33.4888 33.6766 33.2472 33.7499 33 33.75Z" fill="#FF4245"/>
<path id="Vector_13" d="M28 12.5C27.6685 12.5 27.3505 12.3683 27.1161 12.1339C26.8817 11.8995 26.75 11.5815 26.75 11.25V8.75C26.75 8.41848 26.8817 8.10054 27.1161 7.86612C27.3505 7.6317 27.6685 7.5 28 7.5C28.3315 7.5 28.6495 7.6317 28.8839 7.86612C29.1183 8.10054 29.25 8.41848 29.25 8.75V11.25C29.25 11.5815 29.1183 11.8995 28.8839 12.1339C28.6495 12.3683 28.3315 12.5 28 12.5Z" fill="#FF4245"/>
<path id="Vector_14" d="M20.5 14.5101C20.2129 14.6758 19.8717 14.7207 19.5515 14.6349C19.2313 14.5491 18.9583 14.3396 18.7925 14.0526L17.5425 11.8876C17.4591 11.7453 17.4047 11.588 17.3824 11.4247C17.36 11.2614 17.3702 11.0952 17.4124 10.9359C17.4545 10.7765 17.5278 10.627 17.6279 10.4961C17.728 10.3651 17.8531 10.2553 17.9958 10.1728C18.1386 10.0904 18.2963 10.037 18.4597 10.0158C18.6232 9.99455 18.7893 10.0058 18.9484 10.049C19.1075 10.0922 19.2564 10.1665 19.3867 10.2675C19.517 10.3685 19.626 10.4942 19.7075 10.6376L20.9575 12.8026C21.1232 13.0896 21.1682 13.4308 21.0824 13.7511C20.9966 14.0713 20.7871 14.3443 20.5 14.5101Z" fill="#FF4245"/>
<path id="Vector_15" d="M35.5 14.5101C35.7871 14.6758 36.1282 14.7207 36.4485 14.6349C36.7687 14.5491 37.0417 14.3396 37.2075 14.0526L38.4575 11.8876C38.5408 11.7453 38.5953 11.588 38.6176 11.4247C38.6399 11.2614 38.6297 11.0952 38.5876 10.9359C38.5455 10.7765 38.4722 10.627 38.3721 10.4961C38.2719 10.3651 38.1469 10.2553 38.0041 10.1728C37.8614 10.0904 37.7037 10.037 37.5402 10.0158C37.3768 9.99455 37.2107 10.0058 37.0516 10.049C36.8925 10.0922 36.7435 10.1665 36.6132 10.2675C36.483 10.3685 36.3739 10.4942 36.2925 10.6376L35.0425 12.8026C34.8767 13.0896 34.8318 13.4308 34.9176 13.7511C35.0034 14.0713 35.2129 14.3443 35.5 14.5101Z" fill="#FF4245"/>
<path id="Vector_16" d="M15.0101 20C14.8443 20.2871 14.5713 20.4966 14.2511 20.5824C13.9309 20.6682 13.5897 20.6233 13.3026 20.4575L11.1376 19.2075C10.8528 19.0406 10.6457 18.7678 10.5613 18.4487C10.4769 18.1295 10.5222 17.79 10.6873 17.5041C10.8523 17.2183 11.1237 17.0093 11.4423 16.9228C11.7608 16.8363 12.1007 16.8794 12.3876 17.0425L14.5526 18.2925C14.8397 18.4583 15.0492 18.7313 15.135 19.0515C15.2208 19.3717 15.1758 19.7129 15.0101 20Z" fill="#FF4245"/>
<path id="Vector_17" d="M13 27.5C13 27.8315 12.8683 28.1495 12.6339 28.3839C12.3995 28.6183 12.0815 28.75 11.75 28.75H9.25C8.91848 28.75 8.60054 28.6183 8.36612 28.3839C8.1317 28.1495 8 27.8315 8 27.5C8 27.1685 8.1317 26.8505 8.36612 26.6161C8.60054 26.3817 8.91848 26.25 9.25 26.25H11.75C12.0815 26.25 12.3995 26.3817 12.6339 26.6161C12.8683 26.8505 13 27.1685 13 27.5Z" fill="#FF4245"/>
<path id="Vector_18" d="M15.0101 35C15.1758 35.2871 15.2208 35.6282 15.135 35.9485C15.0492 36.2687 14.8397 36.5417 14.5526 36.7075L12.3876 37.9575C12.1007 38.1206 11.7608 38.1636 11.4423 38.0771C11.1237 37.9907 10.8523 37.7817 10.6873 37.4958C10.5222 37.21 10.4769 36.8704 10.5613 36.5513C10.6457 36.2322 10.8528 35.9594 11.1376 35.7925L13.3026 34.5425C13.5897 34.3767 13.9309 34.3318 14.2511 34.4176C14.5713 34.5034 14.8443 34.7129 15.0101 35Z" fill="#FF4245"/>
<path id="Vector_19" d="M20.5 40.49C20.7871 40.6557 20.9966 40.9288 21.0824 41.249C21.1682 41.5692 21.1232 41.9104 20.9575 42.1975L19.7075 44.3625C19.626 44.5058 19.517 44.6316 19.3867 44.7326C19.2564 44.8336 19.1075 44.9078 18.9484 44.951C18.7893 44.9942 18.6232 45.0055 18.4597 44.9842C18.2963 44.963 18.1386 44.9096 17.9958 44.8272C17.8531 44.7448 17.728 44.6349 17.6279 44.5039C17.5278 44.373 17.4545 44.2235 17.4124 44.0642C17.3702 43.9048 17.36 43.7386 17.3824 43.5753C17.4047 43.412 17.4591 43.2547 17.5425 43.1125L18.7925 40.9475C18.9583 40.6604 19.2313 40.4509 19.5515 40.3651C19.8717 40.2793 20.2129 40.3242 20.5 40.49Z" fill="#FF4245"/>
<path id="Vector_20" d="M28 42.5C28.3315 42.5 28.6495 42.6317 28.8839 42.8661C29.1183 43.1005 29.25 43.4185 29.25 43.75V46.25C29.25 46.5815 29.1183 46.8995 28.8839 47.1339C28.6495 47.3683 28.3315 47.5 28 47.5C27.6685 47.5 27.3505 47.3683 27.1161 47.1339C26.8817 46.8995 26.75 46.5815 26.75 46.25V43.75C26.75 43.4185 26.8817 43.1005 27.1161 42.8661C27.3505 42.6317 27.6685 42.5 28 42.5Z" fill="#FF4245"/>
<path id="Vector_21" d="M75.2501 45.5C75.1337 45.3448 74.9827 45.2187 74.8091 45.132C74.6355 45.0452 74.4441 45 74.2501 45H36.7501C36.5553 45 36.3631 45.0455 36.189 45.133C36.0149 45.2204 35.8636 45.3473 35.7473 45.5036C35.631 45.6599 35.5528 45.8412 35.519 46.0331C35.4852 46.225 35.4967 46.4221 35.5526 46.6087L39.3026 59.1087C39.3798 59.3664 39.538 59.5922 39.7537 59.7528C39.9694 59.9133 40.2312 60 40.5001 60H70.5001C70.769 60 71.0308 59.9133 71.2465 59.7528C71.4622 59.5922 71.6204 59.3664 71.6976 59.1087L75.4476 46.6087C75.5037 46.4214 75.5151 46.2234 75.4808 46.0309C75.4465 45.8383 75.3675 45.6565 75.2501 45.5Z" fill="#FF4245"/>
<path id="Vector_22" d="M55.5 55C57.5711 55 59.25 53.3211 59.25 51.25C59.25 49.1789 57.5711 47.5 55.5 47.5C53.4289 47.5 51.75 49.1789 51.75 51.25C51.75 53.3211 53.4289 55 55.5 55Z" fill="#C10003"/>
<path id="Vector_23" d="M79.25 57.5H1.75C1.05964 57.5 0.5 58.0596 0.5 58.75V65C0.5 65.6904 1.05964 66.25 1.75 66.25H79.25C79.9404 66.25 80.5 65.6904 80.5 65V58.75C80.5 58.0596 79.9404 57.5 79.25 57.5Z" fill="#C10003"/>
</g>
</g>
<defs>
<clipPath id="clip0_3316_89286">
<rect width="80" height="80" fill="white" transform="translate(0.5)"/>
</clipPath>
</defs>
</svg>
