<svg width="81" height="80" viewBox="0 0 81 80" fill="none" xmlns="http://www.w3.org/2000/svg">
<g id="Artboard-24" clip-path="url(#clip0_3250_74436)">
<g id="Hand Website">
<path id="Vector" d="M79.25 0H24.25C23.5596 0 23 0.559644 23 1.25V46.25C23 46.9404 23.5596 47.5 24.25 47.5H79.25C79.9404 47.5 80.5 46.9404 80.5 46.25V1.25C80.5 0.559644 79.9404 0 79.25 0Z" fill="#F2F2F2"/>
<path id="Vector_2" d="M79.25 0H24.25C23.9185 0 23.6005 0.131696 23.3661 0.366117C23.1317 0.600537 23 0.918479 23 1.25V13.75H39.25C40.3582 13.7489 41.4347 13.3802 42.3109 12.7015C43.187 12.0229 43.8132 11.0728 44.0913 10H80.5V1.25C80.5 0.918479 80.3683 0.600537 80.1339 0.366117C79.8995 0.131696 79.5815 0 79.25 0Z" fill="#FF4245"/>
<path id="Vector_3" d="M29.25 10H28C27.6685 10 27.3505 9.8683 27.1161 9.63388C26.8817 9.39946 26.75 9.08152 26.75 8.75C26.75 8.41848 26.8817 8.10054 27.1161 7.86612C27.3505 7.6317 27.6685 7.5 28 7.5H29.25C29.5815 7.5 29.8995 7.6317 30.1339 7.86612C30.3683 8.10054 30.5 8.41848 30.5 8.75C30.5 9.08152 30.3683 9.39946 30.1339 9.63388C29.8995 9.8683 29.5815 10 29.25 10Z" fill="#C10003"/>
<path id="Vector_4" d="M34.25 10H33C32.6685 10 32.3505 9.8683 32.1161 9.63388C31.8817 9.39946 31.75 9.08152 31.75 8.75C31.75 8.41848 31.8817 8.10054 32.1161 7.86612C32.3505 7.6317 32.6685 7.5 33 7.5H34.25C34.5815 7.5 34.8995 7.6317 35.1339 7.86612C35.3683 8.10054 35.5 8.41848 35.5 8.75C35.5 9.08152 35.3683 9.39946 35.1339 9.63388C34.8995 9.8683 34.5815 10 34.25 10Z" fill="#C10003"/>
<path id="Vector_5" d="M39.25 10H38C37.6685 10 37.3505 9.8683 37.1161 9.63388C36.8817 9.39946 36.75 9.08152 36.75 8.75C36.75 8.41848 36.8817 8.10054 37.1161 7.86612C37.3505 7.6317 37.6685 7.5 38 7.5H39.25C39.5815 7.5 39.8995 7.6317 40.1339 7.86612C40.3683 8.10054 40.5 8.41848 40.5 8.75C40.5 9.08152 40.3683 9.39946 40.1339 9.63388C39.8995 9.8683 39.5815 10 39.25 10Z" fill="#C10003"/>
<path id="Vector_6" d="M74.25 6.25H49.25C48.9185 6.25 48.6005 6.1183 48.3661 5.88388C48.1317 5.64946 48 5.33152 48 5C48 4.66848 48.1317 4.35054 48.3661 4.11612C48.6005 3.8817 48.9185 3.75 49.25 3.75H74.25C74.5815 3.75 74.8995 3.8817 75.1339 4.11612C75.3683 4.35054 75.5 4.66848 75.5 5C75.5 5.33152 75.3683 5.64946 75.1339 5.88388C74.8995 6.1183 74.5815 6.25 74.25 6.25Z" fill="#C10003"/>
<path id="Vector_7" d="M55.5 23.75H48C47.3096 23.75 46.75 24.3096 46.75 25V38.75C46.75 39.4404 47.3096 40 48 40H55.5C56.1904 40 56.75 39.4404 56.75 38.75V25C56.75 24.3096 56.1904 23.75 55.5 23.75Z" fill="#FF4245"/>
<path id="Vector_8" d="M68 17.5H60.5C59.8096 17.5 59.25 18.0596 59.25 18.75V38.75C59.25 39.4404 59.8096 40 60.5 40H68C68.6904 40 69.25 39.4404 69.25 38.75V18.75C69.25 18.0596 68.6904 17.5 68 17.5Z" fill="#FF4245"/>
<path id="Vector_9" d="M43 30H35.5C34.8096 30 34.25 30.5596 34.25 31.25V38.75C34.25 39.4404 34.8096 40 35.5 40H43C43.6904 40 44.25 39.4404 44.25 38.75V31.25C44.25 30.5596 43.6904 30 43 30Z" fill="#FF4245"/>
<path id="Vector_10" d="M71.75 40H31.75C31.4185 40 31.1005 39.8683 30.8661 39.6339C30.6317 39.3995 30.5 39.0815 30.5 38.75C30.5 38.4185 30.6317 38.1005 30.8661 37.8661C31.1005 37.6317 31.4185 37.5 31.75 37.5H71.75C72.0815 37.5 72.3995 37.6317 72.6339 37.8661C72.8683 38.1005 73 38.4185 73 38.75C73 39.0815 72.8683 39.3995 72.6339 39.6339C72.3995 39.8683 72.0815 40 71.75 40Z" fill="#C10003"/>
<path id="Vector_11" d="M77.8538 51.98C77.0388 51.3985 76.0946 51.0241 75.1026 50.8891C74.1106 50.7541 73.1007 50.8625 72.16 51.205L46.34 60.4263C46.4506 59.7407 46.4506 59.0419 46.34 58.3563C46.2103 57.5168 45.9144 56.7116 45.4696 55.9879C45.0249 55.2641 44.4403 54.6363 43.75 54.1413L27.875 42.67C26.597 41.7429 25.0576 41.2456 23.4787 41.25H11.75C11.4185 41.25 11.1005 41.3817 10.8661 41.6161C10.6317 41.8506 10.5 42.1685 10.5 42.5V70C10.5 70.3315 10.6317 70.6495 10.8661 70.8839C11.1005 71.1183 11.4185 71.25 11.75 71.25H18.6075C19.5949 71.2487 20.5605 71.5411 21.3813 72.09L27.45 76.135C30.9793 78.5026 35.0978 79.8416 39.3446 80.0023C43.5915 80.163 47.7993 79.1391 51.4975 77.045L77.3188 62.52C78.2832 61.9765 79.0859 61.1865 79.6449 60.2309C80.2038 59.2753 80.4989 58.1883 80.5 57.0813C80.5063 56.08 80.2687 55.0923 79.8076 54.2035C79.3466 53.3146 78.6759 52.5515 77.8538 51.98Z" fill="#FFE1E1"/>
<path id="Vector_12" d="M48.9375 59.5002C48.9242 61.1502 48.4555 62.7645 47.583 64.1651C46.7106 65.5657 45.4684 66.6982 43.9933 67.4377C42.5181 68.1772 40.8675 68.495 39.2232 68.356C37.579 68.217 36.0051 67.6267 34.675 66.6502L24.55 59.2877C24.2809 59.0929 24.0996 58.7997 24.0457 58.4719C23.9919 58.1441 24.0698 57.8083 24.2625 57.5377C24.3591 57.4044 24.4811 57.2916 24.6215 57.2056C24.7618 57.1196 24.9178 57.0622 25.0804 57.0366C25.243 57.0111 25.409 57.0179 25.569 57.0567C25.7289 57.0955 25.8797 57.1655 26.0125 57.2627L36.15 64.6377C37.2572 65.4459 38.5917 65.8834 39.9625 65.8877C40.814 65.8897 41.6574 65.7216 42.443 65.3932C43.2287 65.0647 43.9408 64.5826 44.5375 63.9752C45.5062 63.0097 46.145 61.7629 46.3625 60.4127L48.9375 59.5002Z" fill="#F7CDCD"/>
<path id="Vector_13" d="M11.75 37.5H1.75C1.05964 37.5 0.5 38.0596 0.5 38.75V73.75C0.5 74.4404 1.05964 75 1.75 75H11.75C12.4404 75 13 74.4404 13 73.75V38.75C13 38.0596 12.4404 37.5 11.75 37.5Z" fill="#FF4245"/>
</g>
</g>
<defs>
<clipPath id="clip0_3250_74436">
<rect width="80" height="80" fill="white" transform="translate(0.5)"/>
</clipPath>
</defs>
</svg>
