<svg width="81" height="80" viewBox="0 0 81 80" fill="none" xmlns="http://www.w3.org/2000/svg">
<g id="Artboard-8" clip-path="url(#clip0_3316_89313)">
<g id="Champion">
<path id="Vector" d="M63 20C68.5228 20 73 15.5228 73 10C73 4.47715 68.5228 0 63 0C57.4772 0 53 4.47715 53 10C53 15.5228 57.4772 20 63 20Z" fill="#FF4245"/>
<path id="Vector_2" d="M70.8962 48.8151C70.0534 48.5341 69.3203 47.9952 68.8005 47.2747C68.2808 46.5542 68.0007 45.6885 67.9999 44.8001V41.6251C68 41.412 67.9457 41.2024 67.842 41.0163C67.7383 40.8301 67.5887 40.6735 67.4075 40.5614C67.2262 40.4493 67.0194 40.3854 66.8065 40.3758C66.5936 40.3662 66.3818 40.4111 66.1912 40.5063C65.1978 40.9933 64.1062 41.2465 62.9999 41.2465C61.8936 41.2465 60.802 40.9933 59.8087 40.5063C59.6181 40.4111 59.4063 40.3662 59.1934 40.3758C58.9805 40.3854 58.7736 40.4493 58.5924 40.5614C58.4112 40.6735 58.2616 40.8301 58.1579 41.0163C58.0542 41.2024 57.9998 41.412 57.9999 41.6251V44.8001C58.0017 45.6857 57.722 46.5489 57.2012 47.2651C56.6824 47.9886 55.949 48.5305 55.1049 48.8138C54.8231 48.9075 54.5838 49.0984 54.4299 49.3524C54.276 49.6065 54.2176 49.907 54.2651 50.2002C54.3127 50.4933 54.463 50.76 54.6893 50.9524C54.9156 51.1448 55.2029 51.2503 55.4999 51.2501H70.4999C70.7964 51.2497 71.083 51.144 71.3087 50.9518C71.5344 50.7596 71.6845 50.4935 71.7321 50.2009C71.7797 49.9083 71.7218 49.6083 71.5687 49.3544C71.4156 49.1006 71.1772 48.9094 70.8962 48.8151Z" fill="#C10003"/>
<path id="Vector_3" d="M55.7501 34.8962L54.9001 28.5838C54.8599 28.284 54.7123 28.0089 54.4847 27.8096C54.2572 27.6103 53.9651 27.5003 53.6626 27.5H46.7501C46.5708 27.5 46.3936 27.5385 46.2305 27.6129C46.0674 27.6874 45.9223 27.7961 45.8049 27.9316C45.6875 28.0671 45.6007 28.2263 45.5502 28.3984C45.4998 28.5704 45.487 28.7513 45.5126 28.9287L46.1126 33.1C46.3342 34.6903 47.0615 36.1672 48.187 37.3125C49.3124 38.4577 50.7764 39.2107 52.3626 39.46L55.7126 39.985C55.7788 39.9953 55.8456 40.0003 55.9126 40H55.9251C56.1532 39.9999 56.377 39.9373 56.5721 39.819C56.7672 39.7008 56.9263 39.5314 57.032 39.3292C57.1377 39.1271 57.1861 38.8998 57.1719 38.6721C57.1577 38.4444 57.0814 38.225 56.9514 38.0375C56.3111 37.0986 55.8997 36.0228 55.7501 34.8962Z" fill="#C10003"/>
<path id="Vector_4" d="M80.1951 27.9312C80.0777 27.7958 79.9325 27.6872 79.7695 27.6128C79.6064 27.5384 79.4293 27.4999 79.2501 27.5H72.3376C72.0349 27.5 71.7425 27.6099 71.5147 27.8092C71.2868 28.0085 71.1391 28.2837 71.0988 28.5838L70.2501 34.8913C70.1008 36.0194 69.6894 37.0969 69.0488 38.0375C68.9195 38.2256 68.8442 38.4454 68.831 38.6733C68.8177 38.9011 68.8671 39.1282 68.9738 39.33C69.0966 39.5616 69.2885 39.7492 69.5228 39.8666C69.7572 39.984 70.0223 40.0254 70.2813 39.985L73.6363 39.4587C75.2222 39.21 76.6859 38.4577 77.8114 37.3131C78.9369 36.1686 79.6643 34.6923 79.8863 33.1025L80.4863 28.9287C80.5122 28.7513 80.4995 28.5704 80.4493 28.3983C80.399 28.2262 80.3123 28.0669 80.1951 27.9312Z" fill="#C10003"/>
<path id="Vector_5" d="M70.5 48.75H55.5C54.8096 48.75 54.25 49.3096 54.25 50V78.75C54.25 79.4404 54.8096 80 55.5 80H70.5C71.1904 80 71.75 79.4404 71.75 78.75V50C71.75 49.3096 71.1904 48.75 70.5 48.75Z" fill="#F2F2F2"/>
<path id="Vector_6" d="M46.75 57.5H31.75C31.0596 57.5 30.5 58.0596 30.5 58.75V78.75C30.5 79.4404 31.0596 80 31.75 80H46.75C47.4404 80 48 79.4404 48 78.75V58.75C48 58.0596 47.4404 57.5 46.75 57.5Z" fill="#F2F2F2"/>
<path id="Vector_7" d="M23 65H8C7.30964 65 6.75 65.5596 6.75 66.25V78.75C6.75 79.4404 7.30964 80 8 80H23C23.6904 80 24.25 79.4404 24.25 78.75V66.25C24.25 65.5596 23.6904 65 23 65Z" fill="#F2F2F2"/>
<path id="Vector_8" d="M66.0001 11.3387C65.8062 10.7469 65.4733 10.2103 65.0291 9.77373C64.585 9.33721 64.0426 9.01358 63.4476 8.83C63.2319 8.77393 63.03 8.67408 62.8545 8.53667C62.679 8.39926 62.5337 8.22722 62.4276 8.03125C62.4188 7.9975 62.3938 7.8975 62.5801 7.67625C62.8938 7.30125 63.8863 8.0025 63.8888 8.005C64.1505 8.20872 64.4825 8.30012 64.8116 8.2591C65.1407 8.21807 65.4401 8.04799 65.6438 7.78625C65.8475 7.52451 65.9389 7.19257 65.8979 6.86345C65.8569 6.53432 65.6868 6.23497 65.4251 6.03125C65.066 5.75443 64.6706 5.52816 64.2501 5.35875V5C64.2501 4.66848 64.1184 4.35054 63.8839 4.11612C63.6495 3.8817 63.3316 3.75 63.0001 3.75C62.6685 3.75 62.3506 3.8817 62.1162 4.11612C61.8818 4.35054 61.7501 4.66848 61.7501 5V5.26375C61.3276 5.43754 60.9546 5.71274 60.6638 6.065C60.3482 6.40982 60.1226 6.82714 60.0068 7.28C59.891 7.73286 59.8887 8.20728 60.0001 8.66125C60.1939 9.25306 60.5268 9.78974 60.971 10.2263C61.4151 10.6628 61.9575 10.9864 62.5526 11.17C62.7683 11.2261 62.9701 11.3259 63.1456 11.4633C63.3211 11.6007 63.4664 11.7728 63.5726 11.9688C63.5813 12.0025 63.6063 12.1025 63.4201 12.3238C63.1113 12.6988 62.1213 12.0013 62.1051 11.99C61.8427 11.7871 61.5104 11.6968 61.1814 11.7388C60.8524 11.7809 60.5536 11.952 60.3507 12.2144C60.1478 12.4768 60.0575 12.809 60.0995 13.138C60.1416 13.467 60.3127 13.7659 60.5751 13.9688C60.9327 14.2444 61.3263 14.4698 61.7451 14.6388V15C61.7451 15.3315 61.8768 15.6495 62.1112 15.8839C62.3456 16.1183 62.6635 16.25 62.9951 16.25C63.3266 16.25 63.6445 16.1183 63.8789 15.8839C64.1134 15.6495 64.2451 15.3315 64.2451 15V14.73C64.6672 14.5586 65.0403 14.2855 65.3313 13.935C65.6478 13.5907 65.8743 13.1736 65.991 12.7207C66.1077 12.2678 66.1108 11.7931 66.0001 11.3387Z" fill="#C10003"/>
<path id="Vector_9" d="M76.75 80H1.75C1.41848 80 1.10054 79.8683 0.866117 79.6339C0.631696 79.3995 0.5 79.0815 0.5 78.75C0.5 78.4185 0.631696 78.1005 0.866117 77.8661C1.10054 77.6317 1.41848 77.5 1.75 77.5H76.75C77.0815 77.5 77.3995 77.6317 77.6339 77.8661C77.8683 78.1005 78 78.4185 78 78.75C78 79.0815 77.8683 79.3995 77.6339 79.6339C77.3995 79.8683 77.0815 80 76.75 80Z" fill="#FF4245"/>
<path id="Vector_10" d="M43 38.75H34.25C33.9185 38.75 33.6005 38.8817 33.3661 39.1161C33.1317 39.3505 33 39.6685 33 40C33 40.3315 33.1317 40.6495 33.3661 40.8839C33.6005 41.1183 33.9185 41.25 34.25 41.25H39.8263C34.9913 45.5812 23.42 55 14.25 55C13.9185 55 13.6005 55.1317 13.3661 55.3661C13.1317 55.6005 13 55.9185 13 56.25C13 56.5815 13.1317 56.8995 13.3661 57.1339C13.6005 57.3683 13.9185 57.5 14.25 57.5C24.5325 57.5 36.86 47.3325 41.75 42.895V48.75C41.75 49.0815 41.8817 49.3995 42.1161 49.6339C42.3505 49.8683 42.6685 50 43 50C43.3315 50 43.6495 49.8683 43.8839 49.6339C44.1183 49.3995 44.25 49.0815 44.25 48.75V40C44.25 39.6685 44.1183 39.3505 43.8839 39.1161C43.6495 38.8817 43.3315 38.75 43 38.75Z" fill="#FF4245"/>
<path id="Vector_11" d="M73.9399 22.9262C73.8226 22.7924 73.6781 22.6851 73.516 22.6116C73.3539 22.5381 73.1779 22.5 72.9999 22.5H52.9999C52.8219 22.5 52.6459 22.5381 52.4837 22.6117C52.3216 22.6853 52.177 22.7927 52.0597 22.9266C51.9424 23.0606 51.8551 23.2181 51.8036 23.3886C51.7522 23.559 51.7377 23.7385 51.7612 23.915L53.2699 35.2312C53.5845 37.5889 54.7445 39.7521 56.5341 41.3188C58.3238 42.8855 60.6214 43.7491 62.9999 43.7491C65.3785 43.7491 67.6761 42.8855 69.4657 41.3188C71.2554 39.7521 72.4153 37.5889 72.7299 35.2312L74.2387 23.915C74.2622 23.7384 74.2477 23.5589 74.1962 23.3883C74.1447 23.2178 74.0573 23.0603 73.9399 22.9262Z" fill="#FF4245"/>
<path id="Vector_12" d="M75.5 25H50.5C50.1685 25 49.8505 24.8683 49.6161 24.6339C49.3817 24.3995 49.25 24.0815 49.25 23.75C49.25 23.4185 49.3817 23.1005 49.6161 22.8661C49.8505 22.6317 50.1685 22.5 50.5 22.5H75.5C75.8315 22.5 76.1495 22.6317 76.3839 22.8661C76.6183 23.1005 76.75 23.4185 76.75 23.75C76.75 24.0815 76.6183 24.3995 76.3839 24.6339C76.1495 24.8683 75.8315 25 75.5 25Z" fill="#C10003"/>
</g>
</g>
<defs>
<clipPath id="clip0_3316_89313">
<rect width="80" height="80" fill="white" transform="translate(0.5)"/>
</clipPath>
</defs>
</svg>
