<svg width="122" height="39" viewBox="0 0 122 39" fill="none" xmlns="http://www.w3.org/2000/svg">
<path fill-rule="evenodd" clip-rule="evenodd" d="M38.7115 0H0V39H8.26848V7.95146H30.8189V13.6311C30.8189 14.6767 29.9775 15.5243 28.9397 15.5243H15.5428V23.2864H29.3155C30.1458 23.2864 30.8189 23.9645 30.8189 24.801V30.6829H15.5428V39H38.7115V23.1903C38.7115 21.3553 37.4719 19.7557 35.7048 19.3107C37.4719 18.8656 38.7115 17.2661 38.7115 15.431V0Z" fill="#FB1616"/>
<path d="M47.5414 16.5455C46.017 16.5455 44.7812 15.2285 44.7812 13.604V0H51.5809C52.6876 0 53.62 0.181212 54.378 0.543636C55.1361 0.890303 55.7122 1.38667 56.1063 2.03273C56.5157 2.66303 56.7204 3.41152 56.7204 4.27818C56.7204 5.11333 56.546 5.81455 56.1973 6.38182C55.8486 6.94909 55.3862 7.38242 54.8101 7.68182C54.2491 7.98121 53.6276 8.16242 52.9453 8.22545L53.3092 7.94182C54.0521 7.97333 54.704 8.17818 55.2649 8.55636C55.8259 8.93454 56.2655 9.43091 56.5839 10.0455C56.9174 10.6442 57.0842 11.3061 57.0842 12.0309C57.0842 12.9291 56.8795 13.717 56.4702 14.3945C56.0609 15.0721 55.462 15.6 54.6736 15.9782C53.8853 16.3564 52.9302 16.5455 51.8083 16.5455H47.5414ZM48.1924 13.6618H51.2397C51.9978 13.6618 52.5815 13.4885 52.9908 13.1418C53.4153 12.7794 53.6276 12.2594 53.6276 11.5818C53.6276 10.9042 53.4077 10.3764 52.9681 9.99818C52.5436 9.62 51.9523 9.43091 51.1943 9.43091H48.1924V13.6618ZM48.1924 6.80727H50.9896C51.7173 6.80727 52.2707 6.63394 52.6497 6.28727C53.0439 5.94061 53.241 5.45212 53.241 4.82182C53.241 4.19151 53.0439 3.70303 52.6497 3.35636C52.2707 2.99394 51.7097 2.81273 50.9668 2.81273H48.1924V6.80727Z" fill="white"/>
<path d="M59.5275 16.5455V0H65.7131C67.0017 0 68.0706 0.236364 68.9196 0.709092C69.7837 1.16606 70.4205 1.78061 70.8298 2.55273C71.2543 3.32485 71.4666 4.18364 71.4666 5.12909C71.4666 6.01152 71.2619 6.83879 70.8526 7.61091C70.4584 8.38303 69.8368 9.00545 68.9878 9.47818C68.1388 9.95091 67.0396 10.1873 65.6903 10.1873H62.9386V16.5455H59.5275ZM67.737 16.5455L64.5305 9.31273H68.1918L71.603 16.5455H67.737ZM62.9386 7.63455H65.5084C66.3574 7.63455 66.979 7.42182 67.3732 6.99636C67.7825 6.57091 67.9872 5.99576 67.9872 5.27091C67.9872 4.56182 67.7825 4.00242 67.3732 3.59273C66.979 3.16727 66.3574 2.95455 65.5084 2.95455H62.9386V7.63455Z" fill="white"/>
<path d="M73.0272 16.5455L78.8262 0H82.7376L88.5366 16.5455H84.9208L80.7592 3.99455L76.5975 16.5455H73.0272ZM75.5514 12.9291L76.4611 10.1873H84.8071L85.694 12.9291H75.5514Z" fill="white"/>
<path d="M90.5078 16.5455V0H93.919L100.901 10.8727V0H104.312V16.5455H100.901L93.919 5.72V16.5455H90.5078Z" fill="white"/>
<path d="M107.364 16.5455V0H112.89C114.74 0 116.263 0.346667 117.461 1.04C118.674 1.71758 119.568 2.67879 120.144 3.92364C120.736 5.15273 121.031 6.60242 121.031 8.27273C121.031 9.92727 120.736 11.377 120.144 12.6218C119.568 13.8509 118.674 14.8121 117.461 15.5055C116.263 16.1988 114.74 16.5455 112.89 16.5455H107.364ZM110.775 13.4964H112.685C113.913 13.4964 114.884 13.2915 115.596 12.8818C116.309 12.4564 116.809 11.8576 117.097 11.0855C117.4 10.2976 117.552 9.36 117.552 8.27273C117.552 7.1697 117.4 6.23212 117.097 5.46C116.809 4.67212 116.309 4.07333 115.596 3.66364C114.884 3.23818 113.913 3.02545 112.685 3.02545H110.775V13.4964Z" fill="white"/>
<path d="M44.7813 39L44.7812 25.1558C44.7812 23.6639 46.017 22.4545 47.5414 22.4545L55.6999 22.4545V25.3145L48.3034 25.3145L48.3034 29.3327L54.1266 29.3327L54.1266 32.0982H48.3034L48.3034 39H44.7813Z" fill="white"/>
<path d="M58.0122 39L58.0122 22.4545L61.5343 22.4545V36.2582H68.6256V39H58.0122Z" fill="white"/>
<path d="M70.2542 39L76.2418 22.4545L80.2805 22.4545L86.2681 39H82.5347L78.2377 26.4491L73.9407 39H70.2542ZM72.8606 35.3836L73.7998 32.6418L82.4173 32.6418L83.333 35.3836H72.8606Z" fill="white"/>
<path d="M88.3035 39V22.4545L91.8256 22.4545V39H88.3035Z" fill="white"/>
<path d="M94.9763 39V22.4545L101.363 22.4545C102.694 22.4545 103.797 22.6909 104.674 23.1636C105.566 23.6206 106.224 24.2351 106.646 25.0073C107.085 25.7794 107.304 26.6382 107.304 27.5836C107.304 28.466 107.092 29.2933 106.67 30.0654C106.263 30.8376 105.621 31.46 104.744 31.9327C103.868 32.4054 102.733 32.6418 101.34 32.6418L98.4984 32.6418V39H94.9763ZM103.453 39L100.142 31.7673H103.922L107.445 39H103.453ZM98.4984 30.0891H101.152C102.028 30.0891 102.67 29.8763 103.077 29.4509C103.5 29.0254 103.711 28.4503 103.711 27.7254C103.711 27.0163 103.5 26.457 103.077 26.0473C102.67 25.6218 102.028 25.4091 101.152 25.4091H98.4984V30.0891Z" fill="white"/>
<path d="M110.019 39V22.4545L121.031 22.4545V25.3145L113.541 25.3145V29.2145H120.327V31.9563H113.541V36.14H121.031V39H110.019Z" fill="white"/>
</svg>
