<svg width="81" height="80" viewBox="0 0 81 80" fill="none" xmlns="http://www.w3.org/2000/svg">
<path d="M70.4489 10.9091H10.4489C9.48444 10.9091 8.55952 11.2922 7.87757 11.9741C7.19562 12.6561 6.8125 13.581 6.8125 14.5454V57.2727C6.8125 57.5138 6.90828 57.745 7.07877 57.9155C7.24925 58.086 7.48049 58.1818 7.72159 58.1818H73.1761C73.4172 58.1818 73.6485 58.086 73.819 57.9155C73.9894 57.745 74.0852 57.5138 74.0852 57.2727V14.5454C74.0852 13.581 73.7021 12.6561 73.0202 11.9741C72.3382 11.2922 71.4133 10.9091 70.4489 10.9091Z" fill="#F2F2F2"/>
<path d="M69.5401 14.5454H11.3583C10.8562 14.5454 10.4492 14.9524 10.4492 15.4545V51.8181C10.4492 52.3202 10.8562 52.7272 11.3583 52.7272H69.5401C70.0422 52.7272 70.4492 52.3202 70.4492 51.8181V15.4545C70.4492 14.9524 70.0422 14.5454 69.5401 14.5454Z" fill="#F7D0D1"/>
<path d="M79.3696 56.7418C79.2854 56.6248 79.1745 56.5294 79.0462 56.4636C78.9178 56.3979 78.7756 56.3636 78.6314 56.3636H2.26778C2.12381 56.3638 1.98192 56.3981 1.8538 56.4637C1.72568 56.5294 1.61499 56.6246 1.53084 56.7414C1.44668 56.8582 1.39148 56.9933 1.36977 57.1356C1.34806 57.278 1.36046 57.4234 1.40596 57.56L5.04232 68.4691C5.10259 68.6501 5.21824 68.8075 5.37291 68.9191C5.52757 69.0307 5.71342 69.0908 5.90414 69.0909H74.9951C75.1858 69.0908 75.3716 69.0307 75.5263 68.9191C75.681 68.8075 75.7966 68.6501 75.8569 68.4691L79.4932 57.56C79.5388 57.4236 79.5514 57.2783 79.5299 57.136C79.5084 56.9938 79.4535 56.8587 79.3696 56.7418Z" fill="#FF4245"/>
<path d="M60.8048 56.3636L58.5866 63.0182C58.524 63.1977 58.4074 63.3535 58.2528 63.4642C58.0982 63.5748 57.9131 63.635 57.723 63.6364H23.1775C22.9874 63.635 22.8023 63.5748 22.6477 63.4642C22.4931 63.3535 22.3765 63.1977 22.3139 63.0182L20.0957 56.3636H60.8048Z" fill="#C10003"/>
<path d="M54.9945 27.2727H25.9036C23.9747 27.2727 22.1249 28.0389 20.761 29.4028C19.3971 30.7667 18.6309 32.6166 18.6309 34.5454C18.6309 36.4743 19.3971 38.3241 20.761 39.688C22.1249 41.0519 23.9747 41.8182 25.9036 41.8182H54.9945C56.9233 41.8182 58.7732 41.0519 60.1371 39.688C61.501 38.3241 62.2672 36.4743 62.2672 34.5454C62.2672 32.6166 61.501 30.7667 60.1371 29.4028C58.7732 28.0389 56.9233 27.2727 54.9945 27.2727Z" fill="#FF4245"/>
<path d="M62.2679 34.5454C62.2653 36.4735 61.4982 38.3218 60.1349 39.6851C58.7716 41.0484 56.9232 41.8155 54.9952 41.8182H45.9043V27.2727H54.9952C56.9232 27.2754 58.7716 28.0424 60.1349 29.4058C61.4982 30.7691 62.2653 32.6174 62.2679 34.5454Z" fill="#C10003"/>
<path d="M56.5463 36.63L55.3881 35.4718C55.7223 34.9177 55.9004 34.2835 55.9036 33.6364C55.9036 32.9172 55.6903 32.2141 55.2908 31.6161C54.8912 31.0181 54.3233 30.552 53.6588 30.2768C52.9943 30.0016 52.2632 29.9296 51.5578 30.0699C50.8524 30.2102 50.2045 30.5565 49.6959 31.0651C49.1874 31.5736 48.841 32.2216 48.7007 32.9269C48.5604 33.6323 48.6324 34.3635 48.9077 35.0279C49.1829 35.6924 49.649 36.2603 50.247 36.6599C50.845 37.0595 51.548 37.2727 52.2672 37.2727C52.9143 37.2696 53.5485 37.0915 54.1027 36.7573L55.2609 37.9155C55.4323 38.0811 55.662 38.1727 55.9003 38.1706C56.1387 38.1685 56.3667 38.0729 56.5352 37.9044C56.7038 37.7358 56.7994 37.5078 56.8015 37.2695C56.8035 37.0311 56.7119 36.8015 56.5463 36.63ZM50.449 33.6364C50.449 33.2768 50.5557 32.9252 50.7555 32.6262C50.9552 32.3272 51.2392 32.0942 51.5714 31.9566C51.9037 31.819 52.2692 31.783 52.6219 31.8531C52.9746 31.9233 53.2986 32.0964 53.5529 32.3507C53.8072 32.605 53.9803 32.929 54.0505 33.2817C54.1206 33.6343 54.0846 33.9999 53.947 34.3322C53.8094 34.6644 53.5764 34.9483 53.2774 35.1481C52.9784 35.3479 52.6268 35.4545 52.2672 35.4545C51.785 35.4545 51.3226 35.263 50.9816 34.922C50.6406 34.581 50.449 34.1186 50.449 33.6364Z" fill="#ED292C"/>
<path d="M40.4499 37.2727C41.9562 37.2727 43.1772 36.0516 43.1772 34.5454C43.1772 33.0392 41.9562 31.8181 40.4499 31.8181C38.9437 31.8181 37.7227 33.0392 37.7227 34.5454C37.7227 36.0516 38.9437 37.2727 40.4499 37.2727Z" fill="#C10003"/>
<path d="M33.1765 37.2727C34.6827 37.2727 35.9038 36.0516 35.9038 34.5454C35.9038 33.0392 34.6827 31.8181 33.1765 31.8181C31.6703 31.8181 30.4492 33.0392 30.4492 34.5454C30.4492 36.0516 31.6703 37.2727 33.1765 37.2727Z" fill="#C10003"/>
<path d="M25.905 37.2727C27.4112 37.2727 28.6323 36.0516 28.6323 34.5454C28.6323 33.0392 27.4112 31.8181 25.905 31.8181C24.3988 31.8181 23.1777 33.0392 23.1777 34.5454C23.1777 36.0516 24.3988 37.2727 25.905 37.2727Z" fill="#C10003"/>
</svg>
