<svg width="81" height="80" viewBox="0 0 81 80" fill="none" xmlns="http://www.w3.org/2000/svg">
<path d="M67.7216 62.7272C67.4805 62.7272 67.2493 62.6315 67.0788 62.461C66.9083 62.2905 66.8125 62.0593 66.8125 61.8181V51.8181C66.8125 51.577 66.9083 51.3458 67.0788 51.1753C67.2493 51.0048 67.4805 50.9091 67.7216 50.9091C67.9627 50.9091 68.1939 51.0048 68.3644 51.1753C68.5349 51.3458 68.6307 51.577 68.6307 51.8181V61.8181C68.6307 62.0593 68.5349 62.2905 68.3644 62.461C68.1939 62.6315 67.9627 62.7272 67.7216 62.7272Z" fill="#C10003"/>
<path d="M9.53995 62.7272C9.29884 62.7272 9.06761 62.6315 8.89713 62.461C8.72664 62.2905 8.63086 62.0593 8.63086 61.8181V51.8181C8.63086 51.577 8.72664 51.3458 8.89713 51.1753C9.06761 51.0048 9.29884 50.9091 9.53995 50.9091C9.78106 50.9091 10.0123 51.0048 10.1828 51.1753C10.3533 51.3458 10.449 51.577 10.449 51.8181V61.8181C10.449 62.0593 10.3533 62.2905 10.1828 62.461C10.0123 62.6315 9.78106 62.7272 9.53995 62.7272Z" fill="#C10003"/>
<path d="M38.6298 62.7272C38.3887 62.7272 38.1575 62.6315 37.987 62.461C37.8165 62.2905 37.7207 62.0593 37.7207 61.8181V51.8181C37.7207 51.577 37.8165 51.3458 37.987 51.1753C38.1575 51.0048 38.3887 50.9091 38.6298 50.9091C38.8709 50.9091 39.1021 51.0048 39.2726 51.1753C39.4431 51.3458 39.5389 51.577 39.5389 51.8181V61.8181C39.5389 62.0593 39.4431 62.2905 39.2726 62.461C39.1021 62.6315 38.8709 62.7272 38.6298 62.7272Z" fill="#C10003"/>
<path d="M38.6298 49.0908C38.3887 49.0908 38.1575 48.9951 37.987 48.8246C37.8165 48.6541 37.7207 48.4228 37.7207 48.1817V36.3636C37.7207 36.1225 37.8165 35.8912 37.987 35.7207C38.1575 35.5502 38.3887 35.4545 38.6298 35.4545C38.8709 35.4545 39.1021 35.5502 39.2726 35.7207C39.4431 35.8912 39.5389 36.1225 39.5389 36.3636V48.1817C39.5389 48.4228 39.4431 48.6541 39.2726 48.8246C39.1021 48.9951 38.8709 49.0908 38.6298 49.0908Z" fill="#C10003"/>
<path d="M65.9027 50.909H40.4482C40.207 50.909 39.9758 50.8132 39.8053 50.6427C39.6348 50.4722 39.5391 50.241 39.5391 49.9999C39.5391 49.7588 39.6348 49.5276 39.8053 49.3571C39.9758 49.1866 40.207 49.0908 40.4482 49.0908H65.9027C66.1438 49.0908 66.375 49.1866 66.5455 49.3571C66.716 49.5276 66.8118 49.7588 66.8118 49.9999C66.8118 50.241 66.716 50.4722 66.5455 50.6427C66.375 50.8132 66.1438 50.909 65.9027 50.909Z" fill="#C10003"/>
<path d="M36.8129 50.909H11.3583C11.1172 50.909 10.886 50.8132 10.7155 50.6427C10.545 50.4722 10.4492 50.241 10.4492 49.9999C10.4492 49.7588 10.545 49.5276 10.7155 49.3571C10.886 49.1866 11.1172 49.0908 11.3583 49.0908H36.8129C37.054 49.0908 37.2852 49.1866 37.4557 49.3571C37.6262 49.5276 37.7219 49.7588 37.7219 49.9999C37.7219 50.241 37.6262 50.4722 37.4557 50.6427C37.2852 50.8132 37.054 50.909 36.8129 50.909Z" fill="#C10003"/>
<path d="M59.5301 16.3454C59.5301 16.1043 59.4344 15.8731 59.2639 15.7026C59.0934 15.5321 58.8622 15.4363 58.6211 15.4363H54.9938V1.81815C54.9938 1.57704 54.898 1.34581 54.7275 1.17532C54.557 1.00484 54.3258 0.909058 54.0847 0.909058H25.9029C25.8729 0.909058 25.8474 0.923603 25.8183 0.92633C25.5936 0.943117 25.3835 1.04446 25.2305 1.20995C25.0775 1.37544 24.9929 1.59277 24.9938 1.81815V18.1818H22.2665C22.0254 18.1818 21.7942 18.2776 21.6237 18.448C21.4532 18.6185 21.3574 18.8498 21.3574 19.0909V32.7272C21.3574 33.6917 21.7405 34.6166 22.4225 35.2985C23.1044 35.9805 24.0294 36.3636 24.9938 36.3636H55.9029C56.8673 36.3636 57.7922 35.9805 58.4742 35.2985C59.1561 34.6166 59.5392 33.6917 59.5392 32.7272L59.5301 16.3454Z" fill="#FF4245"/>
<path d="M12.9938 64.9091L10.2665 61.2727C10.1818 61.1598 10.072 61.0682 9.9458 61.005C9.81957 60.9419 9.68037 60.9091 9.53924 60.9091H2.26651C2.02541 60.9091 1.79418 61.0048 1.62369 61.1753C1.4532 61.3458 1.35742 61.577 1.35742 61.8181V65.4545C1.35742 65.6956 1.4532 65.9268 1.62369 66.0973C1.79418 66.2678 2.02541 66.3636 2.26651 66.3636H12.2665C12.4353 66.3636 12.6008 66.3166 12.7445 66.2278C12.8881 66.1391 13.0041 66.0121 13.0796 65.8611C13.1551 65.7101 13.1871 65.541 13.1719 65.3729C13.1568 65.2047 13.0951 65.0441 12.9938 64.9091Z" fill="#F7D0D1"/>
<path d="M20.4483 64.5454H1.35742V78.1818C1.35742 78.4229 1.4532 78.6541 1.62369 78.8246C1.79418 78.9951 2.02541 79.0909 2.26651 79.0909H20.4483C20.6894 79.0909 20.9207 78.9951 21.0912 78.8246C21.2616 78.6541 21.3574 78.4229 21.3574 78.1818V65.4545C21.3574 65.2134 21.2616 64.9822 21.0912 64.8117C20.9207 64.6412 20.6894 64.5454 20.4483 64.5454Z" fill="#F2F2F2"/>
<path d="M71.1754 64.9091L68.4482 61.2727C68.3635 61.1598 68.2537 61.0682 68.1274 61.005C68.0012 60.9419 67.862 60.9091 67.7209 60.9091H60.4482C60.207 60.9091 59.9758 61.0048 59.8053 61.1753C59.6348 61.3458 59.5391 61.577 59.5391 61.8181V65.4545C59.5391 65.6956 59.6348 65.9268 59.8053 66.0973C59.9758 66.2678 60.207 66.3636 60.4482 66.3636H70.4482C70.617 66.3636 70.7825 66.3166 70.9261 66.2278C71.0697 66.1391 71.1858 66.0121 71.2613 65.8611C71.3368 65.7101 71.3687 65.541 71.3536 65.3729C71.3384 65.2047 71.2767 65.0441 71.1754 64.9091Z" fill="#F7D0D1"/>
<path d="M42.0856 64.9091L39.3583 61.2727C39.2736 61.1598 39.1638 61.0682 39.0376 61.005C38.9114 60.9419 38.7722 60.9091 38.631 60.9091H31.3583C31.1172 60.9091 30.886 61.0048 30.7155 61.1753C30.545 61.3458 30.4492 61.577 30.4492 61.8181V65.4545C30.4492 65.6956 30.545 65.9268 30.7155 66.0973C30.886 66.2678 31.1172 66.3636 31.3583 66.3636H41.3583C41.5271 66.3636 41.6926 66.3166 41.8362 66.2278C41.9799 66.1391 42.0959 66.0121 42.1714 65.8611C42.2469 65.7101 42.2789 65.541 42.2637 65.3729C42.2486 65.2047 42.1869 65.0441 42.0856 64.9091Z" fill="#F7D0D1"/>
<path d="M49.5401 64.5454H30.4492V78.1818C30.4492 78.4229 30.545 78.6541 30.7155 78.8246C30.886 78.9951 31.1172 79.0909 31.3583 79.0909H49.5401C49.7812 79.0909 50.0125 78.9951 50.183 78.8246C50.3534 78.6541 50.4492 78.4229 50.4492 78.1818V65.4545C50.4492 65.2134 50.3534 64.9822 50.183 64.8117C50.0125 64.6412 49.7812 64.5454 49.5401 64.5454Z" fill="#F2F2F2"/>
<path d="M38.6296 52.7273C40.1358 52.7273 41.3569 51.5062 41.3569 50C41.3569 48.4937 40.1358 47.2727 38.6296 47.2727C37.1234 47.2727 35.9023 48.4937 35.9023 50C35.9023 51.5062 37.1234 52.7273 38.6296 52.7273Z" fill="#FF4245"/>
<path d="M67.7214 52.7273C69.2276 52.7273 70.4487 51.5062 70.4487 50C70.4487 48.4937 69.2276 47.2727 67.7214 47.2727C66.2152 47.2727 64.9941 48.4937 64.9941 50C64.9941 51.5062 66.2152 52.7273 67.7214 52.7273Z" fill="#FF4245"/>
<path d="M9.53977 52.7273C11.046 52.7273 12.267 51.5062 12.267 50C12.267 48.4937 11.046 47.2727 9.53977 47.2727C8.03354 47.2727 6.8125 48.4937 6.8125 50C6.8125 51.5062 8.03354 52.7273 9.53977 52.7273Z" fill="#FF4245"/>
<path d="M54.9941 0.909058H24.9941V36.3636H54.9941V0.909058Z" fill="#C10003"/>
<path d="M59.5314 16.3455C59.5314 16.1043 59.4356 15.8731 59.2651 15.7026C59.0947 15.5321 58.8634 15.4364 58.6223 15.4364L44.986 15.4445L41.3578 10H28.6305V32.7273C28.6305 33.6917 28.2474 34.6166 27.5654 35.2986C26.8835 35.9805 25.9586 36.3636 24.9941 36.3636H55.9032C56.8677 36.3636 57.7926 35.9805 58.4745 35.2986C59.1565 34.6166 59.5396 33.6917 59.5396 32.7273L59.5314 16.3455Z" fill="#FF4245"/>
<path d="M78.63 64.5454H59.5391V78.1818C59.5391 78.4229 59.6348 78.6541 59.8053 78.8246C59.9758 78.9951 60.207 79.0909 60.4482 79.0909H78.63C78.8711 79.0909 79.1023 78.9951 79.2728 78.8246C79.4433 78.6541 79.5391 78.4229 79.5391 78.1818V65.4545C79.5391 65.2134 79.4433 64.9822 79.2728 64.8117C79.1023 64.6412 78.8711 64.5454 78.63 64.5454Z" fill="#F2F2F2"/>
</svg>
