<svg width="81" height="80" viewBox="0 0 81 80" fill="none" xmlns="http://www.w3.org/2000/svg">
<path d="M48.6179 67.1236C48.5826 66.9114 48.4732 66.7185 48.309 66.5793C48.1449 66.4402 47.9367 66.3637 47.7215 66.3636H33.1761C32.9609 66.3637 32.7527 66.4402 32.5886 66.5793C32.4244 66.7185 32.315 66.9114 32.2797 67.1236L30.4615 78.0327C30.4399 78.1629 30.4468 78.2962 30.4819 78.4235C30.517 78.5507 30.5793 78.6687 30.6646 78.7694C30.7499 78.8701 30.8561 78.951 30.9758 79.0066C31.0956 79.0621 31.2259 79.0909 31.3579 79.0909H49.5397C49.6717 79.0909 49.802 79.0621 49.9218 79.0066C50.0415 78.951 50.1477 78.8701 50.233 78.7694C50.3183 78.6687 50.3806 78.5507 50.4157 78.4235C50.4508 78.2962 50.4577 78.1629 50.4361 78.0327L48.6179 67.1236Z" fill="#C10003"/>
<path d="M74.0858 13.6364H6.81303C5.60795 13.6378 4.45263 14.1172 3.60051 14.9693C2.74838 15.8214 2.26902 16.9767 2.26758 18.1818V60C2.26758 60.2411 2.36336 60.4723 2.53384 60.6428C2.70433 60.8133 2.93556 60.9091 3.17667 60.9091H77.7221C77.9632 60.9091 78.1945 60.8133 78.3649 60.6428C78.5354 60.4723 78.6312 60.2411 78.6312 60V18.1818C78.6298 16.9767 78.1504 15.8214 77.2983 14.9693C76.4462 14.1172 75.2908 13.6378 74.0858 13.6364Z" fill="#F2F2F2"/>
<path d="M74.0861 17.2727H6.81339C6.31131 17.2727 5.9043 17.6797 5.9043 18.1818V54.5454C5.9043 55.0475 6.31131 55.4545 6.81339 55.4545H74.0861C74.5882 55.4545 74.9952 55.0475 74.9952 54.5454V18.1818C74.9952 17.6797 74.5882 17.2727 74.0861 17.2727Z" fill="#F7D0D1"/>
<path d="M77.7221 59.0908H2.26758V63.6363C2.26758 64.8418 2.74647 65.998 3.59891 66.8504C4.45135 67.7028 5.6075 68.1817 6.81303 68.1817H77.7221C77.9632 68.1817 78.1945 68.086 78.3649 67.9155C78.5354 67.745 78.6312 67.5137 78.6312 67.2726V59.9999C78.6312 59.7588 78.5354 59.5276 78.3649 59.3571C78.1945 59.1866 77.9632 59.0908 77.7221 59.0908Z" fill="#FF4245"/>
<path d="M43.1761 64.5455H37.7216C37.4805 64.5455 37.2493 64.4497 37.0788 64.2792C36.9083 64.1087 36.8125 63.8775 36.8125 63.6364C36.8125 63.3953 36.9083 63.164 37.0788 62.9936C37.2493 62.8231 37.4805 62.7273 37.7216 62.7273H43.1761C43.4172 62.7273 43.6485 62.8231 43.819 62.9936C43.9894 63.164 44.0852 63.3953 44.0852 63.6364C44.0852 63.8775 43.9894 64.1087 43.819 64.2792C43.6485 64.4497 43.4172 64.5455 43.1761 64.5455Z" fill="#C10003"/>
<path d="M53.1761 79.0909H27.7216C27.4805 79.0909 27.2493 78.9951 27.0788 78.8246C26.9083 78.6541 26.8125 78.4229 26.8125 78.1818C26.8125 77.9407 26.9083 77.7095 27.0788 77.539C27.2493 77.3685 27.4805 77.2727 27.7216 77.2727H53.1761C53.4172 77.2727 53.6485 77.3685 53.819 77.539C53.9894 77.7095 54.0852 77.9407 54.0852 78.1818C54.0852 78.4229 53.9894 78.6541 53.819 78.8246C53.6485 78.9951 53.4172 79.0909 53.1761 79.0909Z" fill="#FF4245"/>
<path d="M60.4501 0.909058H20.4501C20.209 0.909058 19.9778 1.00484 19.8073 1.17532C19.6368 1.34581 19.541 1.57704 19.541 1.81815V55.4545H61.3592V1.81815C61.3592 1.57704 61.2634 1.34581 61.0929 1.17532C60.9224 1.00484 60.6912 0.909058 60.4501 0.909058Z" fill="#FF4245"/>
<path d="M55.9041 5.45447H24.995C24.493 5.45447 24.0859 5.86148 24.0859 6.36356V24.5454C24.0859 25.0475 24.493 25.4545 24.995 25.4545H55.9041C56.4062 25.4545 56.8132 25.0475 56.8132 24.5454V6.36356C56.8132 5.86148 56.4062 5.45447 55.9041 5.45447Z" fill="#C10003"/>
<path d="M55.9041 49.0908H24.995C24.7539 49.0908 24.5227 49.1866 24.3522 49.3571C24.1817 49.5276 24.0859 49.7588 24.0859 49.9999V55.4545H56.8132V49.9999C56.8132 49.7588 56.7174 49.5276 56.5469 49.3571C56.3765 49.1866 56.1452 49.0908 55.9041 49.0908Z" fill="#ED292C"/>
<path d="M56.8135 19.6181V24.5454C56.8135 24.7865 56.7177 25.0177 56.5472 25.1882C56.3768 25.3587 56.1455 25.4545 55.9044 25.4545H46.4408L39.3499 18.3727C39.1796 18.201 39.084 17.969 39.084 17.7272C39.084 17.4854 39.1796 17.2534 39.3499 17.0818L46.1681 10.2636C46.3397 10.0933 46.5717 9.99768 46.8135 9.99768C47.0553 9.99768 47.2873 10.0933 47.459 10.2636L56.8135 19.6181Z" fill="#B61618"/>
<path d="M40.4501 11.8182C40.9522 11.8182 41.3592 11.4112 41.3592 10.9091C41.3592 10.407 40.9522 10 40.4501 10C39.948 10 39.541 10.407 39.541 10.9091C39.541 11.4112 39.948 11.8182 40.4501 11.8182Z" fill="#ED292C"/>
<path d="M55.9041 29.0909H24.995C24.7539 29.0909 24.5227 28.9951 24.3522 28.8246C24.1817 28.6541 24.0859 28.4229 24.0859 28.1818C24.0859 27.9407 24.1817 27.7095 24.3522 27.539C24.5227 27.3685 24.7539 27.2727 24.995 27.2727H55.9041C56.1452 27.2727 56.3765 27.3685 56.5469 27.539C56.7174 27.7095 56.8132 27.9407 56.8132 28.1818C56.8132 28.4229 56.7174 28.6541 56.5469 28.8246C56.3765 28.9951 56.1452 29.0909 55.9041 29.0909Z" fill="#ED292C"/>
<path d="M48.6314 32.7272H24.995C24.7539 32.7272 24.5227 32.6315 24.3522 32.461C24.1817 32.2905 24.0859 32.0593 24.0859 31.8181C24.0859 31.577 24.1817 31.3458 24.3522 31.1753C24.5227 31.0048 24.7539 30.9091 24.995 30.9091H48.6314C48.8725 30.9091 49.1037 31.0048 49.2742 31.1753C49.4447 31.3458 49.5405 31.577 49.5405 31.8181C49.5405 32.0593 49.4447 32.2905 49.2742 32.461C49.1037 32.6315 48.8725 32.7272 48.6314 32.7272Z" fill="#ED292C"/>
<path d="M48.6314 36.3636H24.995C24.7539 36.3636 24.5227 36.2678 24.3522 36.0973C24.1817 35.9268 24.0859 35.6956 24.0859 35.4545C24.0859 35.2134 24.1817 34.9822 24.3522 34.8117C24.5227 34.6412 24.7539 34.5454 24.995 34.5454H48.6314C48.8725 34.5454 49.1037 34.6412 49.2742 34.8117C49.4447 34.9822 49.5405 35.2134 49.5405 35.4545C49.5405 35.6956 49.4447 35.9268 49.2742 36.0973C49.1037 36.2678 48.8725 36.3636 48.6314 36.3636Z" fill="#ED292C"/>
<path d="M48.6314 39.9999H24.995C24.7539 39.9999 24.5227 39.9042 24.3522 39.7337C24.1817 39.5632 24.0859 39.332 24.0859 39.0909C24.0859 38.8497 24.1817 38.6185 24.3522 38.448C24.5227 38.2775 24.7539 38.1818 24.995 38.1818H48.6314C48.8725 38.1818 49.1037 38.2775 49.2742 38.448C49.4447 38.6185 49.5405 38.8497 49.5405 39.0909C49.5405 39.332 49.4447 39.5632 49.2742 39.7337C49.1037 39.9042 48.8725 39.9999 48.6314 39.9999Z" fill="#ED292C"/>
<path d="M48.6314 43.6363H24.995C24.7539 43.6363 24.5227 43.5405 24.3522 43.37C24.1817 43.1995 24.0859 42.9683 24.0859 42.7272C24.0859 42.4861 24.1817 42.2549 24.3522 42.0844C24.5227 41.9139 24.7539 41.8181 24.995 41.8181H48.6314C48.8725 41.8181 49.1037 41.9139 49.2742 42.0844C49.4447 42.2549 49.5405 42.4861 49.5405 42.7272C49.5405 42.9683 49.4447 43.1995 49.2742 43.37C49.1037 43.5405 48.8725 43.6363 48.6314 43.6363Z" fill="#ED292C"/>
<path d="M48.6314 47.2726H24.995C24.7539 47.2726 24.5227 47.1769 24.3522 47.0064C24.1817 46.8359 24.0859 46.6047 24.0859 46.3636C24.0859 46.1225 24.1817 45.8912 24.3522 45.7207C24.5227 45.5502 24.7539 45.4545 24.995 45.4545H48.6314C48.8725 45.4545 49.1037 45.5502 49.2742 45.7207C49.4447 45.8912 49.5405 46.1225 49.5405 46.3636C49.5405 46.6047 49.4447 46.8359 49.2742 47.0064C49.1037 47.1769 48.8725 47.2726 48.6314 47.2726Z" fill="#ED292C"/>
<path d="M55.9048 32.7272H52.2685C52.0274 32.7272 51.7961 32.6315 51.6256 32.461C51.4552 32.2905 51.3594 32.0593 51.3594 31.8181C51.3594 31.577 51.4552 31.3458 51.6256 31.1753C51.7961 31.0048 52.0274 30.9091 52.2685 30.9091H55.9048C56.1459 30.9091 56.3772 31.0048 56.5477 31.1753C56.7181 31.3458 56.8139 31.577 56.8139 31.8181C56.8139 32.0593 56.7181 32.2905 56.5477 32.461C56.3772 32.6315 56.1459 32.7272 55.9048 32.7272Z" fill="#ED292C"/>
<path d="M55.9048 36.3636H52.2685C52.0274 36.3636 51.7961 36.2678 51.6256 36.0973C51.4552 35.9268 51.3594 35.6956 51.3594 35.4545C51.3594 35.2134 51.4552 34.9822 51.6256 34.8117C51.7961 34.6412 52.0274 34.5454 52.2685 34.5454H55.9048C56.1459 34.5454 56.3772 34.6412 56.5477 34.8117C56.7181 34.9822 56.8139 35.2134 56.8139 35.4545C56.8139 35.6956 56.7181 35.9268 56.5477 36.0973C56.3772 36.2678 56.1459 36.3636 55.9048 36.3636Z" fill="#ED292C"/>
<path d="M55.9048 39.9999H52.2685C52.0274 39.9999 51.7961 39.9042 51.6256 39.7337C51.4552 39.5632 51.3594 39.332 51.3594 39.0909C51.3594 38.8497 51.4552 38.6185 51.6256 38.448C51.7961 38.2775 52.0274 38.1818 52.2685 38.1818H55.9048C56.1459 38.1818 56.3772 38.2775 56.5477 38.448C56.7181 38.6185 56.8139 38.8497 56.8139 39.0909C56.8139 39.332 56.7181 39.5632 56.5477 39.7337C56.3772 39.9042 56.1459 39.9999 55.9048 39.9999Z" fill="#ED292C"/>
<path d="M55.9048 43.6363H52.2685C52.0274 43.6363 51.7961 43.5405 51.6256 43.37C51.4552 43.1995 51.3594 42.9683 51.3594 42.7272C51.3594 42.4861 51.4552 42.2549 51.6256 42.0844C51.7961 41.9139 52.0274 41.8181 52.2685 41.8181H55.9048C56.1459 41.8181 56.3772 41.9139 56.5477 42.0844C56.7181 42.2549 56.8139 42.4861 56.8139 42.7272C56.8139 42.9683 56.7181 43.1995 56.5477 43.37C56.3772 43.5405 56.1459 43.6363 55.9048 43.6363Z" fill="#ED292C"/>
<path d="M55.9048 47.2726H52.2685C52.0274 47.2726 51.7961 47.1769 51.6256 47.0064C51.4552 46.8359 51.3594 46.6047 51.3594 46.3636C51.3594 46.1225 51.4552 45.8912 51.6256 45.7207C51.7961 45.5502 52.0274 45.4545 52.2685 45.4545H55.9048C56.1459 45.4545 56.3772 45.5502 56.5477 45.7207C56.7181 45.8912 56.8139 46.1225 56.8139 46.3636C56.8139 46.6047 56.7181 46.8359 56.5477 47.0064C56.3772 47.1769 56.1459 47.2726 55.9048 47.2726Z" fill="#ED292C"/>
<path d="M78.4936 33.1545L73.9481 25.8818C73.8608 25.758 73.7451 25.6569 73.6106 25.5872C73.4761 25.5175 73.3269 25.4811 73.1754 25.4811C73.0239 25.4811 72.8747 25.5175 72.7402 25.5872C72.6057 25.6569 72.49 25.758 72.4027 25.8818L67.8572 33.1545C67.7682 33.2994 67.7216 33.4663 67.7227 33.6363V73.6363C67.7227 75.0829 68.2974 76.4703 69.3203 77.4933C70.3432 78.5162 71.7306 79.0909 73.1772 79.0909C74.6239 79.0909 76.0112 78.5162 77.0342 77.4933C78.0571 76.4703 78.6318 75.0829 78.6318 73.6363V33.6363C78.6318 33.4659 78.5839 33.299 78.4936 33.1545Z" fill="#C10003"/>
<path d="M73.1767 71.8182C72.9356 71.8182 72.7043 71.7224 72.5338 71.5519C72.3634 71.3815 72.2676 71.1502 72.2676 70.9091V33.6364C72.2676 33.3953 72.3634 33.164 72.5338 32.9936C72.7043 32.8231 72.9356 32.7273 73.1767 32.7273C73.4178 32.7273 73.649 32.8231 73.8195 32.9936C73.99 33.164 74.0858 33.3953 74.0858 33.6364V70.9091C74.0858 71.1502 73.99 71.3815 73.8195 71.5519C73.649 71.7224 73.4178 71.8182 73.1767 71.8182Z" fill="#ED292C"/>
<path d="M49.0041 25.4545H24.995C24.7539 25.4545 24.5227 25.3587 24.3522 25.1882C24.1817 25.0178 24.0859 24.7865 24.0859 24.5454V24.1727L35.2587 12.9909C35.4303 12.8205 35.6623 12.725 35.9041 12.725C36.1459 12.725 36.3779 12.8205 36.5496 12.9909L49.0041 25.4545Z" fill="#ED292C"/>
<path d="M78.6318 33.6363H67.7227C67.7215 33.466 67.7688 33.2989 67.859 33.1545L72.4045 25.8818C72.4928 25.7594 72.6089 25.6597 72.7432 25.5909C72.8776 25.5222 73.0263 25.4863 73.1772 25.4863C73.3281 25.4863 73.4769 25.5222 73.6112 25.5909C73.7456 25.6597 73.8617 25.7594 73.9499 25.8818L78.4954 33.1545C78.5856 33.2989 78.6329 33.466 78.6318 33.6363Z" fill="#ED292C"/>
<path d="M78.6317 70V73.6364C78.6317 75.083 78.0571 76.4704 77.0341 77.4933C76.0112 78.5162 74.6238 79.0909 73.1772 79.0909C71.7306 79.0909 70.3432 78.5162 69.3203 77.4933C68.2973 76.4704 67.7227 75.083 67.7227 73.6364V70H78.6317Z" fill="#ED292C"/>
</svg>
