<svg width="81" height="80" viewBox="0 0 81 80" fill="none" xmlns="http://www.w3.org/2000/svg">
<g clip-path="url(#clip0_3292_39892)">
<path d="M77.803 50.73C76.988 50.1485 76.0438 49.7741 75.0518 49.6391C74.0599 49.5041 73.0499 49.6125 72.1092 49.955L46.2892 59.1763C46.3998 58.4907 46.3998 57.7919 46.2892 57.1063C46.1595 56.2668 45.8636 55.4616 45.4189 54.7379C44.9741 54.0141 44.3895 53.3863 43.6992 52.8913L27.8242 41.42C26.5463 40.4929 25.0068 39.9956 23.428 40H11.6992C11.3677 40 11.0498 40.1317 10.8153 40.3661C10.5809 40.6006 10.4492 40.9185 10.4492 41.25V68.75C10.4492 69.0815 10.5809 69.3995 10.8153 69.6339C11.0498 69.8683 11.3677 70 11.6992 70H18.5567C19.5442 69.9987 20.5097 70.2911 21.3305 70.84L27.3992 74.885C30.9286 77.2526 35.047 78.5916 39.2938 78.7523C43.5407 78.913 47.7485 77.8891 51.4467 75.795L77.268 61.27C78.2324 60.7265 79.0351 59.9365 79.5941 58.9809C80.1531 58.0253 80.4482 56.9383 80.4492 55.8313C80.4556 54.83 80.2179 53.8423 79.7568 52.9535C79.2958 52.0646 78.6252 51.3015 77.803 50.73Z" fill="#FFE1E1"/>
<path d="M48.8869 58.25C48.8736 59.9001 48.4049 61.5144 47.5325 62.915C46.6601 64.3156 45.4178 65.4481 43.9427 66.1876C42.4676 66.927 40.8169 67.2448 39.1727 67.1059C37.5284 66.9669 35.9545 66.3766 34.6244 65.4L24.4994 58.0375C24.2303 57.8428 24.049 57.5496 23.9952 57.2218C23.9413 56.8939 24.0192 56.5581 24.2119 56.2875C24.3086 56.1543 24.4306 56.0414 24.5709 55.9555C24.7113 55.8695 24.8672 55.8121 25.0298 55.7865C25.1924 55.761 25.3585 55.7678 25.5184 55.8066C25.6784 55.8453 25.8291 55.9153 25.9619 56.0125L36.0994 63.3875C37.2067 64.1958 38.5411 64.6333 39.9119 64.6375C40.7635 64.6396 41.6068 64.4715 42.3925 64.143C43.1781 63.8146 43.8902 63.3325 44.4869 62.725C45.4556 61.7596 46.0944 60.5127 46.3119 59.1625L48.8869 58.25Z" fill="#F7CDCD"/>
<path d="M71.6992 1.25H29.1992C27.1282 1.25 25.4492 2.92893 25.4492 5V32.5C25.4492 34.5711 27.1282 36.25 29.1992 36.25H71.6992C73.7703 36.25 75.4492 34.5711 75.4492 32.5V5C75.4492 2.92893 73.7703 1.25 71.6992 1.25Z" fill="#FF4245"/>
<path d="M75.4492 28.125L60.8767 17.1737L75.4492 9.49996V6.67996L50.4492 19.8375L25.4492 6.67871V9.49996L40.0217 17.17L25.4492 28.125V31.25L42.4692 18.4625L49.8667 22.3562C50.0463 22.4508 50.2462 22.5002 50.4492 22.5002C50.6522 22.5002 50.8521 22.4508 51.0317 22.3562L58.4292 18.4625L75.4492 31.25V28.125Z" fill="#C10003"/>
<path d="M11.6992 36.25H1.69922C1.00886 36.25 0.449219 36.8096 0.449219 37.5V72.5C0.449219 73.1904 1.00886 73.75 1.69922 73.75H11.6992C12.3896 73.75 12.9492 73.1904 12.9492 72.5V37.5C12.9492 36.8096 12.3896 36.25 11.6992 36.25Z" fill="#FF4245"/>
</g>
<defs>
<clipPath id="clip0_3292_39892">
<rect width="80" height="80" fill="white" transform="translate(0.449219)"/>
</clipPath>
</defs>
</svg>
