<svg width="174" height="55" viewBox="0 0 174 55" fill="none" xmlns="http://www.w3.org/2000/svg">
<path fill-rule="evenodd" clip-rule="evenodd" d="M55.2115 0H0V55H11.7928V11.2136H43.9548V19.2233C43.9548 20.6978 42.7549 21.8932 41.2746 21.8932H22.1676V32.8398H41.8107C42.9949 32.8398 43.9548 33.7961 43.9548 34.9757V43.2707H22.1676V55H55.2115V32.7043C55.2115 30.1164 53.4435 27.8607 50.9233 27.233C53.4435 26.6054 55.2115 24.3496 55.2115 21.7617V0Z" fill="#FB1616"/>
<path d="M67.8038 23.3333C65.6297 23.3333 63.8672 21.4761 63.8672 19.1852V0H73.565C75.1434 0 76.4732 0.255556 77.5544 0.766667C78.6355 1.25556 79.4572 1.95556 80.0194 2.86667C80.6032 3.75556 80.8951 4.81111 80.8951 6.03333C80.8951 7.21111 80.6464 8.2 80.1491 9C79.6518 9.8 78.9923 10.4111 78.1706 10.8333C77.3706 11.2556 76.484 11.5111 75.511 11.6L76.03 11.2C77.0895 11.2444 78.0193 11.5333 78.8193 12.0667C79.6193 12.6 80.2464 13.3 80.7005 14.1667C81.1762 15.0111 81.414 15.9444 81.414 16.9667C81.414 18.2333 81.1221 19.3444 80.5383 20.3C79.9545 21.2556 79.1004 22 77.976 22.5333C76.8516 23.0667 75.4894 23.3333 73.8893 23.3333H67.8038ZM68.7323 19.2667H73.0785C74.1596 19.2667 74.9921 19.0222 75.5759 18.5333C76.1813 18.0222 76.484 17.2889 76.484 16.3333C76.484 15.3778 76.1705 14.6333 75.5435 14.1C74.938 13.5667 74.0947 13.3 73.0136 13.3H68.7323V19.2667ZM68.7323 9.6H72.7217C73.7596 9.6 74.5488 9.35556 75.0894 8.86667C75.6516 8.37778 75.9327 7.68889 75.9327 6.8C75.9327 5.91111 75.6516 5.22222 75.0894 4.73333C74.5488 4.22222 73.7488 3.96667 72.6893 3.96667H68.7323V9.6Z" fill="white"/>
<path d="M84.8987 23.3333V0H93.7207C95.5587 0 97.0831 0.333334 98.2939 1C99.5264 1.64445 100.435 2.51111 101.018 3.6C101.624 4.68889 101.927 5.9 101.927 7.23333C101.927 8.47778 101.635 9.64445 101.051 10.7333C100.489 11.8222 99.6021 12.7 98.3913 13.3667C97.1804 14.0333 95.6127 14.3667 93.6883 14.3667H89.7638V23.3333H84.8987ZM96.6074 23.3333L92.0342 13.1333H97.2561L102.121 23.3333H96.6074ZM89.7638 10.7667H93.4288C94.6397 10.7667 95.5262 10.4667 96.0884 9.86667C96.6722 9.26667 96.9641 8.45556 96.9641 7.43333C96.9641 6.43333 96.6722 5.64444 96.0884 5.06667C95.5262 4.46667 94.6397 4.16667 93.4288 4.16667H89.7638V10.7667Z" fill="white"/>
<path d="M104.152 23.3333L112.423 0H118.002L126.272 23.3333H121.115L115.18 5.63333L109.245 23.3333H104.152ZM107.753 18.2333L109.05 14.3667H120.953L122.218 18.2333H107.753Z" fill="white"/>
<path d="M129.084 23.3333V0H133.949L143.906 15.3333V0H148.771V23.3333H143.906L133.949 8.06667V23.3333H129.084Z" fill="white"/>
<path d="M153.124 23.3333V0H161.006C163.644 0 165.817 0.488889 167.525 1.46667C169.255 2.42222 170.531 3.77778 171.352 5.53333C172.196 7.26667 172.617 9.31111 172.617 11.6667C172.617 14 172.196 16.0444 171.352 17.8C170.531 19.5333 169.255 20.8889 167.525 21.8667C165.817 22.8444 163.644 23.3333 161.006 23.3333H153.124ZM157.989 19.0333H160.714C162.465 19.0333 163.849 18.7444 164.865 18.1667C165.882 17.5667 166.595 16.7222 167.006 15.6333C167.439 14.5222 167.655 13.2 167.655 11.6667C167.655 10.1111 167.439 8.78889 167.006 7.7C166.595 6.58889 165.882 5.74444 164.865 5.16667C163.849 4.56667 162.465 4.26667 160.714 4.26667H157.989V19.0333Z" fill="white"/>
<path d="M63.8672 55L63.8672 35.4762C63.8672 33.3722 65.6297 31.6667 67.8038 31.6667L79.4396 31.6667V35.7L68.8906 35.7L68.8906 41.3667L77.1959 41.3667L77.1959 45.2667L68.8906 45.2667L68.8906 55H63.8672Z" fill="white"/>
<path d="M82.7375 55L82.7375 31.6667L87.7609 31.6667L87.7609 51.1333H97.8746V55H82.7375Z" fill="white"/>
<path d="M100.197 55L108.737 31.6667L114.497 31.6667L123.037 55H117.712L111.584 37.3L105.455 55H100.197ZM103.915 49.9L105.254 46.0333L117.545 46.0333L118.851 49.9H103.915Z" fill="white"/>
<path d="M125.94 55V31.6667L130.963 31.6667V55H125.94Z" fill="white"/>
<path d="M135.457 55V31.6667L144.566 31.6667C146.464 31.6667 148.038 32 149.288 32.6667C150.56 33.3111 151.498 34.1778 152.101 35.2667C152.726 36.3555 153.039 37.5667 153.039 38.9C153.039 40.1444 152.737 41.3111 152.134 42.4C151.554 43.4889 150.639 44.3667 149.388 45.0333C148.138 45.7 146.519 46.0333 144.532 46.0333L140.48 46.0333V55H135.457ZM147.546 55L142.824 44.8H148.216L153.24 55H147.546ZM140.48 42.4333H144.264C145.515 42.4333 146.43 42.1333 147.011 41.5333C147.613 40.9333 147.915 40.1222 147.915 39.1C147.915 38.1 147.613 37.3111 147.011 36.7333C146.43 36.1333 145.515 35.8333 144.264 35.8333H140.48V42.4333Z" fill="white"/>
<path d="M156.911 55V31.6667L172.617 31.6667V35.7L161.934 35.7V41.2H171.613V45.0667H161.934V50.9667H172.617V55H156.911Z" fill="white"/>
</svg>
