<svg width="20" height="21" viewBox="0 0 20 21" fill="none" xmlns="http://www.w3.org/2000/svg">
<path fill-rule="evenodd" clip-rule="evenodd" d="M10 0.5C4.47715 0.5 0 4.97715 0 10.5C0 16.0228 4.47715 20.5 10 20.5C15.5228 20.5 20 16.0228 20 10.5C20 4.97715 15.5228 0.5 10 0.5ZM7.80137 5.19889C8.37026 5.173 8.55204 5.16667 10.0005 5.16667H9.99883C11.4477 5.16667 11.6289 5.173 12.1977 5.19889C12.7655 5.22489 13.1533 5.31478 13.4933 5.44667C13.8444 5.58278 14.1411 5.76501 14.4378 6.06168C14.7344 6.35812 14.9167 6.65568 15.0533 7.00646C15.1844 7.34558 15.2744 7.73314 15.3011 8.30092C15.3267 8.86982 15.3333 9.0516 15.3333 10.5001C15.3333 11.9485 15.3267 12.1299 15.3011 12.6987C15.2744 13.2663 15.1844 13.654 15.0533 13.9932C14.9167 14.3439 14.7344 14.6414 14.4378 14.9379C14.1414 15.2345 13.8443 15.4172 13.4936 15.5534C13.1543 15.6853 12.7663 15.7752 12.1985 15.8012C11.6296 15.8271 11.4484 15.8334 9.99983 15.8334C8.55149 15.8334 8.36982 15.8271 7.80092 15.8012C7.23325 15.7752 6.84558 15.6853 6.50624 15.5534C6.15568 15.4172 5.85812 15.2345 5.56179 14.9379C5.26523 14.6414 5.083 14.3439 4.94667 13.9931C4.81489 13.654 4.725 13.2664 4.69889 12.6986C4.67311 12.1297 4.66667 11.9485 4.66667 10.5001C4.66667 9.0516 4.67333 8.86971 4.69878 8.30081C4.72433 7.73325 4.81433 7.34558 4.94656 7.00635C5.08323 6.65568 5.26545 6.35812 5.56212 6.06168C5.85857 5.76512 6.15613 5.58289 6.50691 5.44667C6.84602 5.31478 7.23358 5.22489 7.80137 5.19889Z" fill="white"/>
<path fill-rule="evenodd" clip-rule="evenodd" d="M9.52272 6.1278C9.61563 6.12765 9.71557 6.1277 9.82342 6.12775L10.0012 6.1278C11.4252 6.1278 11.594 6.13291 12.1563 6.15847C12.6763 6.18224 12.9585 6.26913 13.1465 6.34213C13.3954 6.4388 13.5729 6.55436 13.7594 6.74103C13.9461 6.9277 14.0617 7.10548 14.1586 7.35437C14.2316 7.54215 14.3186 7.82437 14.3422 8.34438C14.3678 8.90661 14.3733 9.0755 14.3733 10.4988C14.3733 11.9222 14.3678 12.0911 14.3422 12.6533C14.3184 13.1733 14.2316 13.4555 14.1586 13.6433C14.0619 13.8922 13.9461 14.0694 13.7594 14.256C13.5728 14.4427 13.3955 14.5582 13.1465 14.6549C12.9588 14.7282 12.6763 14.8149 12.1563 14.8387C11.5941 14.8642 11.4252 14.8698 10.0012 14.8698C8.57705 14.8698 8.40827 14.8642 7.84604 14.8387C7.32604 14.8147 7.04381 14.7278 6.8557 14.6548C6.60681 14.5581 6.42903 14.4426 6.24236 14.2559C6.05569 14.0692 5.94013 13.8919 5.84324 13.6429C5.77024 13.4551 5.68324 13.1729 5.65957 12.6529C5.63402 12.0906 5.62891 11.9217 5.62891 10.4975C5.62891 9.07327 5.63402 8.90527 5.65957 8.34304C5.68335 7.82304 5.77024 7.54081 5.84324 7.35281C5.93991 7.10392 6.05569 6.92614 6.24236 6.73947C6.42903 6.5528 6.60681 6.43725 6.8557 6.34036C7.0437 6.26702 7.32604 6.18035 7.84604 6.15647C8.33805 6.13424 8.52871 6.12758 9.52272 6.12646V6.1278ZM12.8481 7.01336C12.4948 7.01336 12.2081 7.2997 12.2081 7.65315C12.2081 8.00648 12.4948 8.29315 12.8481 8.29315C13.2014 8.29315 13.4881 8.00648 13.4881 7.65315C13.4881 7.29981 13.2014 7.01314 12.8481 7.01314V7.01336ZM7.26226 10.5001C7.26226 8.98753 8.48854 7.76121 10.0011 7.76115C11.5136 7.76115 12.7396 8.98749 12.7396 10.5001C12.7396 12.0126 11.5137 13.2384 10.0012 13.2384C8.4886 13.2384 7.26226 12.0126 7.26226 10.5001Z" fill="white"/>
<path d="M10.0005 8.72226C10.9822 8.72226 11.7782 9.51816 11.7782 10.5001C11.7782 11.4818 10.9822 12.2779 10.0005 12.2779C9.01855 12.2779 8.22266 11.4818 8.22266 10.5001C8.22266 9.51816 9.01855 8.72226 10.0005 8.72226Z" fill="white"/>
</svg>
