<svg width="30" height="30" viewBox="0 0 30 30" fill="none" xmlns="http://www.w3.org/2000/svg">
<g id="Menu Button">
<path id="Vector" d="M16.319 15L22.9518 7.32147C23.063 7.19387 22.9695 7 22.7977 7H20.7813C20.6625 7 20.5488 7.05153 20.4705 7.13988L15 13.4736L9.52951 7.13988C9.45371 7.05153 9.34 7 9.21872 7H7.20235C7.03052 7 6.93703 7.19387 7.04821 7.32147L13.681 15L7.04821 22.6785C7.02331 22.707 7.00733 22.7418 7.00218 22.7788C6.99702 22.8158 7.00291 22.8534 7.01914 22.8873C7.03537 22.9211 7.06125 22.9497 7.09373 22.9697C7.1262 22.9897 7.1639 23.0002 7.20235 23H9.21872C9.33748 23 9.45118 22.9485 9.52951 22.8601L15 16.5264L20.4705 22.8601C20.5463 22.9485 20.66 23 20.7813 23H22.7977C22.9695 23 23.063 22.8061 22.9518 22.6785L16.319 15Z" fill="#FB1616"/>
</g>
</svg>
