<svg width="28" height="29" viewBox="0 0 28 29" fill="none" xmlns="http://www.w3.org/2000/svg">
<g filter="url(#filter0_dd_3298_85716)">
<g clip-path="url(#clip0_3298_85716)">
<rect x="2" y="2" width="24" height="24" rx="12" fill="#1C1F26"/>
<path fill-rule="evenodd" clip-rule="evenodd" d="M18.9497 10.4645C19.3403 10.0739 19.3403 9.44077 18.9497 9.05024C18.5592 8.65972 17.9261 8.65972 17.5355 9.05024L14.7071 11.8787C14.3166 12.2692 13.6834 12.2692 13.2929 11.8787L10.4645 9.05024C10.0739 8.65972 9.44078 8.65972 9.05025 9.05024C8.65973 9.44077 8.65973 10.0739 9.05025 10.4645L11.8787 13.2929C12.2692 13.6834 12.2692 14.3166 11.8787 14.7071L9.05025 17.5355C8.65973 17.926 8.65973 18.5592 9.05025 18.9497C9.44078 19.3403 10.0739 19.3403 10.4645 18.9497L13.2929 16.1213C13.6834 15.7308 14.3166 15.7308 14.7071 16.1213L17.5355 18.9497C17.9261 19.3403 18.5592 19.3403 18.9497 18.9497C19.3403 18.5592 19.3403 17.926 18.9497 17.5355L16.1213 14.7071C15.7308 14.3166 15.7308 13.6834 16.1213 13.2929L18.9497 10.4645Z" fill="white"/>
</g>
</g>
<defs>
<filter id="filter0_dd_3298_85716" x="0" y="0" width="28" height="29" filterUnits="userSpaceOnUse" color-interpolation-filters="sRGB">
<feFlood flood-opacity="0" result="BackgroundImageFix"/>
<feColorMatrix in="SourceAlpha" type="matrix" values="0 0 0 0 0 0 0 0 0 0 0 0 0 0 0 0 0 0 127 0" result="hardAlpha"/>
<feMorphology radius="2" operator="dilate" in="SourceAlpha" result="effect1_dropShadow_3298_85716"/>
<feOffset/>
<feComposite in2="hardAlpha" operator="out"/>
<feColorMatrix type="matrix" values="0 0 0 0 0.0941176 0 0 0 0 0.0901961 0 0 0 0 0.0980392 0 0 0 1 0"/>
<feBlend mode="normal" in2="BackgroundImageFix" result="effect1_dropShadow_3298_85716"/>
<feColorMatrix in="SourceAlpha" type="matrix" values="0 0 0 0 0 0 0 0 0 0 0 0 0 0 0 0 0 0 127 0" result="hardAlpha"/>
<feOffset dy="1"/>
<feGaussianBlur stdDeviation="1"/>
<feComposite in2="hardAlpha" operator="out"/>
<feColorMatrix type="matrix" values="0 0 0 0 0.466459 0 0 0 0 0.466459 0 0 0 0 0.466459 0 0 0 0.5 0"/>
<feBlend mode="normal" in2="effect1_dropShadow_3298_85716" result="effect2_dropShadow_3298_85716"/>
<feBlend mode="normal" in="SourceGraphic" in2="effect2_dropShadow_3298_85716" result="shape"/>
</filter>
<clipPath id="clip0_3298_85716">
<rect x="2" y="2" width="24" height="24" rx="12" fill="white"/>
</clipPath>
</defs>
</svg>
