<svg width="81" height="80" viewBox="0 0 81 80" fill="none" xmlns="http://www.w3.org/2000/svg">
<path d="M73.1756 6.36365H7.72106C4.20652 6.36365 1.35742 9.21274 1.35742 12.7273V67.2727C1.35742 70.7873 4.20652 73.6364 7.72106 73.6364H73.1756C76.6901 73.6364 79.5392 70.7873 79.5392 67.2727V12.7273C79.5392 9.21274 76.6901 6.36365 73.1756 6.36365Z" fill="#FF4245"/>
<path d="M79.5392 17.2727V67.2727C79.5373 68.9599 78.8662 70.5774 77.6732 71.7703C76.4802 72.9633 74.8628 73.6344 73.1756 73.6363H7.72106C6.03391 73.6344 4.41641 72.9633 3.22341 71.7703C2.03042 70.5774 1.35935 68.9599 1.35742 67.2727V17.2727H79.5392Z" fill="#F2F2F2"/>
<path d="M47.0856 59.5454H42.5401C42.299 59.5454 42.0678 59.4497 41.8973 59.2792C41.7268 59.1087 41.631 58.8775 41.631 58.6364V31.3636C41.631 31.1225 41.7268 30.8913 41.8973 30.7208C42.0678 30.5503 42.299 30.4545 42.5401 30.4545H47.0856C47.3267 30.4545 47.5579 30.3588 47.7284 30.1883C47.8989 30.0178 47.9947 29.7865 47.9947 29.5454C47.9947 29.3043 47.8989 29.0731 47.7284 28.9026C47.5579 28.7321 47.3267 28.6364 47.0856 28.6364H42.5401C41.8168 28.6364 41.1231 28.9237 40.6117 29.4352C40.1002 29.9466 39.8129 30.6403 39.8129 31.3636V44.0909H34.3583C34.1172 44.0909 33.886 44.1867 33.7155 44.3572C33.545 44.5277 33.4492 44.7589 33.4492 45C33.4492 45.2411 33.545 45.4723 33.7155 45.6428C33.886 45.8133 34.1172 45.9091 34.3583 45.9091H39.8129V58.6364C39.8129 59.3597 40.1002 60.0534 40.6117 60.5648C41.1231 61.0763 41.8168 61.3636 42.5401 61.3636H47.0856C47.3267 61.3636 47.5579 61.2678 47.7284 61.0974C47.8989 60.9269 47.9947 60.6956 47.9947 60.4545C47.9947 60.2134 47.8989 59.9822 47.7284 59.8117C47.5579 59.6412 47.3267 59.5454 47.0856 59.5454Z" fill="#C10003"/>
<path d="M57.0849 71.3637C63.1098 71.3637 67.994 66.4795 67.994 60.4546C67.994 54.4297 63.1098 49.5455 57.0849 49.5455C51.0599 49.5455 46.1758 54.4297 46.1758 60.4546C46.1758 66.4795 51.0599 71.3637 57.0849 71.3637Z" fill="#FF4245"/>
<path d="M65.676 67.1637C64.658 68.4707 63.3553 69.5284 61.867 70.2562C60.3787 70.9839 58.744 71.3627 57.0873 71.3636C55.4306 71.3644 53.7955 70.9874 52.3064 70.2612C50.8173 69.535 49.5135 68.4788 48.4941 67.1728C48.7516 66.7323 49.0434 66.3128 49.3669 65.9182C50.3498 64.7235 51.5966 63.7732 53.0092 63.1422C54.4217 62.5112 55.9615 62.2167 57.5072 62.282C59.0529 62.3472 60.5624 62.7703 61.9168 63.518C63.2712 64.2658 64.4336 65.3177 65.3123 66.591C65.4396 66.7819 65.5669 66.9637 65.676 67.1637Z" fill="#C10003"/>
<path d="M57.0845 61.3637C59.5949 61.3637 61.63 59.3287 61.63 56.8183C61.63 54.3079 59.5949 52.2728 57.0845 52.2728C54.5741 52.2728 52.5391 54.3079 52.5391 56.8183C52.5391 59.3287 54.5741 61.3637 57.0845 61.3637Z" fill="#C10003"/>
<path d="M57.0849 40.4545C63.1098 40.4545 67.994 35.5704 67.994 29.5454C67.994 23.5205 63.1098 18.6364 57.0849 18.6364C51.0599 18.6364 46.1758 23.5205 46.1758 29.5454C46.1758 35.5704 51.0599 40.4545 57.0849 40.4545Z" fill="#FF4245"/>
<path d="M23.3583 55.8183C29.3832 55.8183 34.2674 50.9341 34.2674 44.9092C34.2674 38.8843 29.3832 34.0001 23.3583 34.0001C17.3334 34.0001 12.4492 38.8843 12.4492 44.9092C12.4492 50.9341 17.3334 55.8183 23.3583 55.8183Z" fill="#FF4245"/>
<path d="M65.676 36.2545C64.658 37.5616 63.3553 38.6192 61.867 39.347C60.3787 40.0748 58.744 40.4535 57.0873 40.4544C55.4306 40.4553 53.7955 40.0782 52.3064 39.352C50.8173 38.6258 49.5135 37.5696 48.4941 36.2636C48.7516 35.8231 49.0434 35.4036 49.3669 35.0091C50.3498 33.8143 51.5966 32.864 53.0092 32.233C54.4217 31.602 55.9615 31.3076 57.5072 31.3728C59.0529 31.438 60.5624 31.8611 61.9168 32.6089C63.2712 33.3566 64.4336 34.4085 65.3123 35.6818C65.4396 35.8727 65.5669 36.0545 65.676 36.2545Z" fill="#C10003"/>
<path d="M31.9494 51.6183C30.9314 52.9253 29.6287 53.983 28.1404 54.7108C26.6521 55.4385 25.0174 55.8173 23.3607 55.8181C21.704 55.819 20.0689 55.442 18.5798 54.7158C17.0908 53.9896 15.787 52.9334 14.7676 51.6274C15.025 51.1869 15.3168 50.7674 15.6403 50.3728C16.6232 49.1781 17.87 48.2278 19.2826 47.5968C20.6952 46.9658 22.2349 46.6713 23.7806 46.7365C25.3264 46.8018 26.8358 47.2249 28.1902 47.9726C29.5446 48.7204 30.707 49.7723 31.5858 51.0456C31.713 51.2365 31.8403 51.4183 31.9494 51.6183Z" fill="#C10003"/>
<path d="M57.0845 30.4548C59.5949 30.4548 61.63 28.4197 61.63 25.9093C61.63 23.399 59.5949 21.3639 57.0845 21.3639C54.5741 21.3639 52.5391 23.399 52.5391 25.9093C52.5391 28.4197 54.5741 30.4548 57.0845 30.4548Z" fill="#C10003"/>
<path d="M23.358 45.8186C25.8683 45.8186 27.9034 43.7835 27.9034 41.2731C27.9034 38.7627 25.8683 36.7277 23.358 36.7277C20.8476 36.7277 18.8125 38.7627 18.8125 41.2731C18.8125 43.7835 20.8476 45.8186 23.358 45.8186Z" fill="#C10003"/>
<path d="M8.62962 14.5455C10.1358 14.5455 11.3569 13.3244 11.3569 11.8182C11.3569 10.312 10.1358 9.09094 8.62962 9.09094C7.12339 9.09094 5.90234 10.312 5.90234 11.8182C5.90234 13.3244 7.12339 14.5455 8.62962 14.5455Z" fill="#C10003"/>
<path d="M15.9031 14.5455C17.4093 14.5455 18.6303 13.3244 18.6303 11.8182C18.6303 10.312 17.4093 9.09094 15.9031 9.09094C14.3968 9.09094 13.1758 10.312 13.1758 11.8182C13.1758 13.3244 14.3968 14.5455 15.9031 14.5455Z" fill="#C10003"/>
<path d="M23.1765 14.5455C24.6827 14.5455 25.9038 13.3244 25.9038 11.8182C25.9038 10.312 24.6827 9.09094 23.1765 9.09094C21.6703 9.09094 20.4492 10.312 20.4492 11.8182C20.4492 13.3244 21.6703 14.5455 23.1765 14.5455Z" fill="#C10003"/>
<path d="M73.176 10.9091H45.9032C45.6621 10.9091 45.4309 11.0048 45.2604 11.1753C45.0899 11.3458 44.9941 11.577 44.9941 11.8181C44.9941 12.0593 45.0899 12.2905 45.2604 12.461C45.4309 12.6315 45.6621 12.7272 45.9032 12.7272H73.176C73.4171 12.7272 73.6483 12.6315 73.8188 12.461C73.9893 12.2905 74.085 12.0593 74.085 11.8181C74.085 11.577 73.9893 11.3458 73.8188 11.1753C73.6483 11.0048 73.4171 10.9091 73.176 10.9091Z" fill="#C10003"/>
</svg>
