<svg width="61" height="60" viewBox="0 0 61 60" fill="none" xmlns="http://www.w3.org/2000/svg">
<path d="M59.54 13.6364H49.54V59.0909H54.9946C56.4412 59.0909 57.8286 58.5162 58.8515 57.4933C59.8745 56.4704 60.4491 55.083 60.4491 53.6364V14.5454C60.4491 14.3043 60.3534 14.0731 60.1829 13.9026C60.0124 13.7321 59.7811 13.6364 59.54 13.6364Z" fill="#F7D0D1"/>
<path d="M49.5401 53.6363V1.81815C49.5401 1.57704 49.4443 1.34581 49.2739 1.17532C49.1034 1.00484 48.8721 0.909058 48.631 0.909058H1.35831C1.1172 0.909058 0.885973 1.00484 0.715485 1.17532C0.544998 1.34581 0.449219 1.57704 0.449219 1.81815V53.6363C0.449219 55.083 1.02389 56.4703 2.04682 57.4933C3.06974 58.5162 4.45713 59.0909 5.90376 59.0909H54.9947C53.548 59.0909 52.1607 58.5162 51.1377 57.4933C50.1148 56.4703 49.5401 55.083 49.5401 53.6363Z" fill="#F2F2F2"/>
<path d="M44.995 4.54541H4.99503C4.49295 4.54541 4.08594 4.95242 4.08594 5.4545V27.2727C4.08594 27.7748 4.49295 28.1818 4.99503 28.1818H44.995C45.4971 28.1818 45.9041 27.7748 45.9041 27.2727V5.4545C45.9041 4.95242 45.4971 4.54541 44.995 4.54541Z" fill="#FF4245"/>
<path d="M45.9035 19.6181V27.2727C45.9035 27.5138 45.8078 27.745 45.6373 27.9155C45.4668 28.086 45.2355 28.1818 44.9944 28.1818H31.8854L25.2581 21.5545C25.0878 21.3828 24.9922 21.1508 24.9922 20.909C24.9922 20.6672 25.0878 20.4352 25.2581 20.2636L35.2581 10.2636C35.4297 10.0933 35.6617 9.99768 35.9035 9.99768C36.1453 9.99768 36.3773 10.0933 36.549 10.2636L45.9035 19.6181Z" fill="#ED292C"/>
<path d="M26.8132 13.6363C28.3194 13.6363 29.5405 12.4153 29.5405 10.909C29.5405 9.4028 28.3194 8.18176 26.8132 8.18176C25.307 8.18176 24.0859 9.4028 24.0859 10.909C24.0859 12.4153 25.307 13.6363 26.8132 13.6363Z" fill="#C10003"/>
<path d="M44.995 30.9091H24.995C24.493 30.9091 24.0859 31.3161 24.0859 31.8181V42.7272C24.0859 43.2293 24.493 43.6363 24.995 43.6363H44.995C45.4971 43.6363 45.9041 43.2293 45.9041 42.7272V31.8181C45.9041 31.3161 45.4971 30.9091 44.995 30.9091Z" fill="#FF4245"/>
<path d="M21.3587 32.7272H4.99503C4.75392 32.7272 4.52269 32.6315 4.3522 32.461C4.18172 32.2905 4.08594 32.0593 4.08594 31.8181C4.08594 31.577 4.18172 31.3458 4.3522 31.1753C4.52269 31.0048 4.75392 30.9091 4.99503 30.9091H21.3587C21.5998 30.9091 21.831 31.0048 22.0015 31.1753C22.172 31.3458 22.2678 31.577 22.2678 31.8181C22.2678 32.0593 22.172 32.2905 22.0015 32.461C21.831 32.6315 21.5998 32.7272 21.3587 32.7272Z" fill="#FF4245"/>
<path d="M21.3587 38.1818H4.99503C4.75392 38.1818 4.52269 38.0861 4.3522 37.9156C4.18172 37.7451 4.08594 37.5138 4.08594 37.2727C4.08594 37.0316 4.18172 36.8004 4.3522 36.6299C4.52269 36.4594 4.75392 36.3636 4.99503 36.3636H21.3587C21.5998 36.3636 21.831 36.4594 22.0015 36.6299C22.172 36.8004 22.2678 37.0316 22.2678 37.2727C22.2678 37.5138 22.172 37.7451 22.0015 37.9156C21.831 38.0861 21.5998 38.1818 21.3587 38.1818Z" fill="#FF4245"/>
<path d="M21.3587 43.6363H4.99503C4.75392 43.6363 4.52269 43.5405 4.3522 43.37C4.18172 43.1995 4.08594 42.9683 4.08594 42.7272C4.08594 42.4861 4.18172 42.2549 4.3522 42.0844C4.52269 41.9139 4.75392 41.8181 4.99503 41.8181H21.3587C21.5998 41.8181 21.831 41.9139 22.0015 42.0844C22.172 42.2549 22.2678 42.4861 22.2678 42.7272C22.2678 42.9683 22.172 43.1995 22.0015 43.37C21.831 43.5405 21.5998 43.6363 21.3587 43.6363Z" fill="#FF4245"/>
<path d="M44.995 49.0909H4.99503C4.75392 49.0909 4.52269 48.9951 4.3522 48.8246C4.18172 48.6541 4.08594 48.4229 4.08594 48.1818C4.08594 47.9407 4.18172 47.7095 4.3522 47.539C4.52269 47.3685 4.75392 47.2727 4.99503 47.2727H44.995C45.2361 47.2727 45.4674 47.3685 45.6379 47.539C45.8083 47.7095 45.9041 47.9407 45.9041 48.1818C45.9041 48.4229 45.8083 48.6541 45.6379 48.8246C45.4674 48.9951 45.2361 49.0909 44.995 49.0909Z" fill="#FF4245"/>
<path d="M44.995 54.5455H4.99503C4.75392 54.5455 4.52269 54.4497 4.3522 54.2792C4.18172 54.1087 4.08594 53.8775 4.08594 53.6364C4.08594 53.3953 4.18172 53.164 4.3522 52.9936C4.52269 52.8231 4.75392 52.7273 4.99503 52.7273H44.995C45.2361 52.7273 45.4674 52.8231 45.6379 52.9936C45.8083 53.164 45.9041 53.3953 45.9041 53.6364C45.9041 53.8775 45.8083 54.1087 45.6379 54.2792C45.4674 54.4497 45.2361 54.5455 44.995 54.5455Z" fill="#FF4245"/>
<path d="M34.4678 28.1818H4.99503C4.75392 28.1818 4.52269 28.086 4.3522 27.9155C4.18172 27.745 4.08594 27.5138 4.08594 27.2727V26.8909L17.9859 12.9909C18.1576 12.8206 18.3896 12.725 18.6314 12.725C18.8732 12.725 19.1052 12.8206 19.2768 12.9909L34.4678 28.1818Z" fill="#C10003"/>
</svg>
