<svg width="81" height="80" viewBox="0 0 81 80" fill="none" xmlns="http://www.w3.org/2000/svg">
<path d="M14.4869 24.6363C14.3351 24.561 14.1653 24.5297 13.9967 24.5457C13.828 24.5618 13.6672 24.6247 13.5324 24.7273L1.71418 33.8182C1.59976 33.9062 1.50794 34.0202 1.44633 34.1508C1.38471 34.2813 1.35508 34.4247 1.35988 34.5689C1.36467 34.7132 1.40377 34.8543 1.47391 34.9805C1.54406 35.1067 1.64325 35.2143 1.76327 35.2945L13.5815 43.1763C13.7179 43.2674 13.8763 43.3198 14.0401 43.3281C14.2039 43.3364 14.3668 43.3002 14.5117 43.2234C14.6566 43.1466 14.778 43.0321 14.8631 42.892C14.9482 42.7518 14.9938 42.5912 14.9951 42.4273V25.4545C14.9955 25.2842 14.9481 25.1173 14.8583 24.9726C14.7684 24.828 14.6397 24.7114 14.4869 24.6363Z" fill="#ED292C"/>
<path d="M79.1852 33.8254L67.367 24.7345C67.2325 24.6312 67.0717 24.5676 66.903 24.5509C66.7342 24.5342 66.5641 24.5651 66.4119 24.64C66.2597 24.7149 66.1315 24.8309 66.0418 24.9748C65.9521 25.1188 65.9045 25.2849 65.9043 25.4545V42.4273C65.9043 42.5918 65.9489 42.7534 66.0335 42.8945C66.1181 43.0357 66.2394 43.1513 66.3845 43.229C66.5296 43.3066 66.6931 43.3434 66.8575 43.3354C67.0219 43.3274 67.181 43.275 67.3179 43.1836L79.1361 35.3018C79.2561 35.2216 79.3553 35.1139 79.4255 34.9878C79.4956 34.8616 79.5347 34.7205 79.5395 34.5762C79.5443 34.4319 79.5147 34.2886 79.4531 34.158C79.3914 34.0275 79.2996 33.9135 79.1852 33.8254Z" fill="#ED292C"/>
<path d="M66.8131 0.909058H14.0858C13.8447 0.909058 13.6135 1.00484 13.443 1.17532C13.2725 1.34581 13.1768 1.57704 13.1768 1.81815V42.4272C13.1767 42.5769 13.2136 42.7242 13.2842 42.8561C13.3548 42.9881 13.4568 43.1006 13.5813 43.1836L39.9449 60.7563C40.0943 60.856 40.2699 60.9092 40.4495 60.9092C40.6291 60.9092 40.8046 60.856 40.954 60.7563L67.3177 43.1836C67.4421 43.1006 67.5442 42.9881 67.6148 42.8561C67.6853 42.7242 67.7222 42.5769 67.7222 42.4272V1.81815C67.7222 1.57704 67.6264 1.34581 67.4559 1.17532C67.2855 1.00484 67.0542 0.909058 66.8131 0.909058Z" fill="#F2F2F2"/>
<path d="M79.0602 33.7436C78.9151 33.666 78.7515 33.6292 78.5871 33.6372C78.4227 33.6452 78.2635 33.6977 78.1266 33.7891L40.4493 58.9091L2.77203 33.7891C2.63513 33.6978 2.47599 33.6453 2.3116 33.6373C2.1472 33.6293 1.98373 33.6661 1.83861 33.7438C1.69349 33.8214 1.57218 33.937 1.4876 34.0782C1.40303 34.2194 1.35837 34.3809 1.3584 34.5455V78.1818C1.3584 78.4229 1.45418 78.6542 1.62466 78.8247C1.79515 78.9951 2.02638 79.0909 2.26749 79.0909H78.6311C78.8722 79.0909 79.1035 78.9951 79.2739 78.8247C79.4444 78.6542 79.5402 78.4229 79.5402 78.1818V34.5455C79.5403 34.3809 79.4957 34.2194 79.4111 34.0782C79.3266 33.9369 79.2053 33.8213 79.0602 33.7436Z" fill="#C10003"/>
<path d="M51.4493 51.5718L40.4493 58.9091L29.4493 51.5718L1.3584 77.7863V78.1818C1.3584 78.4229 1.45418 78.6541 1.62466 78.8246C1.79515 78.9951 2.02638 79.0909 2.26749 79.0909H78.6311C78.8722 79.0909 79.1035 78.9951 79.2739 78.8246C79.4444 78.6541 79.5402 78.4229 79.5402 78.1818V77.7863L51.4493 51.5718Z" fill="#FF4245"/>
<path d="M48.6194 16.6881L48.2503 16.3245C47.7298 15.8037 47.1118 15.3906 46.4316 15.1088C45.7515 14.827 45.0224 14.6819 44.2862 14.6819C43.5499 14.6819 42.8209 14.827 42.1407 15.1088C41.4605 15.3906 40.8425 15.8037 40.3221 16.3245L40.1403 16.5063C39.9704 16.6767 39.875 16.9075 39.875 17.1481C39.875 17.3887 39.9704 17.6195 40.1403 17.79L47.1494 24.799C47.3198 24.9692 47.5508 25.0648 47.7916 25.0648C48.0325 25.0648 48.2635 24.9692 48.4339 24.799L48.6157 24.6172C49.6664 23.5656 50.2569 22.14 50.2576 20.6534C50.2583 19.1669 49.6691 17.7407 48.6194 16.6881Z" fill="#ED292C"/>
<path d="M44.1179 38.6364C44.0206 38.6364 43.9239 38.6207 43.8316 38.59L39.9116 37.2882C39.7644 37.2393 39.6321 37.1535 39.5274 37.0391C39.4227 36.9246 39.349 36.7852 39.3134 36.6342C39.2777 36.4833 39.2813 36.3257 39.3238 36.1764C39.3663 36.0272 39.4463 35.8914 39.5561 35.7818L42.4752 32.8618C42.6492 32.6977 42.8793 32.6063 43.1184 32.6063C43.3575 32.6063 43.5876 32.6977 43.7616 32.8618C44.7073 33.8048 45.2399 35.0846 45.2425 36.42C45.2382 36.9616 45.1498 37.4992 44.9807 38.0137C44.9205 38.1949 44.8048 38.3526 44.6499 38.4644C44.4951 38.5762 44.3089 38.6364 44.1179 38.6364ZM41.8825 36.0264L43.4216 36.5373V36.4118C43.4188 35.8764 43.2822 35.3502 43.0243 34.8809L41.8825 36.0264Z" fill="#ED292C"/>
<path d="M53.3501 40.3027C53.3145 40.1519 53.241 40.0127 53.1364 39.8983C53.0319 39.7839 52.8999 39.6981 52.7529 39.6491L40.4865 35.5582C40.3264 35.5048 40.1546 35.497 39.9904 35.5357C39.8261 35.5744 39.6759 35.658 39.5565 35.7773L36.6356 38.6982C36.2683 39.0665 35.8616 39.3933 35.4229 39.6727C35.278 39.765 35.1622 39.8963 35.0889 40.0517C35.0156 40.207 34.9878 40.3799 35.0087 40.5504C35.0297 40.7209 35.0984 40.8819 35.2071 41.0149C35.3158 41.1479 35.46 41.2474 35.6229 41.3018L48.0856 45.4627C48.1784 45.4941 48.2758 45.5101 48.3738 45.51C48.6149 45.5099 48.846 45.4141 49.0165 45.2436L53.1074 41.1527C53.2168 41.0434 53.2966 40.908 53.339 40.7592C53.3815 40.6105 53.3853 40.4534 53.3501 40.3027Z" fill="#C10003"/>
<path d="M50.1286 15.72C49.9489 15.7199 49.7731 15.6666 49.6237 15.5667C49.4742 15.4668 49.3577 15.3248 49.2889 15.1587C49.2201 14.9927 49.2021 14.8099 49.2372 14.6336C49.2722 14.4573 49.3588 14.2953 49.4859 14.1682L54.1586 9.49543C54.3301 9.32983 54.5597 9.2382 54.7981 9.24027C55.0364 9.24234 55.2645 9.33795 55.433 9.5065C55.6016 9.67505 55.6972 9.90307 55.6992 10.1414C55.7013 10.3798 55.6097 10.6094 55.4441 10.7809L50.7714 15.4545C50.6008 15.6247 50.3696 15.7202 50.1286 15.72Z" fill="#C10003"/>
<path d="M47.2098 12.8C47.135 12.7999 47.0605 12.7908 46.988 12.7727C46.7541 12.7141 46.5531 12.5651 46.4291 12.3583C46.3052 12.1515 46.2685 11.9039 46.3271 11.67L47.4952 7.00001C47.5206 6.88058 47.5698 6.76749 47.6399 6.66749C47.71 6.56748 47.7994 6.48262 47.903 6.41796C48.0066 6.3533 48.1221 6.31017 48.2428 6.29114C48.3634 6.27211 48.4866 6.27757 48.605 6.3072C48.7235 6.33683 48.8348 6.39002 48.9322 6.46359C49.0297 6.53716 49.1113 6.62961 49.1722 6.73542C49.2332 6.84123 49.2722 6.95824 49.2869 7.07945C49.3016 7.20066 49.2918 7.3236 49.258 7.44092L48.0861 12.1109C48.0373 12.3068 47.9247 12.4808 47.766 12.6056C47.6073 12.7303 47.4116 12.7987 47.2098 12.8Z" fill="#C10003"/>
<path d="M53.0478 18.6409C52.8262 18.6404 52.6123 18.559 52.4465 18.4119C52.2806 18.2648 52.1743 18.0622 52.1474 17.8422C52.1204 17.6222 52.1748 17.3999 52.3003 17.2172C52.4258 17.0344 52.6137 16.9038 52.8287 16.85L57.5024 15.6818C57.6192 15.6497 57.7413 15.6414 57.8614 15.6572C57.9815 15.673 58.0973 15.7126 58.2018 15.7738C58.3064 15.835 58.3977 15.9165 58.4703 16.0134C58.543 16.1104 58.5955 16.2209 58.6248 16.3384C58.6542 16.456 58.6597 16.5782 58.6411 16.6979C58.6225 16.8177 58.5802 16.9325 58.5166 17.0356C58.453 17.1387 58.3695 17.2281 58.2709 17.2985C58.1722 17.3689 58.0606 17.4188 57.9424 17.4454L53.2678 18.6136C53.1959 18.6319 53.122 18.641 53.0478 18.6409Z" fill="#C10003"/>
<path d="M53.1085 28.1863L36.753 11.8318C36.6404 11.7192 36.5002 11.6381 36.3465 11.5967C36.1927 11.5553 36.0307 11.555 35.8768 11.5959C35.7229 11.6368 35.5824 11.7173 35.4694 11.8296C35.3564 11.9418 35.2749 12.0818 35.233 12.2354L33.9376 18.0336L24.953 27.0191C23.261 28.7444 22.3184 31.068 22.3302 33.4846C22.342 35.9012 23.3073 38.2154 25.0161 39.9241C26.725 41.6329 29.0393 42.598 31.4559 42.6096C33.8725 42.6213 36.196 41.6785 37.9212 39.9863L46.9039 31L52.7021 29.7045C52.8559 29.6627 52.9959 29.5813 53.1082 29.4684C53.2206 29.3555 53.3013 29.215 53.3423 29.061C53.3832 28.9071 53.383 28.7451 53.3417 28.5913C53.3003 28.4374 53.2193 28.2972 53.1067 28.1845L53.1085 28.1863Z" fill="#FF4245"/>
<path d="M46.9768 30.9863L52.7041 29.7063C52.8578 29.6646 52.9979 29.5831 53.1102 29.4702C53.2226 29.3573 53.3033 29.2168 53.3442 29.0629C53.3852 28.9089 53.385 28.7469 53.3437 28.5931C53.3023 28.4393 53.2213 28.299 53.1086 28.1863L36.7532 11.8318C36.6406 11.7192 36.5004 11.6381 36.3466 11.5967C36.1928 11.5553 36.0309 11.555 35.877 11.5959C35.723 11.6368 35.5826 11.7173 35.4696 11.8296C35.3566 11.9418 35.2751 12.0818 35.2332 12.2354L33.9541 17.9627L46.9768 30.9863Z" fill="#C10003"/>
</svg>
