<svg width="81" height="80" viewBox="0 0 81 80" fill="none" xmlns="http://www.w3.org/2000/svg">
<path d="M73.1766 6.36365H7.72203C4.2075 6.36365 1.3584 9.21274 1.3584 12.7273V67.2727C1.3584 70.7873 4.2075 73.6364 7.72203 73.6364H73.1766C76.6911 73.6364 79.5402 70.7873 79.5402 67.2727V12.7273C79.5402 9.21274 76.6911 6.36365 73.1766 6.36365Z" fill="#FF4245"/>
<path d="M79.5402 17.2727V67.2727C79.5383 68.9599 78.8672 70.5774 77.6742 71.7703C76.4812 72.9633 74.8637 73.6344 73.1766 73.6363H7.72203C6.03488 73.6344 4.41739 72.9633 3.22439 71.7703C2.03139 70.5774 1.36032 68.9599 1.3584 67.2727V17.2727H79.5402Z" fill="#F2F2F2"/>
<path d="M8.63157 14.5455C10.1378 14.5455 11.3588 13.3244 11.3588 11.8182C11.3588 10.312 10.1378 9.09094 8.63157 9.09094C7.12534 9.09094 5.9043 10.312 5.9043 11.8182C5.9043 13.3244 7.12534 14.5455 8.63157 14.5455Z" fill="#C10003"/>
<path d="M15.904 14.5455C17.4103 14.5455 18.6313 13.3244 18.6313 11.8182C18.6313 10.312 17.4103 9.09094 15.904 9.09094C14.3978 9.09094 13.1768 10.312 13.1768 11.8182C13.1768 13.3244 14.3978 14.5455 15.904 14.5455Z" fill="#C10003"/>
<path d="M23.1765 14.5455C24.6827 14.5455 25.9038 13.3244 25.9038 11.8182C25.9038 10.312 24.6827 9.09094 23.1765 9.09094C21.6703 9.09094 20.4492 10.312 20.4492 11.8182C20.4492 13.3244 21.6703 14.5455 23.1765 14.5455Z" fill="#C10003"/>
<path d="M73.1769 10.9091H45.9042C45.6631 10.9091 45.4319 11.0048 45.2614 11.1753C45.0909 11.3458 44.9951 11.577 44.9951 11.8181C44.9951 12.0593 45.0909 12.2905 45.2614 12.461C45.4319 12.6315 45.6631 12.7272 45.9042 12.7272H73.1769C73.418 12.7272 73.6493 12.6315 73.8198 12.461C73.9902 12.2905 74.086 12.0593 74.086 11.8181C74.086 11.577 73.9902 11.3458 73.8198 11.1753C73.6493 11.0048 73.418 10.9091 73.1769 10.9091Z" fill="#C10003"/>
<path d="M57.8016 38.1027C54.3689 34.6718 49.9961 32.3355 45.2359 31.3891C40.4757 30.4428 35.5418 30.9288 31.0578 32.7859C26.5738 34.6429 22.741 37.7876 20.0438 41.8225C17.3466 45.8573 15.9061 50.6012 15.9043 55.4546C15.9043 55.6957 16.0001 55.9269 16.1706 56.0974C16.3411 56.2679 16.5723 56.3637 16.8134 56.3637H22.2679C22.509 56.3637 22.7403 56.2679 22.9108 56.0974C23.0812 55.9269 23.177 55.6957 23.177 55.4546C23.177 50.8735 24.9968 46.4802 28.2361 43.2409C31.4754 40.0016 35.8687 38.1818 40.4498 38.1818C45.0308 38.1818 49.4241 40.0016 52.6634 43.2409C55.9027 46.4802 57.7225 50.8735 57.7225 55.4546C57.7225 55.6957 57.8183 55.9269 57.9887 56.0974C58.1592 56.2679 58.3905 56.3637 58.6316 56.3637H64.0861C64.3272 56.3637 64.5585 56.2679 64.7289 56.0974C64.8994 55.9269 64.9952 55.6957 64.9952 55.4546C65.0046 52.2301 64.3735 49.0359 63.1386 46.0572C61.9037 43.0785 60.0896 40.3748 57.8016 38.1027Z" fill="#FF4245"/>
<path d="M64.9945 55.4546C64.9945 55.6957 64.8988 55.9269 64.7283 56.0974C64.5578 56.2679 64.3266 56.3637 64.0855 56.3637H58.6309C58.3898 56.3637 58.1586 56.2679 57.9881 56.0974C57.8176 55.9269 57.7218 55.6957 57.7218 55.4546C57.7302 51.1867 56.1449 47.0694 53.2764 43.9091L58.4309 38.7637C62.6667 43.287 65.0146 49.2576 64.9945 55.4546Z" fill="#B61618"/>
<path d="M40.4491 54.5455C40.208 54.5455 39.9768 54.4497 39.8063 54.2793C39.6358 54.1088 39.54 53.8775 39.54 53.6364V44.2455C39.54 44.0044 39.6358 43.7732 39.8063 43.6027C39.9768 43.4322 40.208 43.3364 40.4491 43.3364C40.6902 43.3364 40.9215 43.4322 41.092 43.6027C41.2624 43.7732 41.3582 44.0044 41.3582 44.2455V53.6364C41.3582 53.8775 41.2624 54.1088 41.092 54.2793C40.9215 54.4497 40.6902 54.5455 40.4491 54.5455Z" fill="#C10003"/>
<path d="M40.4496 30.9091V38.1818C38.1808 38.1767 35.9336 38.6216 33.8379 39.4908C31.7422 40.36 29.8397 41.6361 28.2405 43.2454C28.0223 43.4636 27.8132 43.6818 27.6223 43.9091L22.4678 38.7636C22.6678 38.5363 22.8769 38.3181 23.095 38.1C25.3676 35.8121 28.0719 33.9983 31.0511 32.7639C34.0302 31.5294 37.2249 30.899 40.4496 30.9091Z" fill="#C10003"/>
<path d="M40.4492 30.9091V38.1818C42.718 38.1767 44.9652 38.6216 47.0609 39.4908C49.1566 40.36 51.0591 41.6361 52.6583 43.2454C52.8765 43.4636 53.0856 43.6818 53.2765 43.9091L58.431 38.7636C58.231 38.5363 58.0219 38.3181 57.8038 38.1C55.5312 35.8121 52.8269 33.9983 49.8477 32.7639C46.8686 31.5294 43.674 30.899 40.4492 30.9091Z" fill="#ED292C"/>
<path d="M40.4489 60C42.4572 60 44.0852 58.372 44.0852 56.3637C44.0852 54.3554 42.4572 52.7273 40.4489 52.7273C38.4406 52.7273 36.8125 54.3554 36.8125 56.3637C36.8125 58.372 38.4406 60 40.4489 60Z" fill="#FF4245"/>
</svg>
