<svg width="81" height="80" viewBox="0 0 81 80" fill="none" xmlns="http://www.w3.org/2000/svg">
<path d="M76.7748 31.1509L71.4811 29.3854L69.8984 25.5672L72.3929 20.5763C72.7735 19.8174 72.9051 18.9578 72.7692 18.1198C72.6332 17.2817 72.2366 16.5079 71.6357 15.9081L64.5448 8.81724C63.9451 8.21649 63.1715 7.8199 62.3337 7.6838C61.4958 7.5477 60.6364 7.679 59.8775 8.05906L54.892 10.5454L51.062 8.9627L49.2993 3.6736C49.0312 2.86828 48.5163 2.16781 47.8277 1.67159C47.1391 1.17536 46.3117 0.90857 45.4629 0.909058H35.4357C34.5869 0.90857 33.7595 1.17536 33.0709 1.67159C32.3823 2.16781 31.8674 2.86828 31.5993 3.6736L29.8366 8.9627L26.0066 10.5454L21.0202 8.05542C20.2612 7.6755 19.4019 7.54428 18.5641 7.68038C17.7263 7.81647 16.9526 8.21297 16.3529 8.8136L9.26204 15.9045C8.66111 16.5042 8.2645 17.2781 8.12855 18.1161C7.9926 18.9542 8.12424 19.8138 8.50476 20.5727L10.9993 25.5636L9.41658 29.3818L4.12385 31.1509C3.3182 31.4183 2.61734 31.9328 2.12088 32.6214C1.62441 33.3099 1.35761 34.1375 1.3584 34.9863V45.0136C1.35761 45.8625 1.62441 46.69 2.12088 47.3785C2.61734 48.0671 3.3182 48.5816 4.12385 48.8491L9.41749 50.6145L11.0002 54.4327L8.50567 59.4236C8.12466 60.1835 7.99318 61.0443 8.12997 61.8833C8.26676 62.7223 8.66483 63.4968 9.26749 64.0963L16.3584 71.1872C16.9583 71.7876 17.7319 72.184 18.5696 72.32C19.4073 72.4561 20.2666 72.3251 21.0257 71.9454L26.0175 69.45L29.8411 71.0327L31.6048 76.3272C31.8727 77.1315 32.3868 77.8311 33.0743 78.3271C33.7619 78.8231 34.5879 79.0903 35.4357 79.0909H45.4629C46.3117 79.0914 47.1391 78.8246 47.8277 78.3283C48.5163 77.8321 49.0312 77.1317 49.2993 76.3263L51.0629 71.0318L54.8866 69.4491L59.8784 71.9445C60.6374 72.3244 61.4968 72.4557 62.3345 72.3196C63.1723 72.1835 63.946 71.787 64.5457 71.1863L71.6366 64.0954C72.2375 63.4957 72.6341 62.7218 72.7701 61.8838C72.906 61.0457 72.7744 60.1862 72.3939 59.4272L69.8993 54.4363L71.482 50.6181L76.7757 48.8527C77.5817 48.5849 78.2828 48.0698 78.7792 47.3805C79.2755 46.6912 79.5418 45.863 79.5402 45.0136V34.9863C79.541 34.1375 79.2742 33.3099 78.7777 32.6214C78.2813 31.9328 77.5804 31.4183 76.7748 31.1509Z" fill="#F2F2F2"/>
<path d="M40.4489 63.6364C53.5029 63.6364 64.0852 53.054 64.0852 40C64.0852 26.946 53.5029 16.3636 40.4489 16.3636C27.3949 16.3636 16.8125 26.946 16.8125 40C16.8125 53.054 27.3949 63.6364 40.4489 63.6364Z" fill="#F7D0D1"/>
<path d="M51.1762 44.2927L51.5335 43.4581C52.5136 41.177 52.8263 38.6646 52.4351 36.2128C52.0439 33.761 50.9649 31.4706 49.3235 29.6078C47.6822 27.745 45.5458 26.3862 43.1628 25.6895C40.7798 24.9927 38.248 24.9866 35.8616 25.6718L33.7707 26.2718C33.6187 26.3155 33.4808 26.3981 33.3704 26.5114C33.2601 26.6247 33.1813 26.7649 33.1417 26.918C33.1022 27.0712 33.1032 27.232 33.1448 27.3846C33.1864 27.5372 33.2671 27.6763 33.3789 27.7881L41.7335 36.1427C42.2406 36.6517 42.5855 37.2996 42.7247 38.0046C42.8639 38.7095 42.7912 39.4399 42.5156 40.1035C42.2401 40.7671 41.7741 41.3342 41.1765 41.7332C40.5789 42.1322 39.8766 42.3452 39.158 42.3454C38.6811 42.3485 38.2084 42.2562 37.7677 42.0741C37.327 41.8919 36.9271 41.6234 36.5916 41.2845L28.2371 32.9299C28.1252 32.8179 27.9861 32.737 27.8334 32.6953C27.6807 32.6536 27.5197 32.6524 27.3664 32.692C27.2131 32.7316 27.0729 32.8105 26.9594 32.921C26.846 33.0314 26.7634 33.1696 26.7198 33.3218L26.1207 35.4127C25.5621 37.3663 25.4649 39.423 25.837 41.4206C26.209 43.4182 27.04 45.302 28.2644 46.9236C29.4889 48.5452 31.0733 49.8601 32.8928 50.7647C34.7122 51.6693 36.717 52.1388 38.7489 52.1363C40.5212 52.1397 42.2754 51.7802 43.9035 51.0799L44.738 50.7236L53.6307 59.609C56.1654 57.8985 58.3475 55.7164 60.058 53.1818L51.1762 44.2927Z" fill="#FF4245"/>
</svg>
