<svg width="81" height="80" viewBox="0 0 81 80" fill="none" xmlns="http://www.w3.org/2000/svg">
<path d="M75.8847 4.56456C73.5425 2.22753 70.3689 0.915039 67.0602 0.915039C63.7514 0.915039 60.5778 2.22753 58.2356 4.56456L6.17017 56.63C6.04703 56.7531 5.96184 56.909 5.92471 57.0791L1.37926 77.9882C1.35033 78.1209 1.3515 78.2584 1.38269 78.3906C1.41388 78.5228 1.47429 78.6463 1.55949 78.7521C1.64469 78.8579 1.7525 78.9432 1.87502 79.0018C1.99753 79.0605 2.13162 79.0909 2.26744 79.0909C2.33219 79.0906 2.39674 79.0839 2.46017 79.0709L23.3693 74.5255C23.5414 74.4891 23.6993 74.4035 23.8238 74.2791L75.8847 22.2137C77.0437 21.0548 77.963 19.6791 78.5902 18.165C79.2174 16.6508 79.5403 15.028 79.5403 13.3891C79.5403 11.7502 79.2174 10.1274 78.5902 8.61324C77.963 7.09912 77.0437 5.72337 75.8847 4.56456Z" fill="#FF4245"/>
<path d="M11.3591 64.5455C11.1793 64.5454 11.0036 64.4921 10.8541 64.3922C10.7047 64.2923 10.5882 64.1503 10.5194 63.9842C10.4506 63.8181 10.4326 63.6354 10.4677 63.4591C10.5027 63.2827 10.5893 63.1208 10.7164 62.9936L61.4182 12.2918C61.5896 12.1262 61.8193 12.0346 62.0576 12.0367C62.296 12.0387 62.524 12.1343 62.6926 12.3029C62.8611 12.4714 62.9567 12.6995 62.9588 12.9378C62.9609 13.1762 62.8692 13.4058 62.7036 13.5773L12.0018 64.2791C11.8314 64.4496 11.6002 64.5454 11.3591 64.5455Z" fill="#C10003"/>
<path d="M16.8132 70C16.6334 70 16.4577 69.9467 16.3082 69.8468C16.1588 69.7469 16.0423 69.6049 15.9735 69.4388C15.9047 69.2727 15.8867 69.09 15.9218 68.9137C15.9568 68.7373 16.0434 68.5754 16.1705 68.4482L66.8723 17.7464C67.0437 17.5808 67.2734 17.4892 67.5117 17.4912C67.7501 17.4933 67.9781 17.5889 68.1467 17.7575C68.3152 17.926 68.4108 18.154 68.4129 18.3924C68.415 18.6308 68.3233 18.8604 68.1577 19.0319L17.4559 69.7337C17.2855 69.9042 17.0543 70 16.8132 70Z" fill="#C10003"/>
<path d="M79.5404 13.3909C79.5441 15.0293 79.223 16.6522 78.5957 18.1657C77.9684 19.6793 77.0474 21.0536 75.8859 22.2091L72.9677 25.1273L55.3223 7.48182L58.2314 4.56363C59.977 2.8175 62.2013 1.6283 64.6228 1.14648C67.0444 0.664648 69.5545 0.911834 71.8356 1.85677C74.1166 2.8017 76.0662 4.40192 77.4377 6.45503C78.8092 8.50813 79.541 10.9219 79.5404 13.3909Z" fill="#C10003"/>
<path d="M67.722 79.0909H2.26749C2.02638 79.0909 1.79515 78.9951 1.62466 78.8246C1.45418 78.6541 1.3584 78.4229 1.3584 78.1818C1.3584 77.9407 1.45418 77.7095 1.62466 77.539C1.79515 77.3685 2.02638 77.2727 2.26749 77.2727H67.722C67.9631 77.2727 68.1944 77.3685 68.3649 77.539C68.5353 77.7095 68.6311 77.9407 68.6311 78.1818C68.6311 78.4229 68.5353 78.6541 68.3649 78.8246C68.1944 78.9951 67.9631 79.0909 67.722 79.0909Z" fill="#ED292C"/>
<path d="M78.631 79.0909H71.3583C71.1172 79.0909 70.886 78.9951 70.7155 78.8246C70.545 78.6541 70.4492 78.4229 70.4492 78.1818C70.4492 77.9407 70.545 77.7095 70.7155 77.539C70.886 77.3685 71.1172 77.2727 71.3583 77.2727H78.631C78.8721 77.2727 79.1034 77.3685 79.2739 77.539C79.4443 77.7095 79.5401 77.9407 79.5401 78.1818C79.5401 78.4229 79.4443 78.6541 79.2739 78.8246C79.1034 78.9951 78.8721 79.0909 78.631 79.0909Z" fill="#ED292C"/>
<path d="M19.9715 73.5191C19.341 73.3275 18.7857 72.9444 18.3826 72.423C17.9796 71.9016 17.7489 71.2676 17.7224 70.6091C17.7336 69.9238 17.9863 69.2645 18.4361 68.7473C18.5776 68.5728 18.6494 68.352 18.6378 68.1276C18.6261 67.9032 18.5318 67.6911 18.373 67.5322C18.2141 67.3732 18.0021 67.2788 17.7777 67.2669C17.5533 67.2551 17.3325 67.3268 17.1579 67.4682C16.7461 67.8381 16.2332 68.0767 15.6849 68.1533C15.1367 68.2299 14.5781 68.1411 14.0806 67.8982C13.5543 67.6533 13.1061 67.2672 12.7861 66.7828C12.4661 66.2985 12.2867 65.7348 12.2679 65.1546C12.279 64.4693 12.5317 63.8099 12.9815 63.2928C13.123 63.1182 13.1949 62.8975 13.1832 62.6731C13.1716 62.4487 13.0772 62.2366 12.9184 62.0776C12.7596 61.9187 12.5475 61.8242 12.3232 61.8124C12.0988 61.8006 11.878 61.8723 11.7033 62.0137C11.346 62.3342 10.9118 62.5568 10.443 62.6597C9.97411 62.7626 9.4866 62.7424 9.02789 62.6009C8.53376 62.4407 8.08531 62.1641 7.72021 61.7946C7.35511 61.4251 7.08401 60.9733 6.9297 60.4773C6.87718 60.2803 6.75771 60.1078 6.59182 59.9894C6.42592 59.8709 6.22396 59.8139 6.02061 59.8282C5.81897 59.8357 5.62556 59.9101 5.47084 60.0396C5.31613 60.1692 5.20891 60.3465 5.16607 60.5437L1.37516 77.9891C1.3463 78.1221 1.34768 78.2599 1.3792 78.3923C1.41071 78.5248 1.47156 78.6484 1.55724 78.7542C1.64293 78.8599 1.75127 78.9451 1.87426 79.0034C1.99726 79.0617 2.13178 79.0916 2.26789 79.0909C2.33263 79.0906 2.39719 79.0839 2.46061 79.0709L19.9061 75.28C20.1037 75.2375 20.2815 75.1304 20.4114 74.9756C20.5413 74.8207 20.6159 74.627 20.6234 74.425C20.6309 74.223 20.5709 74.0243 20.4528 73.8603C20.3348 73.6962 20.1654 73.5762 19.9715 73.5191Z" fill="#C10003"/>
</svg>
