<svg width="81" height="80" viewBox="0 0 81 80" fill="none" xmlns="http://www.w3.org/2000/svg">
<g clip-path="url(#clip0_3288_163753)">
<path d="M62.9492 10H17.9492C14.4974 10 11.6992 12.7982 11.6992 16.25V73.75C11.6992 77.2018 14.4974 80 17.9492 80H62.9492C66.401 80 69.1992 77.2018 69.1992 73.75V16.25C69.1992 12.7982 66.401 10 62.9492 10Z" fill="#F7D0D1"/>
<path d="M62.9492 15H17.9492C17.2589 15 16.6992 15.5596 16.6992 16.25V73.75C16.6992 74.4404 17.2589 75 17.9492 75H62.9492C63.6396 75 64.1992 74.4404 64.1992 73.75V16.25C64.1992 15.5596 63.6396 15 62.9492 15Z" fill="#F2F2F2"/>
<path d="M57.9492 7.49996H49.1105C48.8114 5.41604 47.771 3.50982 46.1801 2.13095C44.5892 0.75209 42.5545 -0.00695801 40.4492 -0.00695801C38.3439 -0.00695801 36.3092 0.75209 34.7184 2.13095C33.1275 3.50982 32.0871 5.41604 31.788 7.49996H22.9492C22.6177 7.49996 22.2998 7.63166 22.0653 7.86608C21.8309 8.1005 21.6992 8.41844 21.6992 8.74996V18.75C21.6992 19.0815 21.8309 19.3994 22.0653 19.6338C22.2998 19.8683 22.6177 20 22.9492 20H57.9492C58.2807 20 58.5987 19.8683 58.8331 19.6338C59.0675 19.3994 59.1992 19.0815 59.1992 18.75V8.74996C59.1992 8.41844 59.0675 8.1005 58.8331 7.86608C58.5987 7.63166 58.2807 7.49996 57.9492 7.49996Z" fill="#FF4245"/>
<path d="M40.4492 12.5C42.5203 12.5 44.1992 10.8211 44.1992 8.75C44.1992 6.67893 42.5203 5 40.4492 5C38.3782 5 36.6992 6.67893 36.6992 8.75C36.6992 10.8211 38.3782 12.5 40.4492 12.5Z" fill="#C10003"/>
<path d="M42.9492 26.25H37.9492C37.2589 26.25 36.6992 26.8096 36.6992 27.5V45C36.6992 45.6904 37.2589 46.25 37.9492 46.25H42.9492C43.6396 46.25 44.1992 45.6904 44.1992 45V27.5C44.1992 26.8096 43.6396 26.25 42.9492 26.25Z" fill="#FF4245"/>
<path d="M32.9492 33.75H27.9492C27.2589 33.75 26.6992 34.3096 26.6992 35V45C26.6992 45.6904 27.2589 46.25 27.9492 46.25H32.9492C33.6396 46.25 34.1992 45.6904 34.1992 45V35C34.1992 34.3096 33.6396 33.75 32.9492 33.75Z" fill="#FF4245"/>
<path d="M52.9492 36.25H47.9492C47.2589 36.25 46.6992 36.8096 46.6992 37.5V45C46.6992 45.6904 47.2589 46.25 47.9492 46.25H52.9492C53.6396 46.25 54.1992 45.6904 54.1992 45V37.5C54.1992 36.8096 53.6396 36.25 52.9492 36.25Z" fill="#FF4245"/>
<path d="M31.6992 51.25H22.9492C22.6177 51.25 22.2998 51.1183 22.0653 50.8839C21.8309 50.6495 21.6992 50.3315 21.6992 50C21.6992 49.6685 21.8309 49.3505 22.0653 49.1161C22.2998 48.8817 22.6177 48.75 22.9492 48.75H31.6992C32.0307 48.75 32.3487 48.8817 32.5831 49.1161C32.8175 49.3505 32.9492 49.6685 32.9492 50C32.9492 50.3315 32.8175 50.6495 32.5831 50.8839C32.3487 51.1183 32.0307 51.25 31.6992 51.25Z" fill="#FF4245"/>
<path d="M40.4492 56.25H22.9492C22.6177 56.25 22.2998 56.1183 22.0653 55.8839C21.8309 55.6495 21.6992 55.3315 21.6992 55C21.6992 54.6685 21.8309 54.3505 22.0653 54.1161C22.2998 53.8817 22.6177 53.75 22.9492 53.75H40.4492C40.7807 53.75 41.0987 53.8817 41.3331 54.1161C41.5675 54.3505 41.6992 54.6685 41.6992 55C41.6992 55.3315 41.5675 55.6495 41.3331 55.8839C41.0987 56.1183 40.7807 56.25 40.4492 56.25Z" fill="#FF4245"/>
<path d="M54.1992 61.25H22.9492C22.6177 61.25 22.2998 61.1183 22.0653 60.8839C21.8309 60.6495 21.6992 60.3315 21.6992 60C21.6992 59.6685 21.8309 59.3505 22.0653 59.1161C22.2998 58.8817 22.6177 58.75 22.9492 58.75H54.1992C54.5307 58.75 54.8487 58.8817 55.0831 59.1161C55.3175 59.3505 55.4492 59.6685 55.4492 60C55.4492 60.3315 55.3175 60.6495 55.0831 60.8839C54.8487 61.1183 54.5307 61.25 54.1992 61.25Z" fill="#FF4245"/>
<path d="M36.6992 66.25H22.9492C22.6177 66.25 22.2998 66.1183 22.0653 65.8839C21.8309 65.6495 21.6992 65.3315 21.6992 65C21.6992 64.6685 21.8309 64.3505 22.0653 64.1161C22.2998 63.8817 22.6177 63.75 22.9492 63.75H36.6992C37.0307 63.75 37.3487 63.8817 37.5831 64.1161C37.8175 64.3505 37.9492 64.6685 37.9492 65C37.9492 65.3315 37.8175 65.6495 37.5831 65.8839C37.3487 66.1183 37.0307 66.25 36.6992 66.25Z" fill="#FF4245"/>
<path d="M51.6992 71.25H22.9492C22.6177 71.25 22.2998 71.1183 22.0653 70.8839C21.8309 70.6495 21.6992 70.3315 21.6992 70C21.6992 69.6685 21.8309 69.3505 22.0653 69.1161C22.2998 68.8817 22.6177 68.75 22.9492 68.75H51.6992C52.0307 68.75 52.3487 68.8817 52.5831 69.1161C52.8175 69.3505 52.9492 69.6685 52.9492 70C52.9492 70.3315 52.8175 70.6495 52.5831 70.8839C52.3487 71.1183 52.0307 71.25 51.6992 71.25Z" fill="#FF4245"/>
<path d="M57.9492 46.25H22.9492C22.6177 46.25 22.2998 46.1183 22.0653 45.8839C21.8309 45.6495 21.6992 45.3315 21.6992 45V25C21.6992 24.6685 21.8309 24.3505 22.0653 24.1161C22.2998 23.8817 22.6177 23.75 22.9492 23.75C23.2807 23.75 23.5987 23.8817 23.8331 24.1161C24.0675 24.3505 24.1992 24.6685 24.1992 25V43.75H57.9492C58.2807 43.75 58.5987 43.8817 58.8331 44.1161C59.0675 44.3505 59.1992 44.6685 59.1992 45C59.1992 45.3315 59.0675 45.6495 58.8331 45.8839C58.5987 46.1183 58.2807 46.25 57.9492 46.25Z" fill="#C10003"/>
</g>
<defs>
<clipPath id="clip0_3288_163753">
<rect width="80" height="80" fill="white" transform="translate(0.449219)"/>
</clipPath>
</defs>
</svg>
