<svg width="320" height="53" viewBox="0 0 320 53" fill="none" xmlns="http://www.w3.org/2000/svg">
<mask id="path-1-inside-1_3238_20036" fill="white">
<path fill-rule="evenodd" clip-rule="evenodd" d="M0 26.1506C0 11.7912 11.6406 0.150635 26 0.150635H242C252.816 0.150635 262.089 6.75483 266.007 16.1506H269.993C273.911 6.75483 283.184 0.150635 294 0.150635C308.359 0.150635 320 11.7912 320 26.1506C320 40.51 308.359 52.1506 294 52.1506C283.969 52.1506 275.265 46.4702 270.929 38.1506H265.071C260.735 46.4702 252.031 52.1506 242 52.1506H26C11.6406 52.1506 0 40.51 0 26.1506Z"/>
</mask>
<path fill-rule="evenodd" clip-rule="evenodd" d="M0 26.1506C0 11.7912 11.6406 0.150635 26 0.150635H242C252.816 0.150635 262.089 6.75483 266.007 16.1506H269.993C273.911 6.75483 283.184 0.150635 294 0.150635C308.359 0.150635 320 11.7912 320 26.1506C320 40.51 308.359 52.1506 294 52.1506C283.969 52.1506 275.265 46.4702 270.929 38.1506H265.071C260.735 46.4702 252.031 52.1506 242 52.1506H26C11.6406 52.1506 0 40.51 0 26.1506Z" fill="#CF0000"/>
<path fill-rule="evenodd" clip-rule="evenodd" d="M0 26.1506C0 11.7912 11.6406 0.150635 26 0.150635H242C252.816 0.150635 262.089 6.75483 266.007 16.1506H269.993C273.911 6.75483 283.184 0.150635 294 0.150635C308.359 0.150635 320 11.7912 320 26.1506C320 40.51 308.359 52.1506 294 52.1506C283.969 52.1506 275.265 46.4702 270.929 38.1506H265.071C260.735 46.4702 252.031 52.1506 242 52.1506H26C11.6406 52.1506 0 40.51 0 26.1506Z" fill="url(#paint0_linear_3238_20036)" fill-opacity="0.15"/>
<path d="M266.007 16.1506L264.623 16.728L265.008 17.6506H266.007V16.1506ZM269.993 16.1506V17.6506H270.992L271.377 16.728L269.993 16.1506ZM270.929 38.1506L272.259 37.4574L271.839 36.6506H270.929V38.1506ZM265.071 38.1506V36.6506H264.161L263.741 37.4574L265.071 38.1506ZM26 -1.34937C10.8122 -1.34937 -1.5 10.9628 -1.5 26.1506H1.5C1.5 12.6197 12.469 1.65063 26 1.65063V-1.34937ZM242 -1.34937H26V1.65063H242V-1.34937ZM267.392 15.5733C263.249 5.63834 253.442 -1.34937 242 -1.34937V1.65063C252.189 1.65063 260.93 7.87132 264.623 16.728L267.392 15.5733ZM269.993 14.6506H266.007V17.6506H269.993V14.6506ZM271.377 16.728C275.07 7.87132 283.811 1.65063 294 1.65063V-1.34937C282.558 -1.34937 272.751 5.63834 268.608 15.5733L271.377 16.728ZM294 1.65063C307.531 1.65063 318.5 12.6197 318.5 26.1506H321.5C321.5 10.9628 309.188 -1.34937 294 -1.34937V1.65063ZM318.5 26.1506C318.5 39.6816 307.531 50.6506 294 50.6506V53.6506C309.188 53.6506 321.5 41.3385 321.5 26.1506H318.5ZM294 50.6506C284.55 50.6506 276.347 45.3007 272.259 37.4574L269.599 38.8439C274.183 47.6397 283.388 53.6506 294 53.6506V50.6506ZM265.071 39.6506H270.929V36.6506H265.071V39.6506ZM242 53.6506C252.612 53.6506 261.817 47.6397 266.401 38.8439L263.741 37.4574C259.653 45.3007 251.45 50.6506 242 50.6506V53.6506ZM26 53.6506H242V50.6506H26V53.6506ZM-1.5 26.1506C-1.5 41.3385 10.8122 53.6506 26 53.6506V50.6506C12.469 50.6506 1.5 39.6816 1.5 26.1506H-1.5Z" fill="url(#paint1_linear_3238_20036)" fill-opacity="0.34" mask="url(#path-1-inside-1_3238_20036)"/>
<defs>
<linearGradient id="paint0_linear_3238_20036" x1="160" y1="0.150635" x2="160" y2="52.1506" gradientUnits="userSpaceOnUse">
<stop stop-color="#6C6C6C"/>
<stop offset="1" stop-color="white" stop-opacity="0"/>
</linearGradient>
<linearGradient id="paint1_linear_3238_20036" x1="160" y1="0.150635" x2="160" y2="52.1506" gradientUnits="userSpaceOnUse">
<stop stop-color="white"/>
<stop offset="1" stop-color="white" stop-opacity="0"/>
</linearGradient>
</defs>
</svg>
