<svg width="81" height="80" viewBox="0 0 81 80" fill="none" xmlns="http://www.w3.org/2000/svg">
<g id="Artboard-23" clip-path="url(#clip0_3285_156356)">
<g id="Search">
<path id="Vector" d="M78.0115 65.795L58.8327 46.6162C58.5983 46.3819 58.2804 46.2502 57.949 46.2502C57.6175 46.2502 57.2996 46.3819 57.0652 46.6162L47.0652 56.6162C46.8309 56.8506 46.6992 57.1685 46.6992 57.5C46.6992 57.8314 46.8309 58.1493 47.0652 58.3837L66.244 77.5625C67.014 78.3472 67.9318 78.9715 68.9445 79.3994C69.9572 79.8273 71.0446 80.0503 72.144 80.0554C73.2433 80.0606 74.3328 79.8479 75.3495 79.4296C76.3662 79.0113 77.2899 78.3957 78.0673 77.6183C78.8447 76.8409 79.4603 75.9172 79.8786 74.9005C80.2969 73.8839 80.5096 72.7944 80.5044 71.695C80.4992 70.5956 80.2762 69.5082 79.8483 68.4955C79.4205 67.4828 78.7961 66.565 78.0115 65.795Z" fill="#C10003"/>
<path id="Vector_2" d="M61.3333 44.1163L53.3208 36.1038C53.1737 35.9566 52.9922 35.8484 52.7928 35.7891C52.5933 35.7298 52.3822 35.7213 52.1786 35.7642C51.975 35.8072 51.7853 35.9003 51.6268 36.0351C51.4683 36.1699 51.3459 36.3422 51.2708 36.5363C50.0099 39.7776 48.0887 42.7213 45.6293 45.1805C43.1699 47.6397 40.226 49.5606 36.9846 50.8213C36.7906 50.8965 36.6185 51.0189 36.4838 51.1775C36.3491 51.3361 36.2561 51.5258 36.2133 51.7294C36.1705 51.933 36.1791 52.144 36.2385 52.3434C36.2979 52.5428 36.4061 52.7243 36.5533 52.8713L44.5658 60.8838C44.8002 61.1181 45.1181 61.2497 45.4496 61.2497C45.781 61.2497 46.0989 61.1181 46.3333 60.8838L61.3333 45.8838C61.5677 45.6493 61.6993 45.3315 61.6993 45C61.6993 44.6685 61.5677 44.3507 61.3333 44.1163Z" fill="#FF4245"/>
<path id="Vector_3" d="M27.9492 55C43.1371 55 55.4492 42.6878 55.4492 27.5C55.4492 12.3122 43.1371 0 27.9492 0C12.7614 0 0.449219 12.3122 0.449219 27.5C0.449219 42.6878 12.7614 55 27.9492 55Z" fill="#F2F2F2"/>
<path id="Vector_4" d="M27.9492 50C40.3756 50 50.4492 39.9264 50.4492 27.5C50.4492 15.0736 40.3756 5 27.9492 5C15.5228 5 5.44922 15.0736 5.44922 27.5C5.44922 39.9264 15.5228 50 27.9492 50Z" fill="#FF4245"/>
<path id="Vector_5" d="M72.1283 76.25C71.5278 76.2516 70.9329 76.1341 70.378 75.9043C69.8232 75.6745 69.3194 75.337 68.8958 74.9113C68.6681 74.6755 68.5421 74.3598 68.545 74.032C68.5478 73.7043 68.6793 73.3908 68.911 73.159C69.1428 72.9273 69.4563 72.7958 69.7841 72.793C70.1118 72.7901 70.4276 72.9161 70.6633 73.1438C71.0583 73.5194 71.5826 73.7289 72.1277 73.7289C72.6728 73.7289 73.1971 73.5194 73.5921 73.1438C73.8275 72.9157 74.1431 72.7893 74.4708 72.7917C74.7986 72.794 75.1123 72.9251 75.3444 73.1565C75.5765 73.3879 75.7084 73.7013 75.7117 74.029C75.715 74.3568 75.5894 74.6727 75.3621 74.9088C74.9386 75.3353 74.4348 75.6734 73.8797 75.9037C73.3246 76.1339 72.7293 76.2516 72.1283 76.25Z" fill="#B61618"/>
<path id="Vector_6" d="M39.6442 16.4488C41.9241 16.0266 44.1679 15.4285 46.3555 14.66C45.8538 13.9359 45.3113 13.241 44.7305 12.5787C42.9265 13.1683 41.0859 13.6393 39.2205 13.9888C38.7729 11.6258 38.146 9.30032 37.3455 7.0325C36.3274 6.57089 35.2756 6.1877 34.1992 5.88625C35.3491 8.62236 36.1999 11.4748 36.7367 14.3938C34.2382 14.7383 31.7211 14.9316 29.1992 14.9725V5.065C28.783 5.0425 28.3742 5 27.9492 5C27.5242 5 27.1155 5.04 26.6992 5.06375V14.9838C24.1755 14.9396 21.6568 14.7434 19.1567 14.3962C19.6917 11.4864 20.5383 8.64252 21.6817 5.91375C20.5978 6.23488 19.5398 6.6377 18.5167 7.11875C17.7308 9.36091 17.1149 11.6591 16.6742 13.9937C14.8125 13.6472 12.9753 13.1799 11.1742 12.595C10.5832 13.2536 10.031 13.946 9.52047 14.6687C11.7165 15.434 13.9681 16.029 16.2555 16.4488C15.7725 19.6944 15.5077 22.9689 15.463 26.25H5.51297C5.48922 26.6663 5.44922 27.0788 5.44922 27.5C5.44922 27.9212 5.48922 28.3337 5.51297 28.75H15.463C15.5071 32.0324 15.7719 35.3081 16.2555 38.555C13.9696 38.9764 11.7193 39.5719 9.52422 40.3363C10.0351 41.0583 10.5873 41.7503 11.178 42.4087C12.9792 41.8257 14.8164 41.3601 16.678 41.015C17.119 43.3466 17.7345 45.6418 18.5192 47.8812C19.5423 48.3623 20.6003 48.7651 21.6842 49.0863C20.5413 46.3586 19.6948 43.516 19.1592 40.6075C21.6584 40.2586 24.1763 40.0607 26.6992 40.015V49.9363C27.1155 49.96 27.528 50 27.9492 50C28.3705 50 28.783 49.96 29.1992 49.9363V40.0275C31.7228 40.0691 34.2416 40.2632 36.7417 40.6087C36.2062 43.5165 35.3597 46.3582 34.2167 49.085C35.3008 48.7644 36.3589 48.3616 37.3817 47.88C38.1665 45.6406 38.782 43.3454 39.223 41.0138C41.0822 41.3621 42.9169 41.8305 44.7155 42.4162C45.3072 41.758 45.8599 41.0655 46.3705 40.3425C44.178 39.5722 41.9292 38.9729 39.6442 38.55C40.1267 35.3047 40.391 32.0307 40.4355 28.75H50.3855C50.408 28.3337 50.4492 27.9212 50.4492 27.5C50.4492 27.0788 50.4117 26.6663 50.3867 26.25H40.4355C40.391 22.9689 40.1267 19.6945 39.6442 16.4488ZM26.6992 37.5163C24.0341 37.5627 21.3745 37.774 18.7355 38.1488C18.269 35.0365 18.0109 31.8966 17.963 28.75H26.6992V37.5163ZM26.6992 26.25H17.963C18.0111 23.1047 18.2688 19.9661 18.7342 16.855C21.3738 17.227 24.0339 17.4358 26.6992 17.48V26.25ZM37.1642 38.1475C34.5245 37.7762 31.8645 37.5675 29.1992 37.5225V28.75H37.9355C37.8873 31.8961 37.6297 35.0356 37.1642 38.1475ZM29.1992 26.25V17.4725C31.8643 17.4295 34.5243 17.2233 37.1642 16.855C37.6297 19.9661 37.8874 23.1047 37.9355 26.25H29.1992Z" fill="#C10003"/>
</g>
</g>
<defs>
<clipPath id="clip0_3285_156356">
<rect width="80" height="80" fill="white" transform="translate(0.449219)"/>
</clipPath>
</defs>
</svg>
