<svg width="81" height="80" viewBox="0 0 81 80" fill="none" xmlns="http://www.w3.org/2000/svg">
<g clip-path="url(#clip0_3285_156266)">
<path d="M40.4502 28.75C47.3538 28.75 52.9502 23.1536 52.9502 16.25C52.9502 9.34644 47.3538 3.75 40.4502 3.75C33.5466 3.75 27.9502 9.34644 27.9502 16.25C27.9502 23.1536 33.5466 28.75 40.4502 28.75Z" fill="#F2F2F2"/>
<path d="M40.4502 16.25C43.2116 16.25 45.4502 14.0114 45.4502 11.25C45.4502 8.48858 43.2116 6.25 40.4502 6.25C37.6888 6.25 35.4502 8.48858 35.4502 11.25C35.4502 14.0114 37.6888 16.25 40.4502 16.25Z" fill="#FF4245"/>
<path d="M51.5301 22.0137C48.2402 19.8553 44.3848 18.7196 40.4501 18.75C36.5197 18.7504 32.6727 19.884 29.3701 22.015C30.4228 24.0449 32.0129 25.7466 33.9668 26.9344C35.9208 28.1222 38.1635 28.7503 40.4501 28.7503C42.7368 28.7503 44.9795 28.1222 46.9334 26.9344C48.8873 25.7466 50.4774 24.0437 51.5301 22.0137Z" fill="#FF4245"/>
<path d="M62.9502 38.75H41.7002V31.25C41.7002 30.9185 41.5685 30.6005 41.3341 30.3661C41.0997 30.1317 40.7817 30 40.4502 30C40.1187 30 39.8007 30.1317 39.5663 30.3661C39.3319 30.6005 39.2002 30.9185 39.2002 31.25V38.75H17.9502C16.2932 38.752 14.7046 39.4111 13.533 40.5828C12.3613 41.7544 11.7022 43.343 11.7002 45V48.75C11.7002 49.0815 11.8319 49.3995 12.0663 49.6339C12.3007 49.8683 12.6187 50 12.9502 50C13.2817 50 13.5997 49.8683 13.8341 49.6339C14.0685 49.3995 14.2002 49.0815 14.2002 48.75V45C14.2002 44.0054 14.5953 43.0516 15.2985 42.3484C16.0018 41.6451 16.9556 41.25 17.9502 41.25H39.2002V48.77C39.2002 49.1015 39.3319 49.4195 39.5663 49.6539C39.8007 49.8883 40.1187 50.02 40.4502 50.02C40.7817 50.02 41.0997 49.8883 41.3341 49.6539C41.5685 49.4195 41.7002 49.1015 41.7002 48.77V41.25H62.9502C63.9448 41.25 64.8986 41.6451 65.6018 42.3484C66.3051 43.0516 66.7002 44.0054 66.7002 45V48.75C66.7002 49.0815 66.8319 49.3995 67.0663 49.6339C67.3007 49.8683 67.6187 50 67.9502 50C68.2817 50 68.5997 49.8683 68.8341 49.6339C69.0685 49.3995 69.2002 49.0815 69.2002 48.75V45C69.1982 43.343 68.5391 41.7544 67.3674 40.5828C66.1957 39.4111 64.6072 38.752 62.9502 38.75Z" fill="#FF4245"/>
<path d="M40.4502 76.25C47.3538 76.25 52.9502 70.6536 52.9502 63.75C52.9502 56.8464 47.3538 51.25 40.4502 51.25C33.5466 51.25 27.9502 56.8464 27.9502 63.75C27.9502 70.6536 33.5466 76.25 40.4502 76.25Z" fill="#F2F2F2"/>
<path d="M40.4502 63.75C43.2116 63.75 45.4502 61.5114 45.4502 58.75C45.4502 55.9886 43.2116 53.75 40.4502 53.75C37.6888 53.75 35.4502 55.9886 35.4502 58.75C35.4502 61.5114 37.6888 63.75 40.4502 63.75Z" fill="#FF4245"/>
<path d="M51.5301 69.5137C48.2402 67.3553 44.3848 66.2196 40.4501 66.25C36.5197 66.2504 32.6727 67.384 29.3701 69.515C30.4228 71.5449 32.0129 73.2466 33.9668 74.4344C35.9208 75.6222 38.1635 76.2503 40.4501 76.2503C42.7368 76.2503 44.9795 75.6222 46.9334 74.4344C48.8873 73.2466 50.4774 71.5437 51.5301 69.5137Z" fill="#FF4245"/>
<path d="M12.9502 76.25C19.8538 76.25 25.4502 70.6536 25.4502 63.75C25.4502 56.8464 19.8538 51.25 12.9502 51.25C6.04664 51.25 0.450195 56.8464 0.450195 63.75C0.450195 70.6536 6.04664 76.25 12.9502 76.25Z" fill="#F2F2F2"/>
<path d="M12.9502 63.75C15.7116 63.75 17.9502 61.5114 17.9502 58.75C17.9502 55.9886 15.7116 53.75 12.9502 53.75C10.1888 53.75 7.9502 55.9886 7.9502 58.75C7.9502 61.5114 10.1888 63.75 12.9502 63.75Z" fill="#FF4245"/>
<path d="M24.0301 69.5137C20.7402 67.3553 16.8848 66.2196 12.9501 66.25C9.01969 66.2504 5.17272 67.384 1.87012 69.515C2.9228 71.5449 4.51289 73.2466 6.46684 74.4344C8.42079 75.6222 10.6635 76.2503 12.9501 76.2503C15.2368 76.2503 17.4794 75.6222 19.4334 74.4344C21.3873 73.2466 22.9774 71.5437 24.0301 69.5137Z" fill="#FF4245"/>
<path d="M67.9502 76.25C74.8538 76.25 80.4502 70.6536 80.4502 63.75C80.4502 56.8464 74.8538 51.25 67.9502 51.25C61.0466 51.25 55.4502 56.8464 55.4502 63.75C55.4502 70.6536 61.0466 76.25 67.9502 76.25Z" fill="#F2F2F2"/>
<path d="M67.9502 63.75C70.7116 63.75 72.9502 61.5114 72.9502 58.75C72.9502 55.9886 70.7116 53.75 67.9502 53.75C65.1888 53.75 62.9502 55.9886 62.9502 58.75C62.9502 61.5114 65.1888 63.75 67.9502 63.75Z" fill="#FF4245"/>
<path d="M79.0301 69.5137C75.7402 67.3553 71.8848 66.2196 67.9501 66.25C64.0197 66.2504 60.1727 67.384 56.8701 69.515C57.9228 71.5449 59.5129 73.2466 61.4668 74.4344C63.4208 75.6222 65.6635 76.2503 67.9501 76.2503C70.2368 76.2503 72.4794 75.6222 74.4334 74.4344C76.3873 73.2466 77.9774 71.5437 79.0301 69.5137Z" fill="#FF4245"/>
</g>
<defs>
<clipPath id="clip0_3285_156266">
<rect width="80" height="80" fill="white" transform="translate(0.450195)"/>
</clipPath>
</defs>
</svg>
