<svg width="320" height="53" viewBox="0 0 320 53" fill="none" xmlns="http://www.w3.org/2000/svg">
<mask id="path-1-inside-1_3266_113811" fill="white">
<path fill-rule="evenodd" clip-rule="evenodd" d="M0 26.5C0 12.1406 11.6406 0.5 26 0.5H242C252.816 0.5 262.089 7.10419 266.007 16.5H269.993C273.911 7.10419 283.184 0.5 294 0.5C308.359 0.5 320 12.1406 320 26.5C320 40.8594 308.359 52.5 294 52.5C283.969 52.5 275.265 46.8196 270.929 38.5H265.071C260.735 46.8196 252.031 52.5 242 52.5H26C11.6406 52.5 0 40.8594 0 26.5Z"/>
</mask>
<path fill-rule="evenodd" clip-rule="evenodd" d="M0 26.5C0 12.1406 11.6406 0.5 26 0.5H242C252.816 0.5 262.089 7.10419 266.007 16.5H269.993C273.911 7.10419 283.184 0.5 294 0.5C308.359 0.5 320 12.1406 320 26.5C320 40.8594 308.359 52.5 294 52.5C283.969 52.5 275.265 46.8196 270.929 38.5H265.071C260.735 46.8196 252.031 52.5 242 52.5H26C11.6406 52.5 0 40.8594 0 26.5Z" fill="#FF0000"/>
<path fill-rule="evenodd" clip-rule="evenodd" d="M0 26.5C0 12.1406 11.6406 0.5 26 0.5H242C252.816 0.5 262.089 7.10419 266.007 16.5H269.993C273.911 7.10419 283.184 0.5 294 0.5C308.359 0.5 320 12.1406 320 26.5C320 40.8594 308.359 52.5 294 52.5C283.969 52.5 275.265 46.8196 270.929 38.5H265.071C260.735 46.8196 252.031 52.5 242 52.5H26C11.6406 52.5 0 40.8594 0 26.5Z" fill="url(#paint0_linear_3266_113811)" fill-opacity="0.15"/>
<path d="M266.007 16.5L264.623 17.0773L265.008 18H266.007V16.5ZM269.993 16.5V18H270.992L271.377 17.0773L269.993 16.5ZM270.929 38.5L272.259 37.8067L271.839 37H270.929V38.5ZM265.071 38.5V37H264.161L263.741 37.8067L265.071 38.5ZM26 -1C10.8122 -1 -1.5 11.3122 -1.5 26.5H1.5C1.5 12.969 12.469 2 26 2V-1ZM242 -1H26V2H242V-1ZM267.392 15.9227C263.249 5.9877 253.442 -1 242 -1V2C252.189 2 260.93 8.22068 264.623 17.0773L267.392 15.9227ZM269.993 15H266.007V18H269.993V15ZM271.377 17.0773C275.07 8.22068 283.811 2 294 2V-1C282.558 -1 272.751 5.9877 268.608 15.9227L271.377 17.0773ZM294 2C307.531 2 318.5 12.969 318.5 26.5H321.5C321.5 11.3122 309.188 -1 294 -1V2ZM318.5 26.5C318.5 40.031 307.531 51 294 51V54C309.188 54 321.5 41.6878 321.5 26.5H318.5ZM294 51C284.55 51 276.347 45.6501 272.259 37.8067L269.599 39.1933C274.183 47.9891 283.388 54 294 54V51ZM265.071 40H270.929V37H265.071V40ZM242 54C252.612 54 261.817 47.9891 266.401 39.1933L263.741 37.8067C259.653 45.6501 251.45 51 242 51V54ZM26 54H242V51H26V54ZM-1.5 26.5C-1.5 41.6878 10.8122 54 26 54V51C12.469 51 1.5 40.031 1.5 26.5H-1.5Z" fill="url(#paint1_linear_3266_113811)" fill-opacity="0.34" mask="url(#path-1-inside-1_3266_113811)"/>
<defs>
<linearGradient id="paint0_linear_3266_113811" x1="160" y1="0.5" x2="160" y2="52.5" gradientUnits="userSpaceOnUse">
<stop stop-color="#BEBEBE"/>
<stop offset="0.84" stop-color="white" stop-opacity="0"/>
</linearGradient>
<linearGradient id="paint1_linear_3266_113811" x1="160" y1="0.5" x2="160" y2="52.5" gradientUnits="userSpaceOnUse">
<stop stop-color="white"/>
<stop offset="1" stop-color="white" stop-opacity="0"/>
</linearGradient>
</defs>
</svg>
