<svg width="81" height="80" viewBox="0 0 81 80" fill="none" xmlns="http://www.w3.org/2000/svg">
<g id="Artboard-20" clip-path="url(#clip0_3292_39900)">
<g id="Laptop">
<path id="Vector" d="M74.2002 12.5H6.7002C6.36867 12.5 6.05073 12.6317 5.81631 12.8661C5.58189 13.1005 5.4502 13.4185 5.4502 13.75V56.25C5.4502 56.5815 5.58189 56.8995 5.81631 57.1339C6.05073 57.3683 6.36867 57.5 6.7002 57.5H16.0314L18.1564 60.6937C18.271 60.8654 18.4262 61.0061 18.6084 61.1031C18.7905 61.2002 18.9938 61.2506 19.2002 61.25H61.7002C61.9059 61.25 62.1085 61.1993 62.2899 61.1022C62.4713 61.0052 62.626 60.8649 62.7402 60.6937L64.8689 57.5H74.2002C74.5317 57.5 74.8497 57.3683 75.0841 57.1339C75.3185 56.8995 75.4502 56.5815 75.4502 56.25V13.75C75.4502 13.4185 75.3185 13.1005 75.0841 12.8661C74.8497 12.6317 74.5317 12.5 74.2002 12.5Z" fill="#F2F2F2"/>
<path id="Vector_2" d="M80.264 55.5925C80.1519 55.4113 79.9954 55.2617 79.8092 55.158C79.623 55.0543 79.4134 54.9999 79.2003 55H64.2003C63.9945 55 63.792 55.0507 63.6106 55.1478C63.4291 55.2448 63.2745 55.3851 63.1603 55.5563L61.0315 58.75H19.869L17.744 55.5563C17.6295 55.3846 17.4742 55.2439 17.2921 55.1469C17.11 55.0498 16.9067 54.9994 16.7003 55H1.70029C1.4872 54.9999 1.27761 55.0543 1.09145 55.158C0.905284 55.2617 0.74872 55.4112 0.636625 55.5925C0.524531 55.7737 0.460628 55.9806 0.450987 56.1935C0.441346 56.4063 0.486286 56.6181 0.58154 56.8088L5.58154 66.8088C5.68537 67.0165 5.84505 67.1913 6.04266 67.3134C6.24028 67.4355 6.468 67.5001 6.70029 67.5H74.2003C74.4336 67.5013 74.6627 67.4372 74.8615 67.315C75.0603 67.1929 75.221 67.0175 75.3253 66.8088L80.3253 56.8088C80.4196 56.6176 80.4635 56.4055 80.4528 56.1927C80.4421 55.9798 80.3771 55.7732 80.264 55.5925Z" fill="#FF4245"/>
<path id="Vector_3" d="M69.2002 17.5H47.9502C47.7168 17.4987 47.4878 17.5628 47.289 17.685C47.0902 17.8071 46.9295 17.9825 46.8252 18.1913L44.6777 22.5H36.2227L34.0752 18.1913C33.9709 17.9825 33.8102 17.8071 33.6114 17.685C33.4126 17.5628 33.1835 17.4987 32.9502 17.5H11.7002C11.3687 17.5 11.0507 17.6317 10.8163 17.8661C10.5819 18.1006 10.4502 18.4185 10.4502 18.75V48.75C10.4502 49.0815 10.5819 49.3995 10.8163 49.6339C11.0507 49.8683 11.3687 50 11.7002 50H69.2002C69.5317 50 69.8497 49.8683 70.0841 49.6339C70.3185 49.3995 70.4502 49.0815 70.4502 48.75V18.75C70.4502 18.4185 70.3185 18.1006 70.0841 17.8661C69.8497 17.6317 69.5317 17.5 69.2002 17.5Z" fill="#F7D0D1"/>
<path id="Vector_4" d="M42.9502 20H37.9502C37.6187 20 37.3007 19.8683 37.0663 19.6339C36.8319 19.3995 36.7002 19.0815 36.7002 18.75C36.7002 18.4185 36.8319 18.1005 37.0663 17.8661C37.3007 17.6317 37.6187 17.5 37.9502 17.5H42.9502C43.2817 17.5 43.5997 17.6317 43.8341 17.8661C44.0685 18.1005 44.2002 18.4185 44.2002 18.75C44.2002 19.0815 44.0685 19.3995 43.8341 19.6339C43.5997 19.8683 43.2817 20 42.9502 20Z" fill="#FF4245"/>
<path id="Vector_5" d="M37.9502 27.5H32.9502C32.2598 27.5 31.7002 28.0596 31.7002 28.75V43.75C31.7002 44.4404 32.2598 45 32.9502 45H37.9502C38.6406 45 39.2002 44.4404 39.2002 43.75V28.75C39.2002 28.0596 38.6406 27.5 37.9502 27.5Z" fill="#FF4245"/>
<path id="Vector_6" d="M27.9502 32.5H22.9502C22.2598 32.5 21.7002 33.0596 21.7002 33.75V43.75C21.7002 44.4404 22.2598 45 22.9502 45H27.9502C28.6406 45 29.2002 44.4404 29.2002 43.75V33.75C29.2002 33.0596 28.6406 32.5 27.9502 32.5Z" fill="#FF4245"/>
<path id="Vector_7" d="M47.9502 35H42.9502C42.2598 35 41.7002 35.5596 41.7002 36.25V43.75C41.7002 44.4404 42.2598 45 42.9502 45H47.9502C48.6406 45 49.2002 44.4404 49.2002 43.75V36.25C49.2002 35.5596 48.6406 35 47.9502 35Z" fill="#FF4245"/>
<path id="Vector_8" d="M57.9502 22.5H52.9502C52.2598 22.5 51.7002 23.0596 51.7002 23.75V43.75C51.7002 44.4404 52.2598 45 52.9502 45H57.9502C58.6406 45 59.2002 44.4404 59.2002 43.75V23.75C59.2002 23.0596 58.6406 22.5 57.9502 22.5Z" fill="#FF4245"/>
<path id="Vector_9" d="M62.9502 45H17.9502C17.6187 45 17.3007 44.8683 17.0663 44.6339C16.8319 44.3995 16.7002 44.0815 16.7002 43.75V23.75C16.7002 23.4185 16.8319 23.1005 17.0663 22.8661C17.3007 22.6317 17.6187 22.5 17.9502 22.5C18.2817 22.5 18.5997 22.6317 18.8341 22.8661C19.0685 23.1005 19.2002 23.4185 19.2002 23.75V42.5H62.9502C63.2817 42.5 63.5997 42.6317 63.8341 42.8661C64.0685 43.1005 64.2002 43.4185 64.2002 43.75C64.2002 44.0815 64.0685 44.3995 63.8341 44.6339C63.5997 44.8683 63.2817 45 62.9502 45Z" fill="#C10003"/>
</g>
</g>
<defs>
<clipPath id="clip0_3292_39900">
<rect width="80" height="80" fill="white" transform="translate(0.450195)"/>
</clipPath>
</defs>
</svg>
