<svg width="81" height="80" viewBox="0 0 81 80" fill="none" xmlns="http://www.w3.org/2000/svg">
<g id="Artboard-7">
<g id="Presentation Board">
<path id="Vector" d="M58.9789 70.8337L57.2164 65.8337C57.1303 65.5899 56.9707 65.3788 56.7596 65.2295C56.5485 65.0802 56.2963 65 56.0377 65H24.8627C24.6041 65 24.3519 65.0802 24.1408 65.2295C23.9297 65.3788 23.77 65.5899 23.6839 65.8337L21.9214 70.8337C21.8549 71.0223 21.8345 71.224 21.862 71.4221C21.8895 71.6201 21.9642 71.8087 22.0796 71.9719C22.1951 72.1351 22.3481 72.2683 22.5256 72.3602C22.7032 72.4521 22.9002 72.5 23.1002 72.5H57.8002C58.0001 72.5 58.1972 72.4521 58.3747 72.3602C58.5523 72.2683 58.7053 72.1351 58.8208 71.9719C58.9362 71.8087 59.0109 71.6201 59.0384 71.4221C59.0659 71.224 59.0455 71.0223 58.9789 70.8337Z" fill="#B61618"/>
<path id="Vector_2" d="M27.9503 56.25H21.7003C21.4417 56.25 21.1895 56.3302 20.9784 56.4795C20.7673 56.6288 20.6076 56.8399 20.5215 57.0837L13.0215 78.3337C12.955 78.5223 12.9346 78.724 12.9621 78.9221C12.9896 79.1201 13.0643 79.3087 13.1797 79.4719C13.2952 79.6351 13.4481 79.7683 13.6257 79.8602C13.8033 79.9521 14.0003 80 14.2003 80H20.4503C20.7089 80 20.9611 79.9198 21.1722 79.7705C21.3833 79.6212 21.5429 79.4101 21.629 79.1663L29.129 57.9163C29.1956 57.7277 29.216 57.526 29.1885 57.3279C29.1609 57.1299 29.0863 56.9413 28.9708 56.7781C28.8554 56.6149 28.7024 56.4817 28.5248 56.3898C28.3473 56.2979 28.1502 56.25 27.9503 56.25Z" fill="#C10003"/>
<path id="Vector_3" d="M67.879 78.3337L60.379 57.0837C60.2929 56.8399 60.1333 56.6288 59.9222 56.4795C59.7111 56.3302 59.4589 56.25 59.2003 56.25H52.9503C52.7503 56.25 52.5533 56.2979 52.3757 56.3898C52.1981 56.4817 52.0452 56.6149 51.9297 56.7781C51.8143 56.9413 51.7396 57.1299 51.7121 57.3279C51.6846 57.526 51.705 57.7277 51.7715 57.9163L59.2715 79.1663C59.3576 79.4101 59.5173 79.6212 59.7284 79.7705C59.9395 79.9198 60.1917 80 60.4503 80H66.7003C66.9002 80 67.0973 79.9521 67.2748 79.8602C67.4524 79.7683 67.6054 79.6351 67.7208 79.4719C67.8363 79.3087 67.9109 79.1201 67.9385 78.9221C67.966 78.724 67.9456 78.5223 67.879 78.3337Z" fill="#C10003"/>
<path id="Vector_4" d="M72.9502 6.25H7.9502C7.25984 6.25 6.7002 6.80964 6.7002 7.5V51.25C6.7002 51.9404 7.25984 52.5 7.9502 52.5H72.9502C73.6405 52.5 74.2002 51.9404 74.2002 51.25V7.5C74.2002 6.80964 73.6405 6.25 72.9502 6.25Z" fill="#F2F2F2"/>
<path id="Vector_5" d="M76.7002 0H4.2002C3.50984 0 2.9502 0.559644 2.9502 1.25V7.5C2.9502 8.19036 3.50984 8.75 4.2002 8.75H76.7002C77.3905 8.75 77.9502 8.19036 77.9502 7.5V1.25C77.9502 0.559644 77.3905 0 76.7002 0Z" fill="#FF4245"/>
<path id="Vector_6" d="M76.7002 50H4.2002C3.50984 50 2.9502 50.5596 2.9502 51.25V57.5C2.9502 58.1904 3.50984 58.75 4.2002 58.75H76.7002C77.3905 58.75 77.9502 58.1904 77.9502 57.5V51.25C77.9502 50.5596 77.3905 50 76.7002 50Z" fill="#FF4245"/>
<path id="Vector_7" d="M55.4502 21.25C55.4502 16.4175 51.5327 12.5 46.7002 12.5C41.8677 12.5 37.9502 16.4175 37.9502 21.25C37.9502 26.0825 41.8677 30 46.7002 30C51.5327 30 55.4502 26.0825 55.4502 21.25Z" fill="#C10003"/>
<path id="Vector_8" d="M46.7002 12.5V21.25L40.5252 27.425C39.2978 26.2047 38.4608 24.6471 38.1203 22.9502C37.7799 21.2532 37.9514 19.4933 38.6131 17.894C39.2748 16.2947 40.3968 14.9281 41.8367 13.9677C43.2766 13.0073 44.9694 12.4965 46.7002 12.5Z" fill="#FF4245"/>
<path id="Vector_9" d="M55.4502 21.25H46.7002V12.5C49.0174 12.5112 51.2365 13.4366 52.875 15.0752C54.5136 16.7137 55.439 18.9328 55.4502 21.25Z" fill="#B61618"/>
<path id="Vector_10" d="M62.9502 30H55.4502C54.7598 30 54.2002 30.5596 54.2002 31.25V46.25C54.2002 46.9404 54.7598 47.5 55.4502 47.5H62.9502C63.6406 47.5 64.2002 46.9404 64.2002 46.25V31.25C64.2002 30.5596 63.6406 30 62.9502 30Z" fill="#FF4245"/>
<path id="Vector_11" d="M50.4502 33.75H42.9502C42.2598 33.75 41.7002 34.3096 41.7002 35V46.25C41.7002 46.9404 42.2598 47.5 42.9502 47.5H50.4502C51.1406 47.5 51.7002 46.9404 51.7002 46.25V35C51.7002 34.3096 51.1406 33.75 50.4502 33.75Z" fill="#FF4245"/>
<path id="Vector_12" d="M37.9502 38.75H30.4502C29.7598 38.75 29.2002 39.3096 29.2002 40V46.25C29.2002 46.9404 29.7598 47.5 30.4502 47.5H37.9502C38.6406 47.5 39.2002 46.9404 39.2002 46.25V40C39.2002 39.3096 38.6406 38.75 37.9502 38.75Z" fill="#FF4245"/>
<path id="Vector_13" d="M41.7002 21.25C41.4537 21.2498 41.2128 21.1767 41.0077 21.04L33.8252 16.25H24.2002C23.8687 16.25 23.5507 16.1183 23.3163 15.8839C23.0819 15.6495 22.9502 15.3315 22.9502 15C22.9502 14.6685 23.0819 14.3505 23.3163 14.1161C23.5507 13.8817 23.8687 13.75 24.2002 13.75H34.2002C34.447 13.7504 34.6883 13.8234 34.8939 13.96L42.3939 18.96C42.6172 19.1088 42.7866 19.3256 42.8771 19.5781C42.9677 19.8307 42.9746 20.1056 42.8968 20.3624C42.819 20.6192 42.6607 20.8441 42.4452 21.004C42.2297 21.1638 41.9685 21.2501 41.7002 21.25Z" fill="#C10003"/>
<path id="Vector_14" d="M19.2002 16.25H12.9502C12.6187 16.25 12.3007 16.1183 12.0663 15.8839C11.8319 15.6495 11.7002 15.3315 11.7002 15C11.7002 14.6685 11.8319 14.3505 12.0663 14.1161C12.3007 13.8817 12.6187 13.75 12.9502 13.75H19.2002C19.5317 13.75 19.8497 13.8817 20.0841 14.1161C20.3185 14.3505 20.4502 14.6685 20.4502 15C20.4502 15.3315 20.3185 15.6495 20.0841 15.8839C19.8497 16.1183 19.5317 16.25 19.2002 16.25Z" fill="#FF4245"/>
<path id="Vector_15" d="M21.7002 21.25H12.9502C12.6187 21.25 12.3007 21.1183 12.0663 20.8839C11.8319 20.6495 11.7002 20.3315 11.7002 20C11.7002 19.6685 11.8319 19.3505 12.0663 19.1161C12.3007 18.8817 12.6187 18.75 12.9502 18.75H21.7002C22.0317 18.75 22.3497 18.8817 22.5841 19.1161C22.8185 19.3505 22.9502 19.6685 22.9502 20C22.9502 20.3315 22.8185 20.6495 22.5841 20.8839C22.3497 21.1183 22.0317 21.25 21.7002 21.25Z" fill="#FF4245"/>
<path id="Vector_16" d="M21.7002 26.25H12.9502C12.6187 26.25 12.3007 26.1183 12.0663 25.8839C11.8319 25.6495 11.7002 25.3315 11.7002 25C11.7002 24.6685 11.8319 24.3505 12.0663 24.1161C12.3007 23.8817 12.6187 23.75 12.9502 23.75H21.7002C22.0317 23.75 22.3497 23.8817 22.5841 24.1161C22.8185 24.3505 22.9502 24.6685 22.9502 25C22.9502 25.3315 22.8185 25.6495 22.5841 25.8839C22.3497 26.1183 22.0317 26.25 21.7002 26.25Z" fill="#FF4245"/>
<path id="Vector_17" d="M29.2002 31.25H12.9502C12.6187 31.25 12.3007 31.1183 12.0663 30.8839C11.8319 30.6495 11.7002 30.3315 11.7002 30C11.7002 29.6685 11.8319 29.3505 12.0663 29.1161C12.3007 28.8817 12.6187 28.75 12.9502 28.75H29.2002C29.5317 28.75 29.8497 28.8817 30.0841 29.1161C30.3185 29.3505 30.4502 29.6685 30.4502 30C30.4502 30.3315 30.3185 30.6495 30.0841 30.8839C29.8497 31.1183 29.5317 31.25 29.2002 31.25Z" fill="#FF4245"/>
<path id="Vector_18" d="M67.9502 47.5H26.7002C26.3687 47.5 26.0507 47.3683 25.8163 47.1339C25.5819 46.8995 25.4502 46.5815 25.4502 46.25C25.4502 45.9185 25.5819 45.6005 25.8163 45.3661C26.0507 45.1317 26.3687 45 26.7002 45H66.7002V21.25C66.7002 20.9185 66.8319 20.6005 67.0663 20.3661C67.3007 20.1317 67.6187 20 67.9502 20C68.2817 20 68.5997 20.1317 68.8341 20.3661C69.0685 20.6005 69.2002 20.9185 69.2002 21.25V46.25C69.2002 46.5815 69.0685 46.8995 68.8341 47.1339C68.5997 47.3683 68.2817 47.5 67.9502 47.5Z" fill="#C10003"/>
</g>
</g>
</svg>
