<svg width="81" height="80" viewBox="0 0 81 80" fill="none" xmlns="http://www.w3.org/2000/svg">
<path d="M73.1756 6.36365H7.72106C4.20652 6.36365 1.35742 9.21274 1.35742 12.7273V67.2727C1.35742 70.7873 4.20652 73.6364 7.72106 73.6364H73.1756C76.6901 73.6364 79.5392 70.7873 79.5392 67.2727V12.7273C79.5392 9.21274 76.6901 6.36365 73.1756 6.36365Z" fill="#FF4245"/>
<path d="M79.5392 17.2727V67.2727C79.5373 68.9599 78.8662 70.5774 77.6732 71.7703C76.4802 72.9633 74.8628 73.6344 73.1756 73.6363H7.72106C6.03391 73.6344 4.41641 72.9633 3.22341 71.7703C2.03042 70.5774 1.35935 68.9599 1.35742 67.2727V17.2727H79.5392Z" fill="#F2F2F2"/>
<path d="M8.62962 14.5455C10.1358 14.5455 11.3569 13.3244 11.3569 11.8182C11.3569 10.312 10.1358 9.09094 8.62962 9.09094C7.12339 9.09094 5.90234 10.312 5.90234 11.8182C5.90234 13.3244 7.12339 14.5455 8.62962 14.5455Z" fill="#C10003"/>
<path d="M15.9031 14.5455C17.4093 14.5455 18.6303 13.3244 18.6303 11.8182C18.6303 10.312 17.4093 9.09094 15.9031 9.09094C14.3968 9.09094 13.1758 10.312 13.1758 11.8182C13.1758 13.3244 14.3968 14.5455 15.9031 14.5455Z" fill="#C10003"/>
<path d="M23.1765 14.5455C24.6827 14.5455 25.9038 13.3244 25.9038 11.8182C25.9038 10.312 24.6827 9.09094 23.1765 9.09094C21.6703 9.09094 20.4492 10.312 20.4492 11.8182C20.4492 13.3244 21.6703 14.5455 23.1765 14.5455Z" fill="#C10003"/>
<path d="M73.176 10.9091H45.9032C45.6621 10.9091 45.4309 11.0048 45.2604 11.1753C45.0899 11.3458 44.9941 11.577 44.9941 11.8181C44.9941 12.0593 45.0899 12.2905 45.2604 12.461C45.4309 12.6315 45.6621 12.7272 45.9032 12.7272H73.176C73.4171 12.7272 73.6483 12.6315 73.8188 12.461C73.9893 12.2905 74.085 12.0593 74.085 11.8181C74.085 11.577 73.9893 11.3458 73.8188 11.1753C73.6483 11.0048 73.4171 10.9091 73.176 10.9091Z" fill="#C10003"/>
<path d="M58.631 46.3636H51.3583C50.8562 46.3636 50.4492 46.7707 50.4492 47.2727V62.7273C50.4492 63.2294 50.8562 63.6364 51.3583 63.6364H58.631C59.1331 63.6364 59.5401 63.2294 59.5401 62.7273V47.2727C59.5401 46.7707 59.1331 46.3636 58.631 46.3636Z" fill="#FF4245"/>
<path d="M70.4474 38.1819H63.1747C62.6726 38.1819 62.2656 38.5889 62.2656 39.091V62.7273C62.2656 63.2294 62.6726 63.6364 63.1747 63.6364H70.4474C70.9495 63.6364 71.3565 63.2294 71.3565 62.7273V39.091C71.3565 38.5889 70.9495 38.1819 70.4474 38.1819Z" fill="#FF4245"/>
<path d="M46.8127 51.8182H39.54C39.0379 51.8182 38.6309 52.2253 38.6309 52.7273V62.7273C38.6309 63.2294 39.0379 63.6364 39.54 63.6364H46.8127C47.3148 63.6364 47.7218 63.2294 47.7218 62.7273V52.7273C47.7218 52.2253 47.3148 51.8182 46.8127 51.8182Z" fill="#FF4245"/>
<path d="M66.8121 27.2727H60.4485C60.2074 27.2727 59.9761 27.3685 59.8056 27.539C59.6352 27.7095 59.5394 27.9407 59.5394 28.1818C59.5394 28.4229 59.6352 28.6541 59.8056 28.8246C59.9761 28.9951 60.2074 29.0909 60.4485 29.0909H64.7212C57.7269 35.9575 49.3432 41.2464 40.1339 44.6018C40.0196 44.6413 39.9142 44.7032 39.8241 44.7839C39.734 44.8646 39.6609 44.9625 39.609 45.0718C39.5572 45.1812 39.5278 45.2998 39.5224 45.4206C39.517 45.5415 39.5358 45.6622 39.5777 45.7757C39.6195 45.8892 39.6836 45.9933 39.7662 46.0817C39.8488 46.1701 39.9482 46.2411 40.0586 46.2906C40.169 46.3401 40.2882 46.3671 40.4091 46.37C40.5301 46.3728 40.6504 46.3515 40.763 46.3072C50.1806 42.9036 58.7549 37.512 65.903 30.4991V34.5454C65.903 34.7865 65.9988 35.0178 66.1693 35.1883C66.3398 35.3587 66.571 35.4545 66.8121 35.4545C67.0532 35.4545 67.2844 35.3587 67.4549 35.1883C67.6254 35.0178 67.7212 34.7865 67.7212 34.5454V28.1818C67.7124 27.9435 67.6138 27.7173 67.4452 27.5487C67.2766 27.3801 67.0504 27.2815 66.8121 27.2727Z" fill="#C10003"/>
<path d="M74.9931 63.6364H34.9931C34.752 63.6364 34.5207 63.5406 34.3503 63.3702C34.1798 63.1997 34.084 62.9684 34.084 62.7273C34.084 62.4862 34.1798 62.255 34.3503 62.0845C34.5207 61.914 34.752 61.8182 34.9931 61.8182H74.9931C75.2342 61.8182 75.4654 61.914 75.6359 62.0845C75.8064 62.255 75.9022 62.4862 75.9022 62.7273C75.9022 62.9684 75.8064 63.1997 75.6359 63.3702C75.4654 63.5406 75.2342 63.6364 74.9931 63.6364Z" fill="#C10003"/>
<path d="M28.6301 61.8182C27.4251 61.8167 26.2697 61.3374 25.4176 60.4852C24.5655 59.6331 24.0861 58.4778 24.0847 57.2727V51.4C24.0847 51.2572 24.0511 51.1165 23.9866 50.9892C23.9221 50.8618 23.8285 50.7515 23.7135 50.667C23.5984 50.5826 23.465 50.5264 23.3242 50.5031C23.1834 50.4797 23.039 50.4899 22.9029 50.5327C21.3046 51.0322 19.592 51.0322 17.9938 50.5327C17.8576 50.4899 17.7133 50.4797 17.5725 50.5031C17.4316 50.5264 17.2983 50.5826 17.1832 50.667C17.0681 50.7515 16.9746 50.8618 16.9101 50.9892C16.8456 51.1165 16.812 51.2572 16.812 51.4V57.2727C16.8105 58.4778 16.3312 59.6331 15.479 60.4852C14.6269 61.3374 13.4716 61.8167 12.2665 61.8182C12.0254 61.8182 11.7942 61.914 11.6237 62.0844C11.4532 62.2549 11.3574 62.4862 11.3574 62.7273C11.3574 62.9684 11.4532 63.1996 11.6237 63.3701C11.7942 63.5406 12.0254 63.6364 12.2665 63.6364H28.6301C28.8713 63.6364 29.1025 63.5406 29.273 63.3701C29.4435 63.1996 29.5392 62.9684 29.5392 62.7273C29.5392 62.4862 29.4435 62.2549 29.273 62.0844C29.1025 61.914 28.8713 61.8182 28.6301 61.8182Z" fill="#C10003"/>
<path d="M13.1751 49.0909C11.2469 49.0888 9.3983 48.3218 8.03487 46.9584C6.67144 45.595 5.90451 43.7464 5.90234 41.8182V37.2727C5.90234 37.0316 5.99812 36.8004 6.16861 36.6299C6.3391 36.4594 6.57033 36.3636 6.81143 36.3636H11.3569C11.598 36.3636 11.8292 36.4594 11.9997 36.6299C12.1702 36.8004 12.266 37.0316 12.266 37.2727V42.7273C12.2627 44.4981 12.8373 46.2217 13.9023 47.6364C14.0036 47.7714 14.0653 47.932 14.0805 48.1002C14.0956 48.2683 14.0637 48.4374 13.9882 48.5884C13.9127 48.7394 13.7966 48.8664 13.653 48.9551C13.5094 49.0439 13.3439 49.0909 13.1751 49.0909ZM7.72053 38.1818V41.8182C7.72184 42.9522 8.07592 44.0577 8.73367 44.9814C9.39142 45.9052 10.3203 46.6014 11.3914 46.9736C10.7668 45.6454 10.4445 44.1951 10.4478 42.7273V38.1818H7.72053Z" fill="#C10003"/>
<path d="M27.7216 49.0909C27.5528 49.0909 27.3873 49.0439 27.2437 48.9551C27.1 48.8664 26.984 48.7394 26.9085 48.5884C26.833 48.4374 26.801 48.2683 26.8162 48.1002C26.8313 47.932 26.893 47.7714 26.9943 47.6364C28.0594 46.2217 28.6339 44.4981 28.6307 42.7273V37.2727C28.6307 37.0316 28.7265 36.8004 28.8969 36.6299C29.0674 36.4594 29.2987 36.3636 29.5398 36.3636H34.0852C34.3263 36.3636 34.5576 36.4594 34.7281 36.6299C34.8985 36.8004 34.9943 37.0316 34.9943 37.2727V41.8182C34.9922 43.7464 34.2252 45.595 32.8618 46.9584C31.4984 48.3218 29.6498 49.0888 27.7216 49.0909ZM30.4489 38.1818V42.7273C30.4522 44.1951 30.1299 45.6454 29.5052 46.9736C30.5764 46.6014 31.5052 45.9052 32.163 44.9814C32.8207 44.0577 33.1748 42.9522 33.1761 41.8182V38.1818H30.4489Z" fill="#C10003"/>
<path d="M29.5401 32.7273H11.3583C11.1172 32.7273 10.886 32.8231 10.7155 32.9936C10.545 33.164 10.4492 33.3953 10.4492 33.6364V42.7273C10.4492 45.3795 11.5028 47.923 13.3782 49.7984C15.2535 51.6737 17.7971 52.7273 20.4492 52.7273C23.1014 52.7273 25.6449 51.6737 27.5203 49.7984C29.3957 47.923 30.4492 45.3795 30.4492 42.7273V33.6364C30.4492 33.3953 30.3534 33.164 30.183 32.9936C30.0125 32.8231 29.7812 32.7273 29.5401 32.7273Z" fill="#FF4245"/>
<path d="M32.2662 29.0909H8.62979C8.12772 29.0909 7.7207 29.498 7.7207 30V33.6364C7.7207 34.1385 8.12772 34.5455 8.62979 34.5455H32.2662C32.7682 34.5455 33.1752 34.1385 33.1752 33.6364V30C33.1752 29.498 32.7682 29.0909 32.2662 29.0909Z" fill="#C10003"/>
</svg>
