<svg width="81" height="80" viewBox="0 0 81 80" fill="none" xmlns="http://www.w3.org/2000/svg">
<path d="M59.5407 0.909058H21.3588C18.3464 0.909058 15.9043 3.35114 15.9043 6.3636V73.6363C15.9043 76.6488 18.3464 79.0909 21.3588 79.0909H59.5407C62.5531 79.0909 64.9952 76.6488 64.9952 73.6363V6.3636C64.9952 3.35114 62.5531 0.909058 59.5407 0.909058Z" fill="#FF4245"/>
<path d="M64.9952 8.18176H15.9043V71.8181H64.9952V8.18176Z" fill="#F2F2F2"/>
<path d="M46.8125 5.45453H37.7216C37.4805 5.45453 37.2493 5.35876 37.0788 5.18827C36.9083 5.01778 36.8125 4.78655 36.8125 4.54544C36.8125 4.30434 36.9083 4.07311 37.0788 3.90262C37.2493 3.73213 37.4805 3.63635 37.7216 3.63635H46.8125C47.0536 3.63635 47.2848 3.73213 47.4553 3.90262C47.6258 4.07311 47.7216 4.30434 47.7216 4.54544C47.7216 4.78655 47.6258 5.01778 47.4553 5.18827C47.2848 5.35876 47.0536 5.45453 46.8125 5.45453Z" fill="#C10003"/>
<path d="M40.449 77.2727C40.0894 77.2727 39.7379 77.1661 39.4389 76.9663C39.1399 76.7665 38.9069 76.4826 38.7693 76.1503C38.6316 75.8181 38.5956 75.4525 38.6658 75.0998C38.736 74.7471 38.9091 74.4232 39.1634 74.1689C39.4177 73.9146 39.7416 73.7414 40.0943 73.6713C40.447 73.6011 40.8126 73.6371 41.1448 73.7748C41.4771 73.9124 41.761 74.1454 41.9608 74.4444C42.1606 74.7434 42.2672 75.0949 42.2672 75.4545C42.2672 75.9367 42.0757 76.3992 41.7347 76.7402C41.3937 77.0812 40.9313 77.2727 40.449 77.2727Z" fill="#C10003"/>
<path d="M34.995 5.45453C35.4971 5.45453 35.9041 5.04752 35.9041 4.54544C35.9041 4.04337 35.4971 3.63635 34.995 3.63635C34.493 3.63635 34.0859 4.04337 34.0859 4.54544C34.0859 5.04752 34.493 5.45453 34.995 5.45453Z" fill="#C10003"/>
<path d="M54.0856 54.5454H49.5401C49.299 54.5454 49.0678 54.4497 48.8973 54.2792C48.7268 54.1087 48.631 53.8775 48.631 53.6364V26.3636C48.631 26.1225 48.7268 25.8913 48.8973 25.7208C49.0678 25.5503 49.299 25.4545 49.5401 25.4545H54.0856C54.3267 25.4545 54.5579 25.3588 54.7284 25.1883C54.8989 25.0178 54.9947 24.7865 54.9947 24.5454C54.9947 24.3043 54.8989 24.0731 54.7284 23.9026C54.5579 23.7321 54.3267 23.6364 54.0856 23.6364H49.5401C48.8168 23.6364 48.1231 23.9237 47.6117 24.4352C47.1002 24.9466 46.8129 25.6403 46.8129 26.3636V39.0909H41.3583C41.1172 39.0909 40.886 39.1867 40.7155 39.3572C40.545 39.5277 40.4492 39.7589 40.4492 40C40.4492 40.2411 40.545 40.4723 40.7155 40.6428C40.886 40.8133 41.1172 40.9091 41.3583 40.9091H46.8129V53.6364C46.8129 54.3597 47.1002 55.0534 47.6117 55.5648C48.1231 56.0763 48.8168 56.3636 49.5401 56.3636H54.0856C54.3267 56.3636 54.5579 56.2678 54.7284 56.0974C54.8989 55.9269 54.9947 55.6956 54.9947 55.4545C54.9947 55.2134 54.8989 54.9822 54.7284 54.8117C54.5579 54.6412 54.3267 54.5454 54.0856 54.5454Z" fill="#C10003"/>
<path d="M35.9052 33.6364C35.6641 33.6364 35.4328 33.7321 35.2624 33.9026C35.0919 34.0731 34.9961 34.3043 34.9961 34.5454V45.4545C34.9961 45.6956 35.0919 45.9269 35.2624 46.0974C35.4328 46.2678 35.6641 46.3636 35.9052 46.3636C37.5929 46.3636 39.2115 45.6932 40.405 44.4998C41.5984 43.3063 42.2688 41.6877 42.2688 40C42.2688 38.3122 41.5984 36.6936 40.405 35.5002C39.2115 34.3068 37.5929 33.6364 35.9052 33.6364Z" fill="#ED292C"/>
<path d="M22.4873 54.0636C22.3187 54.0636 22.1533 54.0166 22.0098 53.928C21.8662 53.8394 21.7502 53.7126 21.6746 53.5618L19.6373 49.4981C19.5679 49.3595 19.535 49.2055 19.5419 49.0506C19.5488 48.8957 19.5951 48.7452 19.6766 48.6133C19.758 48.4814 19.8718 48.3725 20.0072 48.2969C20.1426 48.2214 20.2951 48.1818 20.4501 48.1818H24.9955C25.2366 48.1818 25.4679 48.2775 25.6384 48.448C25.8088 48.6185 25.9046 48.8497 25.9046 49.0909C25.9067 50.5365 25.3348 51.9239 24.3146 52.9481C23.8965 53.3596 23.4168 53.7034 22.8928 53.9672C22.7671 54.0307 22.6282 54.0637 22.4873 54.0636ZM21.9228 49.9999L22.8419 51.8336C22.9073 51.7772 22.971 51.719 23.0337 51.6581C23.4888 51.1989 23.813 50.6264 23.9728 49.9999H21.9228Z" fill="#ED292C"/>
<path d="M27.6316 61.4118L21.268 48.6845C21.1921 48.5327 21.0753 48.4051 20.9307 48.3163C20.7861 48.2274 20.6195 48.1808 20.4498 48.1818H15.9043C15.3234 48.183 14.7441 48.1199 14.1771 47.9936C14.01 47.9587 13.8365 47.9715 13.6764 48.0306C13.5163 48.0897 13.376 48.1926 13.2717 48.3277C13.1673 48.4628 13.1031 48.6245 13.0864 48.7943C13.0697 48.9642 13.1011 49.1353 13.1771 49.2881L19.6407 62.2245C19.7159 62.3749 19.8313 62.5016 19.9741 62.5903C20.117 62.6791 20.2816 62.7265 20.4498 62.7272H26.8134C26.9684 62.7273 27.1208 62.6877 27.2562 62.6123C27.3916 62.5369 27.5055 62.4281 27.587 62.2963C27.6685 62.1645 27.715 62.0141 27.722 61.8593C27.729 61.7044 27.6963 61.5504 27.6271 61.4118H27.6316Z" fill="#C10003"/>
<path d="M64.0868 66.3636C70.1117 66.3636 74.9959 61.4794 74.9959 55.4545C74.9959 49.4296 70.1117 44.5454 64.0868 44.5454C58.0619 44.5454 53.1777 49.4296 53.1777 55.4545C53.1777 61.4794 58.0619 66.3636 64.0868 66.3636Z" fill="#FF4245"/>
<path d="M72.6779 62.1636C71.6599 63.4706 70.3572 64.5283 68.8689 65.256C67.3806 65.9838 65.7459 66.3626 64.0892 66.3634C62.4325 66.3643 60.7974 65.9873 59.3084 65.2611C57.8193 64.5349 56.5155 63.4786 55.4961 62.1727C55.7535 61.7322 56.0453 61.3127 56.3688 60.9181C57.3517 59.7234 58.5985 58.7731 60.0111 58.1421C61.4237 57.5111 62.9634 57.2166 64.5092 57.2818C66.0549 57.347 67.5644 57.7702 68.9188 58.5179C70.2732 59.2656 71.4355 60.3176 72.3143 61.5909C72.4416 61.7818 72.5688 61.9636 72.6779 62.1636Z" fill="#C10003"/>
<path d="M64.0865 56.3636C66.5969 56.3636 68.6319 54.3285 68.6319 51.8182C68.6319 49.3078 66.5969 47.2727 64.0865 47.2727C61.5761 47.2727 59.541 49.3078 59.541 51.8182C59.541 54.3285 61.5761 56.3636 64.0865 56.3636Z" fill="#C10003"/>
<path d="M36.3588 26.4863C36.2206 26.4065 36.0639 26.3645 35.9043 26.3645C35.7447 26.3645 35.5879 26.4065 35.4498 26.4863L29.5407 29.9999H15.9043C13.2521 29.9999 10.7086 31.0535 8.83323 32.9289C6.95787 34.8042 5.9043 37.3478 5.9043 39.9999C5.9043 42.6521 6.95787 45.1956 8.83323 47.071C10.7086 48.9464 13.2521 49.9999 15.9043 49.9999H29.5407L35.4498 53.5163C35.5881 53.5962 35.745 53.6382 35.9047 53.6381C36.0645 53.638 36.2214 53.5958 36.3596 53.5158C36.4979 53.4358 36.6126 53.3208 36.6923 53.1824C36.7719 53.0439 36.8137 52.8869 36.8134 52.7272V27.2727C36.8132 27.1132 36.7711 26.9567 36.6914 26.8186C36.6116 26.6806 36.4969 26.566 36.3588 26.4863Z" fill="#FF4245"/>
<path d="M36.8137 27.2727V52.7273C36.815 52.8864 36.7735 53.0429 36.6936 53.1804C36.6136 53.318 36.4981 53.4315 36.3592 53.5091C36.2235 53.5952 36.0654 53.6395 35.9047 53.6363C35.7454 53.6371 35.5888 53.5963 35.4501 53.5182L29.541 50V30L35.4501 26.4818C35.5889 26.4028 35.7462 26.3621 35.9059 26.3637C36.0656 26.3653 36.222 26.4092 36.3592 26.4909C36.4981 26.5685 36.6136 26.682 36.6936 26.8195C36.7735 26.9571 36.815 27.1136 36.8137 27.2727Z" fill="#C10003"/>
<path d="M64.0868 35.4545C70.1117 35.4545 74.9959 30.5704 74.9959 24.5454C74.9959 18.5205 70.1117 13.6364 64.0868 13.6364C58.0619 13.6364 53.1777 18.5205 53.1777 24.5454C53.1777 30.5704 58.0619 35.4545 64.0868 35.4545Z" fill="#FF4245"/>
<path d="M72.6779 31.2545C71.6599 32.5616 70.3572 33.6192 68.8689 34.347C67.3806 35.0748 65.7459 35.4535 64.0892 35.4544C62.4325 35.4553 60.7974 35.0782 59.3084 34.352C57.8193 33.6258 56.5155 32.5696 55.4961 31.2636C55.7535 30.8231 56.0453 30.4036 56.3688 30.0091C57.3517 28.8143 58.5985 27.864 60.0111 27.233C61.4237 26.602 62.9634 26.3076 64.5092 26.3728C66.0549 26.438 67.5644 26.8611 68.9188 27.6089C70.2732 28.3566 71.4355 29.4085 72.3143 30.6818C72.4416 30.8727 72.5688 31.0545 72.6779 31.2545Z" fill="#C10003"/>
<path d="M64.0865 25.4546C66.5969 25.4546 68.6319 23.4195 68.6319 20.9091C68.6319 18.3987 66.5969 16.3636 64.0865 16.3636C61.5761 16.3636 59.541 18.3987 59.541 20.9091C59.541 23.4195 61.5761 25.4546 64.0865 25.4546Z" fill="#C10003"/>
</svg>
