<svg width="81" height="80" viewBox="0 0 81 80" fill="none" xmlns="http://www.w3.org/2000/svg">
<path d="M61.0918 48.4481L54.8463 42.2026C54.7547 42.1113 54.6447 42.0405 54.5235 41.9951C54.4024 41.9497 54.273 41.9307 54.1439 41.9393C54.0148 41.9479 53.8891 41.9839 53.775 42.045C53.661 42.1061 53.5613 42.1908 53.4827 42.2935C52.4841 43.5971 51.318 44.7632 50.0145 45.7617C49.9118 45.8404 49.8271 45.9401 49.766 46.0541C49.7049 46.1681 49.6688 46.2939 49.6602 46.423C49.6516 46.552 49.6707 46.6815 49.7161 46.8026C49.7615 46.9237 49.8322 47.0338 49.9236 47.1254L56.169 53.3708C56.3395 53.5412 56.5707 53.637 56.8118 53.637C57.0528 53.637 57.284 53.5412 57.4545 53.3708L61.0909 49.7345C61.1754 49.6501 61.2426 49.5499 61.2884 49.4395C61.3342 49.3292 61.3579 49.2109 61.3579 49.0915C61.358 48.972 61.3346 48.8537 61.2889 48.7433C61.2432 48.6329 61.1762 48.5326 61.0918 48.4481Z" fill="#F7D0D1"/>
<path d="M76.8116 20.9091H56.9661C56.8158 20.909 56.6677 20.9462 56.5352 21.0175C56.4028 21.0887 56.29 21.1916 56.2071 21.3171C56.1243 21.4426 56.0738 21.5867 56.0603 21.7365C56.0468 21.8863 56.0707 22.0371 56.1298 22.1754C57.1796 24.6505 57.7207 27.3115 57.7207 30C57.7207 32.6885 57.1796 35.3495 56.1298 37.8245C56.0707 37.9628 56.0468 38.1136 56.0603 38.2634C56.0738 38.4132 56.1243 38.5573 56.2071 38.6828C56.29 38.8083 56.4028 38.9113 56.5352 38.9825C56.6677 39.0537 56.8158 39.0909 56.9661 39.0909H76.8116C77.0527 39.0909 77.2839 38.9951 77.4544 38.8246C77.6249 38.6541 77.7207 38.4229 77.7207 38.1818V21.8181C77.7207 21.577 77.6249 21.3458 77.4544 21.1753C77.2839 21.0048 77.0527 20.9091 76.8116 20.9091Z" fill="#FF4245"/>
<path d="M17.7211 30C17.7143 27.3108 18.2556 24.6484 19.312 22.1754C19.3711 22.0371 19.3949 21.8863 19.3814 21.7365C19.3679 21.5867 19.3175 21.4426 19.2346 21.3171C19.1517 21.1916 19.039 21.0887 18.9065 21.0175C18.7741 20.9462 18.626 20.909 18.4756 20.9091H10.4483C8.03727 20.9091 5.72496 21.8668 4.02009 23.5717C2.31521 25.2766 1.35742 27.5889 1.35742 30C1.35742 32.411 2.31521 34.7233 4.02009 36.4282C5.72496 38.1331 8.03727 39.0909 10.4483 39.0909H18.4756C18.626 39.0909 18.7741 39.0537 18.9065 38.9825C19.039 38.9113 19.1517 38.8083 19.2346 38.6828C19.3175 38.5573 19.3679 38.4132 19.3814 38.2634C19.3949 38.1136 19.3711 37.9628 19.312 37.8245C18.2556 35.3515 17.7143 32.6891 17.7211 30Z" fill="#FF4245"/>
<path d="M37.7205 51.8181C49.7704 51.8181 59.5387 42.0498 59.5387 29.9999C59.5387 17.9501 49.7704 8.18176 37.7205 8.18176C25.6707 8.18176 15.9023 17.9501 15.9023 29.9999C15.9023 42.0498 25.6707 51.8181 37.7205 51.8181Z" fill="#F2F2F2"/>
<path d="M37.7209 48.1818C47.7624 48.1818 55.9027 40.0415 55.9027 29.9999C55.9027 19.9584 47.7624 11.8181 37.7209 11.8181C27.6793 11.8181 19.5391 19.9584 19.5391 29.9999C19.5391 40.0415 27.6793 48.1818 37.7209 48.1818Z" fill="#F7D0D1"/>
<path d="M23.2099 19.0908C20.8283 22.229 19.5391 26.0603 19.5391 29.9999C19.5391 33.9395 20.8283 37.7708 23.2099 40.909H52.2317C54.6133 37.7708 55.9025 33.9395 55.9025 29.9999C55.9025 26.0603 54.6133 22.229 52.2317 19.0908H23.2099Z" fill="#C10003"/>
<path d="M10.4489 33.6363C12.4572 33.6363 14.0852 32.0082 14.0852 29.9999C14.0852 27.9916 12.4572 26.3635 10.4489 26.3635C8.44056 26.3635 6.8125 27.9916 6.8125 29.9999C6.8125 32.0082 8.44056 33.6363 10.4489 33.6363Z" fill="#C10003"/>
<path d="M28.6303 35.4545C31.6428 35.4545 34.0849 33.0124 34.0849 30C34.0849 26.9875 31.6428 24.5454 28.6303 24.5454C25.6179 24.5454 23.1758 26.9875 23.1758 30C23.1758 33.0124 25.6179 35.4545 28.6303 35.4545Z" fill="#ED292C"/>
<path d="M41.3569 35.4545C44.3694 35.4545 46.8114 33.0124 46.8114 30C46.8114 26.9875 44.3694 24.5454 41.3569 24.5454C38.3444 24.5454 35.9023 26.9875 35.9023 30C35.9023 33.0124 38.3444 35.4545 41.3569 35.4545Z" fill="#ED292C"/>
<path d="M77.7656 61.4872L62.9083 46.6299C62.7346 46.4657 62.5047 46.3741 62.2656 46.3741C62.0266 46.3741 61.7966 46.4657 61.6229 46.6299L54.3502 53.9026C54.1797 54.0731 54.084 54.3043 54.084 54.5454C54.084 54.7864 54.1797 55.0176 54.3502 55.1881L69.2074 70.0454C69.7674 70.616 70.435 71.0701 71.1715 71.3813C71.908 71.6925 72.6988 71.8547 73.4984 71.8584C74.2979 71.8622 75.0902 71.7075 75.8297 71.4033C76.5691 71.0991 77.2408 70.6513 77.8062 70.086C78.3716 69.5206 78.8193 68.8488 79.1235 68.1094C79.4278 67.37 79.5824 66.5776 79.5787 65.7781C79.5749 64.9786 79.4127 64.1877 79.1015 63.4512C78.7903 62.7147 78.3363 62.0472 77.7656 61.4872Z" fill="#F2F2F2"/>
</svg>
