<svg width="81" height="80" viewBox="0 0 81 80" fill="none" xmlns="http://www.w3.org/2000/svg">
<path d="M14.485 24.6363C14.3332 24.561 14.1634 24.5297 13.9947 24.5457C13.8261 24.5618 13.6652 24.6247 13.5304 24.7273L1.71223 33.8182C1.5978 33.9062 1.50598 34.0202 1.44437 34.1508C1.38276 34.2813 1.35313 34.4247 1.35792 34.5689C1.36272 34.7132 1.40181 34.8543 1.47196 34.9805C1.54211 35.1067 1.6413 35.2143 1.76132 35.2945L13.5795 43.1763C13.7159 43.2674 13.8744 43.3198 14.0381 43.3281C14.2019 43.3364 14.3649 43.3002 14.5097 43.2234C14.6546 43.1466 14.776 43.0321 14.8611 42.892C14.9462 42.7518 14.9919 42.5912 14.9931 42.4273V25.4545C14.9936 25.2842 14.9462 25.1173 14.8563 24.9726C14.7665 24.828 14.6378 24.7114 14.485 24.6363Z" fill="#ED292C"/>
<path d="M79.1833 33.8254L67.3651 24.7345C67.2305 24.6312 67.0698 24.5676 66.901 24.5509C66.7322 24.5342 66.5621 24.5651 66.41 24.64C66.2578 24.7149 66.1296 24.8309 66.0399 24.9748C65.9502 25.1188 65.9025 25.2849 65.9023 25.4545V42.4273C65.9023 42.5918 65.947 42.7534 66.0316 42.8945C66.1161 43.0357 66.2374 43.1513 66.3826 43.229C66.5277 43.3066 66.6911 43.3434 66.8555 43.3354C67.0199 43.3274 67.1791 43.275 67.316 43.1836L79.1342 35.3018C79.2542 35.2216 79.3534 35.1139 79.4235 34.9878C79.4937 34.8616 79.5328 34.7205 79.5376 34.5762C79.5424 34.4319 79.5127 34.2886 79.4511 34.158C79.3895 34.0275 79.2977 33.9135 79.1833 33.8254Z" fill="#ED292C"/>
<path d="M66.8121 0.909058H14.0849C13.8438 0.909058 13.6125 1.00484 13.442 1.17532C13.2716 1.34581 13.1758 1.57704 13.1758 1.81815V42.4272C13.1758 42.5769 13.2127 42.7242 13.2832 42.8561C13.3538 42.9881 13.4559 43.1006 13.5803 43.1836L39.944 60.7563C40.0934 60.856 40.2689 60.9092 40.4485 60.9092C40.6281 60.9092 40.8037 60.856 40.9531 60.7563L67.3167 43.1836C67.4412 43.1006 67.5432 42.9881 67.6138 42.8561C67.6843 42.7242 67.7213 42.5769 67.7212 42.4272V1.81815C67.7212 1.57704 67.6255 1.34581 67.455 1.17532C67.2845 1.00484 67.0532 0.909058 66.8121 0.909058Z" fill="#F2F2F2"/>
<path d="M79.0592 33.7436C78.9141 33.666 78.7506 33.6292 78.5861 33.6372C78.4217 33.6452 78.2625 33.6977 78.1256 33.7891L40.4483 58.9091L2.77106 33.7891C2.63415 33.6978 2.47501 33.6453 2.31062 33.6373C2.14623 33.6293 1.98275 33.6661 1.83764 33.7438C1.69252 33.8214 1.5712 33.937 1.48663 34.0782C1.40205 34.2194 1.3574 34.3809 1.35742 34.5455V78.1818C1.35742 78.4229 1.4532 78.6542 1.62369 78.8247C1.79418 78.9951 2.02541 79.0909 2.26651 79.0909H78.6301C78.8713 79.0909 79.1025 78.9951 79.273 78.8247C79.4435 78.6542 79.5392 78.4229 79.5392 78.1818V34.5455C79.5393 34.3809 79.4947 34.2194 79.4102 34.0782C79.3256 33.9369 79.2043 33.8213 79.0592 33.7436Z" fill="#C10003"/>
<path d="M51.4483 51.5718L40.4483 58.9091L29.4483 51.5718L1.35742 77.7863V78.1818C1.35742 78.4229 1.4532 78.6541 1.62369 78.8246C1.79418 78.9951 2.02541 79.0909 2.26651 79.0909H78.6301C78.8713 79.0909 79.1025 78.9951 79.273 78.8246C79.4435 78.6541 79.5392 78.4229 79.5392 78.1818V77.7863L51.4483 51.5718Z" fill="#FF4245"/>
<path d="M48.6174 16.6881L48.2483 16.3245C47.7278 15.8037 47.1099 15.3906 46.4297 15.1088C45.7495 14.827 45.0205 14.6819 44.2842 14.6819C43.548 14.6819 42.8189 14.827 42.1387 15.1088C41.4586 15.3906 40.8406 15.8037 40.3201 16.3245L40.1383 16.5063C39.9684 16.6767 39.873 16.9075 39.873 17.1481C39.873 17.3887 39.9684 17.6195 40.1383 17.79L47.1474 24.799C47.3178 24.9692 47.5488 25.0648 47.7897 25.0648C48.0305 25.0648 48.2615 24.9692 48.4319 24.799L48.6138 24.6172C49.6645 23.5656 50.255 22.14 50.2556 20.6534C50.2563 19.1669 49.6671 17.7407 48.6174 16.6881Z" fill="#ED292C"/>
<path d="M44.1179 38.6364C44.0206 38.6364 43.9239 38.6207 43.8316 38.59L39.9116 37.2882C39.7644 37.2393 39.6321 37.1535 39.5274 37.0391C39.4227 36.9246 39.349 36.7852 39.3134 36.6342C39.2777 36.4833 39.2813 36.3257 39.3238 36.1764C39.3663 36.0272 39.4463 35.8914 39.5561 35.7818L42.4752 32.8618C42.6492 32.6977 42.8793 32.6063 43.1184 32.6063C43.3575 32.6063 43.5876 32.6977 43.7616 32.8618C44.7073 33.8048 45.2399 35.0846 45.2425 36.42C45.2382 36.9616 45.1498 37.4992 44.9807 38.0137C44.9205 38.1949 44.8048 38.3526 44.6499 38.4644C44.4951 38.5762 44.3089 38.6364 44.1179 38.6364ZM41.8825 36.0264L43.4216 36.5373V36.4118C43.4188 35.8764 43.2822 35.3502 43.0243 34.8809L41.8825 36.0264Z" fill="#ED292C"/>
<path d="M53.3501 40.3027C53.3145 40.1519 53.241 40.0127 53.1364 39.8983C53.0319 39.7839 52.8999 39.6981 52.7529 39.6491L40.4865 35.5582C40.3264 35.5048 40.1546 35.497 39.9904 35.5357C39.8261 35.5744 39.6759 35.658 39.5565 35.7773L36.6356 38.6982C36.2683 39.0665 35.8616 39.3933 35.4229 39.6727C35.278 39.765 35.1622 39.8963 35.0889 40.0517C35.0156 40.207 34.9878 40.3799 35.0087 40.5504C35.0297 40.7209 35.0984 40.8819 35.2071 41.0149C35.3158 41.1479 35.46 41.2474 35.6229 41.3018L48.0856 45.4627C48.1784 45.4941 48.2758 45.5101 48.3738 45.51C48.6149 45.5099 48.846 45.4141 49.0165 45.2436L53.1074 41.1527C53.2168 41.0434 53.2966 40.908 53.339 40.7592C53.3815 40.6105 53.3853 40.4534 53.3501 40.3027Z" fill="#C10003"/>
<path d="M50.1276 15.72C49.9479 15.7199 49.7721 15.6666 49.6227 15.5667C49.4732 15.4668 49.3567 15.3248 49.2879 15.1587C49.2192 14.9927 49.2011 14.8099 49.2362 14.6336C49.2713 14.4573 49.3578 14.2953 49.4849 14.1682L54.1576 9.49543C54.3291 9.32983 54.5587 9.2382 54.7971 9.24027C55.0355 9.24234 55.2635 9.33795 55.432 9.5065C55.6006 9.67505 55.6962 9.90307 55.6983 10.1414C55.7003 10.3798 55.6087 10.6094 55.4431 10.7809L50.7704 15.4545C50.5998 15.6247 50.3686 15.7202 50.1276 15.72Z" fill="#C10003"/>
<path d="M47.2088 12.8C47.134 12.7999 47.0596 12.7908 46.987 12.7727C46.7531 12.7141 46.5521 12.5651 46.4282 12.3583C46.3042 12.1515 46.2675 11.9039 46.3261 11.67L47.4943 7.00001C47.5197 6.88058 47.5689 6.76749 47.6389 6.66749C47.709 6.56748 47.7985 6.48262 47.902 6.41796C48.0056 6.3533 48.1212 6.31017 48.2418 6.29114C48.3624 6.27211 48.4856 6.27757 48.6041 6.3072C48.7225 6.33683 48.8338 6.39002 48.9312 6.46359C49.0287 6.53716 49.1103 6.62961 49.1712 6.73542C49.2322 6.84123 49.2712 6.95824 49.2859 7.07945C49.3006 7.20066 49.2908 7.3236 49.257 7.44092L48.0852 12.1109C48.0363 12.3068 47.9237 12.4808 47.765 12.6056C47.6063 12.7303 47.4107 12.7987 47.2088 12.8Z" fill="#C10003"/>
<path d="M53.0459 18.6409C52.8242 18.6404 52.6103 18.559 52.4445 18.4119C52.2787 18.2648 52.1723 18.0622 52.1454 17.8422C52.1185 17.6222 52.1729 17.3999 52.2984 17.2172C52.4238 17.0344 52.6118 16.9038 52.8268 16.85L57.5004 15.6818C57.6172 15.6497 57.7393 15.6414 57.8594 15.6572C57.9796 15.673 58.0953 15.7126 58.1999 15.7738C58.3044 15.835 58.3957 15.9165 58.4684 16.0134C58.541 16.1104 58.5936 16.2209 58.6229 16.3384C58.6522 16.456 58.6577 16.5782 58.6392 16.6979C58.6206 16.8177 58.5782 16.9325 58.5147 17.0356C58.4511 17.1387 58.3675 17.2281 58.2689 17.2985C58.1703 17.3689 58.0586 17.4188 57.9404 17.4454L53.2659 18.6136C53.194 18.6319 53.12 18.641 53.0459 18.6409Z" fill="#C10003"/>
<path d="M53.1065 28.1863L36.7511 11.8318C36.6385 11.7192 36.4983 11.6381 36.3445 11.5967C36.1907 11.5553 36.0288 11.555 35.8749 11.5959C35.7209 11.6368 35.5805 11.7173 35.4675 11.8296C35.3545 11.9418 35.273 12.0818 35.2311 12.2354L33.9356 18.0336L24.9511 27.0191C23.259 28.7444 22.3164 31.068 22.3282 33.4846C22.34 35.9012 23.3053 38.2154 25.0142 39.9241C26.723 41.6329 29.0374 42.598 31.4539 42.6096C33.8705 42.6213 36.194 41.6785 37.9193 39.9863L46.902 31L52.7002 29.7045C52.8539 29.6627 52.9939 29.5813 53.1063 29.4684C53.2186 29.3555 53.2993 29.215 53.3403 29.061C53.3813 28.9071 53.3811 28.7451 53.3397 28.5913C53.2984 28.4374 53.2173 28.2972 53.1047 28.1845L53.1065 28.1863Z" fill="#FF4245"/>
<path d="M46.9759 30.9863L52.7031 29.7063C52.8568 29.6646 52.9969 29.5831 53.1092 29.4702C53.2216 29.3573 53.3023 29.2168 53.3433 29.0629C53.3842 28.9089 53.384 28.7469 53.3427 28.5931C53.3013 28.4393 53.2203 28.299 53.1077 28.1863L36.7522 11.8318C36.6396 11.7192 36.4994 11.6381 36.3456 11.5967C36.1919 11.5553 36.0299 11.555 35.876 11.5959C35.7221 11.6368 35.5816 11.7173 35.4686 11.8296C35.3556 11.9418 35.2741 12.0818 35.2322 12.2354L33.9531 17.9627L46.9759 30.9863Z" fill="#C10003"/>
</svg>
