<svg width="81" height="80" viewBox="0 0 81 80" fill="none" xmlns="http://www.w3.org/2000/svg">
<path d="M73.1756 0.909058H7.72106C4.20652 0.909058 1.35742 3.75815 1.35742 7.27269V58.1818C1.35742 61.6963 4.20652 64.5454 7.72106 64.5454H73.1756C76.6901 64.5454 79.5392 61.6963 79.5392 58.1818V7.27269C79.5392 3.75815 76.6901 0.909058 73.1756 0.909058Z" fill="#F2F2F2"/>
<path d="M79.5392 7.27269V11.8181H1.35742V7.27269C1.35935 5.58554 2.03042 3.96805 3.22341 2.77505C4.41641 1.58205 6.03391 0.910982 7.72106 0.909058H73.1756C74.8628 0.910982 76.4802 1.58205 77.6732 2.77505C78.8662 3.96805 79.5373 5.58554 79.5392 7.27269Z" fill="#FF4245"/>
<path d="M7.72141 9.0909C9.22764 9.0909 10.4487 7.86986 10.4487 6.36363C10.4487 4.85739 9.22764 3.63635 7.72141 3.63635C6.21518 3.63635 4.99414 4.85739 4.99414 6.36363C4.99414 7.86986 6.21518 9.0909 7.72141 9.0909Z" fill="#C10003"/>
<path d="M14.9929 9.0909C16.4991 9.0909 17.7202 7.86986 17.7202 6.36363C17.7202 4.85739 16.4991 3.63635 14.9929 3.63635C13.4867 3.63635 12.2656 4.85739 12.2656 6.36363C12.2656 7.86986 13.4867 9.0909 14.9929 9.0909Z" fill="#C10003"/>
<path d="M22.2663 9.0909C23.7726 9.0909 24.9936 7.86986 24.9936 6.36363C24.9936 4.85739 23.7726 3.63635 22.2663 3.63635C20.7601 3.63635 19.5391 4.85739 19.5391 6.36363C19.5391 7.86986 20.7601 9.0909 22.2663 9.0909Z" fill="#C10003"/>
<path d="M73.176 5.45447H45.9032C45.6621 5.45447 45.4309 5.55025 45.2604 5.72073C45.0899 5.89122 44.9941 6.12245 44.9941 6.36356C44.9941 6.60466 45.0899 6.8359 45.2604 7.00638C45.4309 7.17687 45.6621 7.27265 45.9032 7.27265H73.176C73.4171 7.27265 73.6483 7.17687 73.8188 7.00638C73.9893 6.8359 74.085 6.60466 74.085 6.36356C74.085 6.12245 73.9893 5.89122 73.8188 5.72073C73.6483 5.55025 73.4171 5.45447 73.176 5.45447Z" fill="#C10003"/>
<path d="M44.6633 57.1445C44.5605 57.0587 44.4397 56.9969 44.31 56.9637C44.1802 56.9305 44.0447 56.9267 43.9133 56.9527C41.6225 57.3773 39.2731 57.3773 36.9823 56.9527C36.8509 56.9276 36.7155 56.9317 36.5858 56.965C36.4561 56.9982 36.3354 57.0596 36.2322 57.1449C36.1291 57.2302 36.046 57.3372 35.989 57.4583C35.9319 57.5794 35.9024 57.7116 35.9023 57.8454V63.6364C35.9023 63.8775 35.9981 64.1087 36.1686 64.2792C36.3391 64.4497 36.5703 64.5454 36.8114 64.5454H44.0842C44.3253 64.5454 44.5565 64.4497 44.727 64.2792C44.8975 64.1087 44.9933 63.8775 44.9933 63.6364V57.8454C44.9933 57.7115 44.9637 57.5792 44.9067 57.4581C44.8496 57.3369 44.7665 57.2298 44.6633 57.1445Z" fill="#C10003"/>
<path d="M45.9022 62.7273H34.9931C34.752 62.7273 34.5207 62.8231 34.3503 62.9936C34.1798 63.164 34.084 63.3953 34.084 63.6364V72.7273C34.084 74.415 34.7544 76.0336 35.9478 77.2271C37.1413 78.4205 38.7599 79.0909 40.4476 79.0909C42.1354 79.0909 43.754 78.4205 44.9474 77.2271C46.1408 76.0336 46.8113 74.415 46.8113 72.7273V63.6364C46.8113 63.3953 46.7155 63.164 46.545 62.9936C46.3745 62.8231 46.1433 62.7273 45.9022 62.7273Z" fill="#FF4245"/>
<path d="M40.4482 59.0909C51.9959 59.0909 61.3572 49.7296 61.3572 38.1818C61.3572 26.634 51.9959 17.2727 40.4482 17.2727C28.9004 17.2727 19.5391 26.634 19.5391 38.1818C19.5391 49.7296 28.9004 59.0909 40.4482 59.0909Z" fill="#FF4245"/>
<path d="M40.4485 55.4545C49.988 55.4545 57.7212 47.7212 57.7212 38.1818C57.7212 28.6423 49.988 20.9091 40.4485 20.9091C30.909 20.9091 23.1758 28.6423 23.1758 38.1818C23.1758 47.7212 30.909 55.4545 40.4485 55.4545Z" fill="white"/>
<path d="M52.6307 34.47L50.8861 34.2518L50.6134 33.5836L51.6943 32.1945C51.9407 31.8734 52.0618 31.4737 52.0351 31.0698C52.0083 30.666 51.8355 30.2857 51.5489 30L48.6307 27.0827C48.3439 26.796 47.9623 26.6238 47.5575 26.5985C47.1528 26.5732 46.7527 26.6966 46.4325 26.9454L45.047 28.0236L44.3743 27.7454L44.1607 26C44.1094 25.5984 43.9136 25.2292 43.61 24.9615C43.3063 24.6938 42.9155 24.5459 42.5107 24.5454H38.387C37.9822 24.5459 37.5914 24.6938 37.2878 24.9615C36.9841 25.2292 36.7883 25.5984 36.737 26L36.5198 27.7427L35.847 28.0209L34.4625 26.9436C34.1427 26.6939 33.7425 26.5699 33.3376 26.595C32.9326 26.6202 32.5508 26.7927 32.2643 27.08L29.3489 30C29.0626 30.2871 28.8909 30.6687 28.8658 31.0733C28.8407 31.4779 28.9639 31.8779 29.2125 32.1981L30.2925 33.5863L30.0198 34.2545L28.2752 34.4727C27.8726 34.5223 27.5018 34.717 27.2325 35.0205C26.9632 35.3239 26.8139 35.7152 26.8125 36.1209V40.2427C26.813 40.6476 26.9609 41.0385 27.2286 41.3423C27.4962 41.6462 27.8654 41.8421 28.267 41.8936L30.0116 42.1118L30.2843 42.78L29.2034 44.169C28.957 44.4901 28.8359 44.8899 28.8627 45.2937C28.8894 45.6976 29.0623 46.0778 29.3489 46.3636L32.267 49.2809C32.5538 49.5676 32.9354 49.7398 33.3402 49.765C33.7449 49.7903 34.145 49.667 34.4652 49.4181L35.8507 48.34L36.5234 48.6181L36.7407 50.36C36.7911 50.7616 36.9859 51.1311 37.2889 51.3994C37.5919 51.6678 37.9823 51.8166 38.387 51.8181H42.5107C42.9155 51.8176 43.3063 51.6697 43.61 51.402C43.9136 51.1343 44.1094 50.7652 44.1607 50.3636L44.3789 48.6181L45.048 48.3454L46.4352 49.4245C46.7559 49.6719 47.1559 49.7939 47.5601 49.7674C47.9643 49.741 48.345 49.568 48.6307 49.2809L51.5489 46.3636C51.8351 46.0765 52.0069 45.6949 52.032 45.2902C52.0571 44.8856 51.9338 44.4857 51.6852 44.1654L50.6052 42.7772L50.878 42.109L52.6225 41.8909C53.0252 41.8413 53.3959 41.6465 53.6652 41.3431C53.9345 41.0396 54.0838 40.6484 54.0852 40.2427V36.1209C54.0848 35.7159 53.9369 35.325 53.6692 35.0212C53.4015 34.7174 53.0323 34.5214 52.6307 34.47Z" fill="#ED292C"/>
<path d="M40.4487 43.6364C43.4611 43.6364 45.9032 41.1943 45.9032 38.1818C45.9032 35.1694 43.4611 32.7273 40.4487 32.7273C37.4362 32.7273 34.9941 35.1694 34.9941 38.1818C34.9941 41.1943 37.4362 43.6364 40.4487 43.6364Z" fill="#B61618"/>
</svg>
