<svg width="81" height="80" viewBox="0 0 81 80" fill="none" xmlns="http://www.w3.org/2000/svg">
<path d="M72.701 18.2919L40.8828 1.01915C40.7495 0.946586 40.6001 0.908569 40.4483 0.908569C40.2965 0.908569 40.1471 0.946586 40.0137 1.01915L8.19553 18.2919C8.05186 18.3701 7.93195 18.4856 7.84843 18.6262C7.76491 18.7668 7.72088 18.9274 7.72099 19.091V31.1819C7.68672 41.4881 10.7587 51.5655 16.5365 60.1C22.3142 68.6345 30.5294 75.23 40.111 79.0264C40.3275 79.1129 40.569 79.1129 40.7855 79.0264C50.3671 75.23 58.5824 68.6345 64.3601 60.1C70.1378 51.5655 73.2098 41.4881 73.1755 31.1819V19.091C73.1756 18.9274 73.1316 18.7668 73.0481 18.6262C72.9646 18.4856 72.8447 18.3701 72.701 18.2919Z" fill="#F2F2F2"/>
<path d="M69.0647 20.4547L40.8829 5.15648C40.7495 5.08392 40.6001 5.0459 40.4483 5.0459C40.2965 5.0459 40.1471 5.08392 40.0138 5.15648L11.832 20.4547C11.6882 20.5329 11.5682 20.6486 11.4846 20.7894C11.4011 20.9302 11.3572 21.0909 11.3574 21.2547V31.1819C11.3515 40.5009 14.0669 49.6188 19.1701 57.4162C24.2733 65.2136 31.5423 71.3513 40.0847 75.0756C40.1994 75.1256 40.3232 75.1515 40.4483 75.1515C40.5735 75.1515 40.6973 75.1256 40.812 75.0756C49.3544 71.3513 56.6234 65.2136 61.7266 57.4162C66.8298 49.6188 69.5451 40.5009 69.5392 31.1819V21.2547C69.5395 21.0909 69.4956 20.9302 69.412 20.7894C69.3285 20.6486 69.2085 20.5329 69.0647 20.4547Z" fill="#F7D0D1"/>
<path d="M40.4474 55.4546C50.489 55.4546 58.6293 47.3143 58.6293 37.2728C58.6293 27.2312 50.489 19.0909 40.4474 19.0909C30.4059 19.0909 22.2656 27.2312 22.2656 37.2728C22.2656 47.3143 30.4059 55.4546 40.4474 55.4546Z" fill="#FF4245"/>
<path d="M54.9933 37.2728C54.9933 34.3959 54.1402 31.5837 52.5419 29.1917C50.9436 26.7997 48.6719 24.9354 46.0141 23.8345C43.3563 22.7336 40.4317 22.4455 37.6101 23.0068C34.7886 23.568 32.1968 24.9533 30.1626 26.9876C28.1284 29.0218 26.7431 31.6135 26.1818 34.4351C25.6206 37.2566 25.9086 40.1812 27.0096 42.8391C28.1105 45.4969 29.9748 47.7686 32.3668 49.3669C34.7588 50.9651 37.571 51.8182 40.4478 51.8182C44.3017 51.8057 47.9941 50.2693 50.7192 47.5442C53.4443 44.8191 54.9808 41.1266 54.9933 37.2728ZM52.6387 40.9091H47.4914C47.7969 38.4945 47.7969 36.051 47.4914 33.6364H52.6387C53.3539 36.0079 53.3539 38.5376 52.6387 40.9091ZM40.4478 50C38.556 50 36.5105 47.1818 35.5514 42.7273H45.3442C44.3851 47.1818 42.3396 50 40.4478 50ZM35.236 40.9091C34.9124 38.4957 34.9124 36.0498 35.236 33.6364H45.6596C45.9832 36.0498 45.9832 38.4957 45.6596 40.9091H35.236ZM27.7205 37.2728C27.7259 36.0413 27.9065 34.8169 28.2569 33.6364H33.4042C33.0987 36.051 33.0987 38.4945 33.4042 40.9091H28.2569C27.9074 39.7284 27.7269 38.5041 27.7205 37.2728ZM40.4478 24.5455C42.3396 24.5455 44.3851 27.3637 45.3442 31.8182H35.5514C36.5105 27.3637 38.556 24.5455 40.4478 24.5455ZM51.9296 31.8182H47.2024C46.809 29.4678 45.9175 27.2286 44.5878 25.2509C46.1852 25.8053 47.6567 26.6713 48.917 27.7986C50.1773 28.926 51.2013 30.2922 51.9296 31.8182ZM36.306 25.2509C34.9763 27.2286 34.0848 29.4678 33.6914 31.8182H28.9642C29.6925 30.2922 30.7165 28.926 31.9768 27.7986C33.2371 26.6713 34.7086 25.8053 36.306 25.2509ZM28.966 42.7273H33.6933C34.0867 45.0777 34.9781 47.3169 36.3078 49.2946C34.7104 48.7402 33.2389 47.8742 31.9786 46.7469C30.7183 45.6196 29.6943 44.2533 28.966 42.7273ZM44.5896 49.2946C45.9193 47.3169 46.8108 45.0777 47.2042 42.7273H51.9314C51.2031 44.2533 50.1791 45.6196 48.9188 46.7469C47.6586 47.8742 46.1871 48.7402 44.5896 49.2946Z" fill="#C10003"/>
</svg>
